<?xml version="1.0" encoding="utf-8"?>
<!DOCTYPE svg PUBLIC "-//W3C//DTD SVG 20010904//EN" "http://www.w3.org/TR/2001/REC-SVG-20010904/DTD/svg10.dtd">
<svg xmlns="http://www.w3.org/2000/svg" xml:space="preserve" xmlns:xlink="http://www.w3.org/1999/xlink" width="980" height="980" viewBox="0 0 980 980">
<defs>
<mask id="qrmask"><g fill="#ffffff">
<g transform="translate(200,40) scale(3.3333333333333)"><rect width="6" height="6"/></g>
<g transform="translate(260,40) scale(3.3333333333333)"><rect width="6" height="6"/></g>
<g transform="translate(280,40) scale(3.3333333333333)"><rect width="6" height="6"/></g>
<g transform="translate(300,40) scale(3.3333333333333)"><rect width="6" height="6"/></g>
<g transform="translate(320,40) scale(3.3333333333333)"><rect width="6" height="6"/></g>
<g transform="translate(380,40) scale(3.3333333333333)"><rect width="6" height="6"/></g>
<g transform="translate(420,40) scale(3.3333333333333)"><rect width="6" height="6"/></g>
<g transform="translate(480,40) scale(3.3333333333333)"><rect width="6" height="6"/></g>
<g transform="translate(540,40) scale(3.3333333333333)"><rect width="6" height="6"/></g>
<g transform="translate(560,40) scale(3.3333333333333)"><rect width="6" height="6"/></g>
<g transform="translate(580,40) scale(3.3333333333333)"><rect width="6" height="6"/></g>
<g transform="translate(640,40) scale(3.3333333333333)"><rect width="6" height="6"/></g>
<g transform="translate(760,40) scale(3.3333333333333)"><rect width="6" height="6"/></g>
<g transform="translate(200,60) scale(3.3333333333333)"><rect width="6" height="6"/></g>
<g transform="translate(260,60) scale(3.3333333333333)"><rect width="6" height="6"/></g>
<g transform="translate(280,60) scale(3.3333333333333)"><rect width="6" height="6"/></g>
<g transform="translate(300,60) scale(3.3333333333333)"><rect width="6" height="6"/></g>
<g transform="translate(320,60) scale(3.3333333333333)"><rect width="6" height="6"/></g>
<g transform="translate(440,60) scale(3.3333333333333)"><rect width="6" height="6"/></g>
<g transform="translate(480,60) scale(3.3333333333333)"><rect width="6" height="6"/></g>
<g transform="translate(500,60) scale(3.3333333333333)"><rect width="6" height="6"/></g>
<g transform="translate(520,60) scale(3.3333333333333)"><rect width="6" height="6"/></g>
<g transform="translate(540,60) scale(3.3333333333333)"><rect width="6" height="6"/></g>
<g transform="translate(560,60) scale(3.3333333333333)"><rect width="6" height="6"/></g>
<g transform="translate(580,60) scale(3.3333333333333)"><rect width="6" height="6"/></g>
<g transform="translate(700,60) scale(3.3333333333333)"><rect width="6" height="6"/></g>
<g transform="translate(740,60) scale(3.3333333333333)"><rect width="6" height="6"/></g>
<g transform="translate(200,80) scale(3.3333333333333)"><rect width="6" height="6"/></g>
<g transform="translate(220,80) scale(3.3333333333333)"><rect width="6" height="6"/></g>
<g transform="translate(260,80) scale(3.3333333333333)"><rect width="6" height="6"/></g>
<g transform="translate(320,80) scale(3.3333333333333)"><rect width="6" height="6"/></g>
<g transform="translate(360,80) scale(3.3333333333333)"><rect width="6" height="6"/></g>
<g transform="translate(400,80) scale(3.3333333333333)"><rect width="6" height="6"/></g>
<g transform="translate(420,80) scale(3.3333333333333)"><rect width="6" height="6"/></g>
<g transform="translate(480,80) scale(3.3333333333333)"><rect width="6" height="6"/></g>
<g transform="translate(500,80) scale(3.3333333333333)"><rect width="6" height="6"/></g>
<g transform="translate(520,80) scale(3.3333333333333)"><rect width="6" height="6"/></g>
<g transform="translate(540,80) scale(3.3333333333333)"><rect width="6" height="6"/></g>
<g transform="translate(560,80) scale(3.3333333333333)"><rect width="6" height="6"/></g>
<g transform="translate(580,80) scale(3.3333333333333)"><rect width="6" height="6"/></g>
<g transform="translate(600,80) scale(3.3333333333333)"><rect width="6" height="6"/></g>
<g transform="translate(640,80) scale(3.3333333333333)"><rect width="6" height="6"/></g>
<g transform="translate(740,80) scale(3.3333333333333)"><rect width="6" height="6"/></g>
<g transform="translate(300,100) scale(3.3333333333333)"><rect width="6" height="6"/></g>
<g transform="translate(340,100) scale(3.3333333333333)"><rect width="6" height="6"/></g>
<g transform="translate(360,100) scale(3.3333333333333)"><rect width="6" height="6"/></g>
<g transform="translate(380,100) scale(3.3333333333333)"><rect width="6" height="6"/></g>
<g transform="translate(400,100) scale(3.3333333333333)"><rect width="6" height="6"/></g>
<g transform="translate(440,100) scale(3.3333333333333)"><rect width="6" height="6"/></g>
<g transform="translate(460,100) scale(3.3333333333333)"><rect width="6" height="6"/></g>
<g transform="translate(500,100) scale(3.3333333333333)"><rect width="6" height="6"/></g>
<g transform="translate(560,100) scale(3.3333333333333)"><rect width="6" height="6"/></g>
<g transform="translate(580,100) scale(3.3333333333333)"><rect width="6" height="6"/></g>
<g transform="translate(620,100) scale(3.3333333333333)"><rect width="6" height="6"/></g>
<g transform="translate(660,100) scale(3.3333333333333)"><rect width="6" height="6"/></g>
<g transform="translate(680,100) scale(3.3333333333333)"><rect width="6" height="6"/></g>
<g transform="translate(740,100) scale(3.3333333333333)"><rect width="6" height="6"/></g>
<g transform="translate(760,100) scale(3.3333333333333)"><rect width="6" height="6"/></g>
<g transform="translate(240,120) scale(3.3333333333333)"><rect width="6" height="6"/></g>
<g transform="translate(260,120) scale(3.3333333333333)"><rect width="6" height="6"/></g>
<g transform="translate(280,120) scale(3.3333333333333)"><rect width="6" height="6"/></g>
<g transform="translate(400,120) scale(3.3333333333333)"><rect width="6" height="6"/></g>
<g transform="translate(420,120) scale(3.3333333333333)"><rect width="6" height="6"/></g>
<g transform="translate(440,120) scale(3.3333333333333)"><rect width="6" height="6"/></g>
<g transform="translate(460,120) scale(3.3333333333333)"><rect width="6" height="6"/></g>
<g transform="translate(480,120) scale(3.3333333333333)"><rect width="6" height="6"/></g>
<g transform="translate(500,120) scale(3.3333333333333)"><rect width="6" height="6"/></g>
<g transform="translate(520,120) scale(3.3333333333333)"><rect width="6" height="6"/></g>
<g transform="translate(560,120) scale(3.3333333333333)"><rect width="6" height="6"/></g>
<g transform="translate(580,120) scale(3.3333333333333)"><rect width="6" height="6"/></g>
<g transform="translate(620,120) scale(3.3333333333333)"><rect width="6" height="6"/></g>
<g transform="translate(640,120) scale(3.3333333333333)"><rect width="6" height="6"/></g>
<g transform="translate(680,120) scale(3.3333333333333)"><rect width="6" height="6"/></g>
<g transform="translate(720,120) scale(3.3333333333333)"><rect width="6" height="6"/></g>
<g transform="translate(740,120) scale(3.3333333333333)"><rect width="6" height="6"/></g>
<g transform="translate(760,120) scale(3.3333333333333)"><rect width="6" height="6"/></g>
<g transform="translate(200,140) scale(3.3333333333333)"><rect width="6" height="6"/></g>
<g transform="translate(220,140) scale(3.3333333333333)"><rect width="6" height="6"/></g>
<g transform="translate(240,140) scale(3.3333333333333)"><rect width="6" height="6"/></g>
<g transform="translate(260,140) scale(3.3333333333333)"><rect width="6" height="6"/></g>
<g transform="translate(280,140) scale(3.3333333333333)"><rect width="6" height="6"/></g>
<g transform="translate(400,140) scale(3.3333333333333)"><rect width="6" height="6"/></g>
<g transform="translate(420,140) scale(3.3333333333333)"><rect width="6" height="6"/></g>
<g transform="translate(440,140) scale(3.3333333333333)"><rect width="6" height="6"/></g>
<g transform="translate(520,140) scale(3.3333333333333)"><rect width="6" height="6"/></g>
<g transform="translate(560,140) scale(3.3333333333333)"><rect width="6" height="6"/></g>
<g transform="translate(580,140) scale(3.3333333333333)"><rect width="6" height="6"/></g>
<g transform="translate(660,140) scale(3.3333333333333)"><rect width="6" height="6"/></g>
<g transform="translate(680,140) scale(3.3333333333333)"><rect width="6" height="6"/></g>
<g transform="translate(700,140) scale(3.3333333333333)"><rect width="6" height="6"/></g>
<g transform="translate(200,160) scale(3.3333333333333)"><rect width="6" height="6"/></g>
<g transform="translate(240,160) scale(3.3333333333333)"><rect width="6" height="6"/></g>
<g transform="translate(280,160) scale(3.3333333333333)"><rect width="6" height="6"/></g>
<g transform="translate(320,160) scale(3.3333333333333)"><rect width="6" height="6"/></g>
<g transform="translate(360,160) scale(3.3333333333333)"><rect width="6" height="6"/></g>
<g transform="translate(400,160) scale(3.3333333333333)"><rect width="6" height="6"/></g>
<g transform="translate(440,160) scale(3.3333333333333)"><rect width="6" height="6"/></g>
<g transform="translate(480,160) scale(3.3333333333333)"><rect width="6" height="6"/></g>
<g transform="translate(520,160) scale(3.3333333333333)"><rect width="6" height="6"/></g>
<g transform="translate(560,160) scale(3.3333333333333)"><rect width="6" height="6"/></g>
<g transform="translate(600,160) scale(3.3333333333333)"><rect width="6" height="6"/></g>
<g transform="translate(640,160) scale(3.3333333333333)"><rect width="6" height="6"/></g>
<g transform="translate(680,160) scale(3.3333333333333)"><rect width="6" height="6"/></g>
<g transform="translate(720,160) scale(3.3333333333333)"><rect width="6" height="6"/></g>
<g transform="translate(760,160) scale(3.3333333333333)"><rect width="6" height="6"/></g>
<g transform="translate(200,180) scale(3.3333333333333)"><rect width="6" height="6"/></g>
<g transform="translate(300,180) scale(3.3333333333333)"><rect width="6" height="6"/></g>
<g transform="translate(360,180) scale(3.3333333333333)"><rect width="6" height="6"/></g>
<g transform="translate(380,180) scale(3.3333333333333)"><rect width="6" height="6"/></g>
<g transform="translate(400,180) scale(3.3333333333333)"><rect width="6" height="6"/></g>
<g transform="translate(420,180) scale(3.3333333333333)"><rect width="6" height="6"/></g>
<g transform="translate(440,180) scale(3.3333333333333)"><rect width="6" height="6"/></g>
<g transform="translate(520,180) scale(3.3333333333333)"><rect width="6" height="6"/></g>
<g transform="translate(540,180) scale(3.3333333333333)"><rect width="6" height="6"/></g>
<g transform="translate(560,180) scale(3.3333333333333)"><rect width="6" height="6"/></g>
<g transform="translate(600,180) scale(3.3333333333333)"><rect width="6" height="6"/></g>
<g transform="translate(680,180) scale(3.3333333333333)"><rect width="6" height="6"/></g>
<g transform="translate(720,180) scale(3.3333333333333)"><rect width="6" height="6"/></g>
<g transform="translate(760,180) scale(3.3333333333333)"><rect width="6" height="6"/></g>
<g transform="translate(80,200) scale(3.3333333333333)"><rect width="6" height="6"/></g>
<g transform="translate(100,200) scale(3.3333333333333)"><rect width="6" height="6"/></g>
<g transform="translate(120,200) scale(3.3333333333333)"><rect width="6" height="6"/></g>
<g transform="translate(160,200) scale(3.3333333333333)"><rect width="6" height="6"/></g>
<g transform="translate(200,200) scale(3.3333333333333)"><rect width="6" height="6"/></g>
<g transform="translate(220,200) scale(3.3333333333333)"><rect width="6" height="6"/></g>
<g transform="translate(260,200) scale(3.3333333333333)"><rect width="6" height="6"/></g>
<g transform="translate(280,200) scale(3.3333333333333)"><rect width="6" height="6"/></g>
<g transform="translate(320,200) scale(3.3333333333333)"><rect width="6" height="6"/></g>
<g transform="translate(340,200) scale(3.3333333333333)"><rect width="6" height="6"/></g>
<g transform="translate(380,200) scale(3.3333333333333)"><rect width="6" height="6"/></g>
<g transform="translate(420,200) scale(3.3333333333333)"><rect width="6" height="6"/></g>
<g transform="translate(440,200) scale(3.3333333333333)"><rect width="6" height="6"/></g>
<g transform="translate(460,200) scale(3.3333333333333)"><rect width="6" height="6"/></g>
<g transform="translate(480,200) scale(3.3333333333333)"><rect width="6" height="6"/></g>
<g transform="translate(500,200) scale(3.3333333333333)"><rect width="6" height="6"/></g>
<g transform="translate(520,200) scale(3.3333333333333)"><rect width="6" height="6"/></g>
<g transform="translate(540,200) scale(3.3333333333333)"><rect width="6" height="6"/></g>
<g transform="translate(620,200) scale(3.3333333333333)"><rect width="6" height="6"/></g>
<g transform="translate(640,200) scale(3.3333333333333)"><rect width="6" height="6"/></g>
<g transform="translate(660,200) scale(3.3333333333333)"><rect width="6" height="6"/></g>
<g transform="translate(720,200) scale(3.3333333333333)"><rect width="6" height="6"/></g>
<g transform="translate(780,200) scale(3.3333333333333)"><rect width="6" height="6"/></g>
<g transform="translate(800,200) scale(3.3333333333333)"><rect width="6" height="6"/></g>
<g transform="translate(820,200) scale(3.3333333333333)"><rect width="6" height="6"/></g>
<g transform="translate(880,200) scale(3.3333333333333)"><rect width="6" height="6"/></g>
<g transform="translate(900,200) scale(3.3333333333333)"><rect width="6" height="6"/></g>
<g transform="translate(920,200) scale(3.3333333333333)"><rect width="6" height="6"/></g>
<g transform="translate(60,220) scale(3.3333333333333)"><rect width="6" height="6"/></g>
<g transform="translate(100,220) scale(3.3333333333333)"><rect width="6" height="6"/></g>
<g transform="translate(180,220) scale(3.3333333333333)"><rect width="6" height="6"/></g>
<g transform="translate(320,220) scale(3.3333333333333)"><rect width="6" height="6"/></g>
<g transform="translate(360,220) scale(3.3333333333333)"><rect width="6" height="6"/></g>
<g transform="translate(380,220) scale(3.3333333333333)"><rect width="6" height="6"/></g>
<g transform="translate(400,220) scale(3.3333333333333)"><rect width="6" height="6"/></g>
<g transform="translate(420,220) scale(3.3333333333333)"><rect width="6" height="6"/></g>
<g transform="translate(480,220) scale(3.3333333333333)"><rect width="6" height="6"/></g>
<g transform="translate(500,220) scale(3.3333333333333)"><rect width="6" height="6"/></g>
<g transform="translate(580,220) scale(3.3333333333333)"><rect width="6" height="6"/></g>
<g transform="translate(600,220) scale(3.3333333333333)"><rect width="6" height="6"/></g>
<g transform="translate(620,220) scale(3.3333333333333)"><rect width="6" height="6"/></g>
<g transform="translate(640,220) scale(3.3333333333333)"><rect width="6" height="6"/></g>
<g transform="translate(660,220) scale(3.3333333333333)"><rect width="6" height="6"/></g>
<g transform="translate(700,220) scale(3.3333333333333)"><rect width="6" height="6"/></g>
<g transform="translate(740,220) scale(3.3333333333333)"><rect width="6" height="6"/></g>
<g transform="translate(760,220) scale(3.3333333333333)"><rect width="6" height="6"/></g>
<g transform="translate(840,220) scale(3.3333333333333)"><rect width="6" height="6"/></g>
<g transform="translate(860,220) scale(3.3333333333333)"><rect width="6" height="6"/></g>
<g transform="translate(900,220) scale(3.3333333333333)"><rect width="6" height="6"/></g>
<g transform="translate(920,220) scale(3.3333333333333)"><rect width="6" height="6"/></g>
<g transform="translate(60,240) scale(3.3333333333333)"><rect width="6" height="6"/></g>
<g transform="translate(120,240) scale(3.3333333333333)"><rect width="6" height="6"/></g>
<g transform="translate(140,240) scale(3.3333333333333)"><rect width="6" height="6"/></g>
<g transform="translate(160,240) scale(3.3333333333333)"><rect width="6" height="6"/></g>
<g transform="translate(220,240) scale(3.3333333333333)"><rect width="6" height="6"/></g>
<g transform="translate(260,240) scale(3.3333333333333)"><rect width="6" height="6"/></g>
<g transform="translate(300,240) scale(3.3333333333333)"><rect width="6" height="6"/></g>
<g transform="translate(360,240) scale(3.3333333333333)"><rect width="6" height="6"/></g>
<g transform="translate(380,240) scale(3.3333333333333)"><rect width="6" height="6"/></g>
<g transform="translate(400,240) scale(3.3333333333333)"><rect width="6" height="6"/></g>
<g transform="translate(440,240) scale(3.3333333333333)"><rect width="6" height="6"/></g>
<g transform="translate(460,240) scale(3.3333333333333)"><rect width="6" height="6"/></g>
<g transform="translate(500,240) scale(3.3333333333333)"><rect width="6" height="6"/></g>
<g transform="translate(560,240) scale(3.3333333333333)"><rect width="6" height="6"/></g>
<g transform="translate(580,240) scale(3.3333333333333)"><rect width="6" height="6"/></g>
<g transform="translate(660,240) scale(3.3333333333333)"><rect width="6" height="6"/></g>
<g transform="translate(680,240) scale(3.3333333333333)"><rect width="6" height="6"/></g>
<g transform="translate(700,240) scale(3.3333333333333)"><rect width="6" height="6"/></g>
<g transform="translate(720,240) scale(3.3333333333333)"><rect width="6" height="6"/></g>
<g transform="translate(780,240) scale(3.3333333333333)"><rect width="6" height="6"/></g>
<g transform="translate(800,240) scale(3.3333333333333)"><rect width="6" height="6"/></g>
<g transform="translate(860,240) scale(3.3333333333333)"><rect width="6" height="6"/></g>
<g transform="translate(880,240) scale(3.3333333333333)"><rect width="6" height="6"/></g>
<g transform="translate(900,240) scale(3.3333333333333)"><rect width="6" height="6"/></g>
<g transform="translate(40,260) scale(3.3333333333333)"><rect width="6" height="6"/></g>
<g transform="translate(60,260) scale(3.3333333333333)"><rect width="6" height="6"/></g>
<g transform="translate(80,260) scale(3.3333333333333)"><rect width="6" height="6"/></g>
<g transform="translate(120,260) scale(3.3333333333333)"><rect width="6" height="6"/></g>
<g transform="translate(180,260) scale(3.3333333333333)"><rect width="6" height="6"/></g>
<g transform="translate(240,260) scale(3.3333333333333)"><rect width="6" height="6"/></g>
<g transform="translate(280,260) scale(3.3333333333333)"><rect width="6" height="6"/></g>
<g transform="translate(300,260) scale(3.3333333333333)"><rect width="6" height="6"/></g>
<g transform="translate(320,260) scale(3.3333333333333)"><rect width="6" height="6"/></g>
<g transform="translate(380,260) scale(3.3333333333333)"><rect width="6" height="6"/></g>
<g transform="translate(420,260) scale(3.3333333333333)"><rect width="6" height="6"/></g>
<g transform="translate(480,260) scale(3.3333333333333)"><rect width="6" height="6"/></g>
<g transform="translate(500,260) scale(3.3333333333333)"><rect width="6" height="6"/></g>
<g transform="translate(560,260) scale(3.3333333333333)"><rect width="6" height="6"/></g>
<g transform="translate(580,260) scale(3.3333333333333)"><rect width="6" height="6"/></g>
<g transform="translate(600,260) scale(3.3333333333333)"><rect width="6" height="6"/></g>
<g transform="translate(620,260) scale(3.3333333333333)"><rect width="6" height="6"/></g>
<g transform="translate(680,260) scale(3.3333333333333)"><rect width="6" height="6"/></g>
<g transform="translate(740,260) scale(3.3333333333333)"><rect width="6" height="6"/></g>
<g transform="translate(820,260) scale(3.3333333333333)"><rect width="6" height="6"/></g>
<g transform="translate(840,260) scale(3.3333333333333)"><rect width="6" height="6"/></g>
<g transform="translate(860,260) scale(3.3333333333333)"><rect width="6" height="6"/></g>
<g transform="translate(880,260) scale(3.3333333333333)"><rect width="6" height="6"/></g>
<g transform="translate(900,260) scale(3.3333333333333)"><rect width="6" height="6"/></g>
<g transform="translate(60,280) scale(3.3333333333333)"><rect width="6" height="6"/></g>
<g transform="translate(160,280) scale(3.3333333333333)"><rect width="6" height="6"/></g>
<g transform="translate(220,280) scale(3.3333333333333)"><rect width="6" height="6"/></g>
<g transform="translate(240,280) scale(3.3333333333333)"><rect width="6" height="6"/></g>
<g transform="translate(260,280) scale(3.3333333333333)"><rect width="6" height="6"/></g>
<g transform="translate(320,280) scale(3.3333333333333)"><rect width="6" height="6"/></g>
<g transform="translate(380,280) scale(3.3333333333333)"><rect width="6" height="6"/></g>
<g transform="translate(400,280) scale(3.3333333333333)"><rect width="6" height="6"/></g>
<g transform="translate(420,280) scale(3.3333333333333)"><rect width="6" height="6"/></g>
<g transform="translate(500,280) scale(3.3333333333333)"><rect width="6" height="6"/></g>
<g transform="translate(560,280) scale(3.3333333333333)"><rect width="6" height="6"/></g>
<g transform="translate(600,280) scale(3.3333333333333)"><rect width="6" height="6"/></g>
<g transform="translate(640,280) scale(3.3333333333333)"><rect width="6" height="6"/></g>
<g transform="translate(660,280) scale(3.3333333333333)"><rect width="6" height="6"/></g>
<g transform="translate(920,280) scale(3.3333333333333)"><rect width="6" height="6"/></g>
<g transform="translate(100,300) scale(3.3333333333333)"><rect width="6" height="6"/></g>
<g transform="translate(200,300) scale(3.3333333333333)"><rect width="6" height="6"/></g>
<g transform="translate(220,300) scale(3.3333333333333)"><rect width="6" height="6"/></g>
<g transform="translate(240,300) scale(3.3333333333333)"><rect width="6" height="6"/></g>
<g transform="translate(300,300) scale(3.3333333333333)"><rect width="6" height="6"/></g>
<g transform="translate(320,300) scale(3.3333333333333)"><rect width="6" height="6"/></g>
<g transform="translate(400,300) scale(3.3333333333333)"><rect width="6" height="6"/></g>
<g transform="translate(520,300) scale(3.3333333333333)"><rect width="6" height="6"/></g>
<g transform="translate(540,300) scale(3.3333333333333)"><rect width="6" height="6"/></g>
<g transform="translate(620,300) scale(3.3333333333333)"><rect width="6" height="6"/></g>
<g transform="translate(640,300) scale(3.3333333333333)"><rect width="6" height="6"/></g>
<g transform="translate(680,300) scale(3.3333333333333)"><rect width="6" height="6"/></g>
<g transform="translate(760,300) scale(3.3333333333333)"><rect width="6" height="6"/></g>
<g transform="translate(780,300) scale(3.3333333333333)"><rect width="6" height="6"/></g>
<g transform="translate(920,300) scale(3.3333333333333)"><rect width="6" height="6"/></g>
<g transform="translate(40,320) scale(3.3333333333333)"><rect width="6" height="6"/></g>
<g transform="translate(60,320) scale(3.3333333333333)"><rect width="6" height="6"/></g>
<g transform="translate(100,320) scale(3.3333333333333)"><rect width="6" height="6"/></g>
<g transform="translate(120,320) scale(3.3333333333333)"><rect width="6" height="6"/></g>
<g transform="translate(140,320) scale(3.3333333333333)"><rect width="6" height="6"/></g>
<g transform="translate(160,320) scale(3.3333333333333)"><rect width="6" height="6"/></g>
<g transform="translate(220,320) scale(3.3333333333333)"><rect width="6" height="6"/></g>
<g transform="translate(260,320) scale(3.3333333333333)"><rect width="6" height="6"/></g>
<g transform="translate(280,320) scale(3.3333333333333)"><rect width="6" height="6"/></g>
<g transform="translate(320,320) scale(3.3333333333333)"><rect width="6" height="6"/></g>
<g transform="translate(400,320) scale(3.3333333333333)"><rect width="6" height="6"/></g>
<g transform="translate(500,320) scale(3.3333333333333)"><rect width="6" height="6"/></g>
<g transform="translate(520,320) scale(3.3333333333333)"><rect width="6" height="6"/></g>
<g transform="translate(540,320) scale(3.3333333333333)"><rect width="6" height="6"/></g>
<g transform="translate(580,320) scale(3.3333333333333)"><rect width="6" height="6"/></g>
<g transform="translate(600,320) scale(3.3333333333333)"><rect width="6" height="6"/></g>
<g transform="translate(660,320) scale(3.3333333333333)"><rect width="6" height="6"/></g>
<g transform="translate(680,320) scale(3.3333333333333)"><rect width="6" height="6"/></g>
<g transform="translate(700,320) scale(3.3333333333333)"><rect width="6" height="6"/></g>
<g transform="translate(720,320) scale(3.3333333333333)"><rect width="6" height="6"/></g>
<g transform="translate(740,320) scale(3.3333333333333)"><rect width="6" height="6"/></g>
<g transform="translate(760,320) scale(3.3333333333333)"><rect width="6" height="6"/></g>
<g transform="translate(780,320) scale(3.3333333333333)"><rect width="6" height="6"/></g>
<g transform="translate(800,320) scale(3.3333333333333)"><rect width="6" height="6"/></g>
<g transform="translate(840,320) scale(3.3333333333333)"><rect width="6" height="6"/></g>
<g transform="translate(880,320) scale(3.3333333333333)"><rect width="6" height="6"/></g>
<g transform="translate(40,340) scale(3.3333333333333)"><rect width="6" height="6"/></g>
<g transform="translate(100,340) scale(3.3333333333333)"><rect width="6" height="6"/></g>
<g transform="translate(140,340) scale(3.3333333333333)"><rect width="6" height="6"/></g>
<g transform="translate(180,340) scale(3.3333333333333)"><rect width="6" height="6"/></g>
<g transform="translate(220,340) scale(3.3333333333333)"><rect width="6" height="6"/></g>
<g transform="translate(240,340) scale(3.3333333333333)"><rect width="6" height="6"/></g>
<g transform="translate(260,340) scale(3.3333333333333)"><rect width="6" height="6"/></g>
<g transform="translate(300,340) scale(3.3333333333333)"><rect width="6" height="6"/></g>
<g transform="translate(320,340) scale(3.3333333333333)"><rect width="6" height="6"/></g>
<g transform="translate(400,340) scale(3.3333333333333)"><rect width="6" height="6"/></g>
<g transform="translate(420,340) scale(3.3333333333333)"><rect width="6" height="6"/></g>
<g transform="translate(440,340) scale(3.3333333333333)"><rect width="6" height="6"/></g>
<g transform="translate(480,340) scale(3.3333333333333)"><rect width="6" height="6"/></g>
<g transform="translate(500,340) scale(3.3333333333333)"><rect width="6" height="6"/></g>
<g transform="translate(520,340) scale(3.3333333333333)"><rect width="6" height="6"/></g>
<g transform="translate(540,340) scale(3.3333333333333)"><rect width="6" height="6"/></g>
<g transform="translate(580,340) scale(3.3333333333333)"><rect width="6" height="6"/></g>
<g transform="translate(600,340) scale(3.3333333333333)"><rect width="6" height="6"/></g>
<g transform="translate(640,340) scale(3.3333333333333)"><rect width="6" height="6"/></g>
<g transform="translate(680,340) scale(3.3333333333333)"><rect width="6" height="6"/></g>
<g transform="translate(720,340) scale(3.3333333333333)"><rect width="6" height="6"/></g>
<g transform="translate(740,340) scale(3.3333333333333)"><rect width="6" height="6"/></g>
<g transform="translate(760,340) scale(3.3333333333333)"><rect width="6" height="6"/></g>
<g transform="translate(780,340) scale(3.3333333333333)"><rect width="6" height="6"/></g>
<g transform="translate(820,340) scale(3.3333333333333)"><rect width="6" height="6"/></g>
<g transform="translate(840,340) scale(3.3333333333333)"><rect width="6" height="6"/></g>
<g transform="translate(860,340) scale(3.3333333333333)"><rect width="6" height="6"/></g>
<g transform="translate(880,340) scale(3.3333333333333)"><rect width="6" height="6"/></g>
<g transform="translate(900,340) scale(3.3333333333333)"><rect width="6" height="6"/></g>
<g transform="translate(40,360) scale(3.3333333333333)"><rect width="6" height="6"/></g>
<g transform="translate(60,360) scale(3.3333333333333)"><rect width="6" height="6"/></g>
<g transform="translate(100,360) scale(3.3333333333333)"><rect width="6" height="6"/></g>
<g transform="translate(140,360) scale(3.3333333333333)"><rect width="6" height="6"/></g>
<g transform="translate(160,360) scale(3.3333333333333)"><rect width="6" height="6"/></g>
<g transform="translate(200,360) scale(3.3333333333333)"><rect width="6" height="6"/></g>
<g transform="translate(220,360) scale(3.3333333333333)"><rect width="6" height="6"/></g>
<g transform="translate(240,360) scale(3.3333333333333)"><rect width="6" height="6"/></g>
<g transform="translate(280,360) scale(3.3333333333333)"><rect width="6" height="6"/></g>
<g transform="translate(400,360) scale(3.3333333333333)"><rect width="6" height="6"/></g>
<g transform="translate(420,360) scale(3.3333333333333)"><rect width="6" height="6"/></g>
<g transform="translate(460,360) scale(3.3333333333333)"><rect width="6" height="6"/></g>
<g transform="translate(480,360) scale(3.3333333333333)"><rect width="6" height="6"/></g>
<g transform="translate(500,360) scale(3.3333333333333)"><rect width="6" height="6"/></g>
<g transform="translate(560,360) scale(3.3333333333333)"><rect width="6" height="6"/></g>
<g transform="translate(620,360) scale(3.3333333333333)"><rect width="6" height="6"/></g>
<g transform="translate(640,360) scale(3.3333333333333)"><rect width="6" height="6"/></g>
<g transform="translate(660,360) scale(3.3333333333333)"><rect width="6" height="6"/></g>
<g transform="translate(720,360) scale(3.3333333333333)"><rect width="6" height="6"/></g>
<g transform="translate(780,360) scale(3.3333333333333)"><rect width="6" height="6"/></g>
<g transform="translate(820,360) scale(3.3333333333333)"><rect width="6" height="6"/></g>
<g transform="translate(860,360) scale(3.3333333333333)"><rect width="6" height="6"/></g>
<g transform="translate(900,360) scale(3.3333333333333)"><rect width="6" height="6"/></g>
<g transform="translate(920,360) scale(3.3333333333333)"><rect width="6" height="6"/></g>
<g transform="translate(40,380) scale(3.3333333333333)"><rect width="6" height="6"/></g>
<g transform="translate(100,380) scale(3.3333333333333)"><rect width="6" height="6"/></g>
<g transform="translate(120,380) scale(3.3333333333333)"><rect width="6" height="6"/></g>
<g transform="translate(140,380) scale(3.3333333333333)"><rect width="6" height="6"/></g>
<g transform="translate(180,380) scale(3.3333333333333)"><rect width="6" height="6"/></g>
<g transform="translate(260,380) scale(3.3333333333333)"><rect width="6" height="6"/></g>
<g transform="translate(320,380) scale(3.3333333333333)"><rect width="6" height="6"/></g>
<g transform="translate(420,380) scale(3.3333333333333)"><rect width="6" height="6"/></g>
<g transform="translate(440,380) scale(3.3333333333333)"><rect width="6" height="6"/></g>
<g transform="translate(480,380) scale(3.3333333333333)"><rect width="6" height="6"/></g>
<g transform="translate(500,380) scale(3.3333333333333)"><rect width="6" height="6"/></g>
<g transform="translate(520,380) scale(3.3333333333333)"><rect width="6" height="6"/></g>
<g transform="translate(560,380) scale(3.3333333333333)"><rect width="6" height="6"/></g>
<g transform="translate(600,380) scale(3.3333333333333)"><rect width="6" height="6"/></g>
<g transform="translate(640,380) scale(3.3333333333333)"><rect width="6" height="6"/></g>
<g transform="translate(680,380) scale(3.3333333333333)"><rect width="6" height="6"/></g>
<g transform="translate(740,380) scale(3.3333333333333)"><rect width="6" height="6"/></g>
<g transform="translate(760,380) scale(3.3333333333333)"><rect width="6" height="6"/></g>
<g transform="translate(780,380) scale(3.3333333333333)"><rect width="6" height="6"/></g>
<g transform="translate(820,380) scale(3.3333333333333)"><rect width="6" height="6"/></g>
<g transform="translate(840,380) scale(3.3333333333333)"><rect width="6" height="6"/></g>
<g transform="translate(860,380) scale(3.3333333333333)"><rect width="6" height="6"/></g>
<g transform="translate(920,380) scale(3.3333333333333)"><rect width="6" height="6"/></g>
<g transform="translate(60,400) scale(3.3333333333333)"><rect width="6" height="6"/></g>
<g transform="translate(80,400) scale(3.3333333333333)"><rect width="6" height="6"/></g>
<g transform="translate(100,400) scale(3.3333333333333)"><rect width="6" height="6"/></g>
<g transform="translate(160,400) scale(3.3333333333333)"><rect width="6" height="6"/></g>
<g transform="translate(180,400) scale(3.3333333333333)"><rect width="6" height="6"/></g>
<g transform="translate(240,400) scale(3.3333333333333)"><rect width="6" height="6"/></g>
<g transform="translate(260,400) scale(3.3333333333333)"><rect width="6" height="6"/></g>
<g transform="translate(280,400) scale(3.3333333333333)"><rect width="6" height="6"/></g>
<g transform="translate(300,400) scale(3.3333333333333)"><rect width="6" height="6"/></g>
<g transform="translate(360,400) scale(3.3333333333333)"><rect width="6" height="6"/></g>
<g transform="translate(420,400) scale(3.3333333333333)"><rect width="6" height="6"/></g>
<g transform="translate(520,400) scale(3.3333333333333)"><rect width="6" height="6"/></g>
<g transform="translate(560,400) scale(3.3333333333333)"><rect width="6" height="6"/></g>
<g transform="translate(620,400) scale(3.3333333333333)"><rect width="6" height="6"/></g>
<g transform="translate(640,400) scale(3.3333333333333)"><rect width="6" height="6"/></g>
<g transform="translate(660,400) scale(3.3333333333333)"><rect width="6" height="6"/></g>
<g transform="translate(680,400) scale(3.3333333333333)"><rect width="6" height="6"/></g>
<g transform="translate(720,400) scale(3.3333333333333)"><rect width="6" height="6"/></g>
<g transform="translate(740,400) scale(3.3333333333333)"><rect width="6" height="6"/></g>
<g transform="translate(780,400) scale(3.3333333333333)"><rect width="6" height="6"/></g>
<g transform="translate(800,400) scale(3.3333333333333)"><rect width="6" height="6"/></g>
<g transform="translate(820,400) scale(3.3333333333333)"><rect width="6" height="6"/></g>
<g transform="translate(860,400) scale(3.3333333333333)"><rect width="6" height="6"/></g>
<g transform="translate(900,400) scale(3.3333333333333)"><rect width="6" height="6"/></g>
<g transform="translate(40,420) scale(3.3333333333333)"><rect width="6" height="6"/></g>
<g transform="translate(60,420) scale(3.3333333333333)"><rect width="6" height="6"/></g>
<g transform="translate(140,420) scale(3.3333333333333)"><rect width="6" height="6"/></g>
<g transform="translate(180,420) scale(3.3333333333333)"><rect width="6" height="6"/></g>
<g transform="translate(240,420) scale(3.3333333333333)"><rect width="6" height="6"/></g>
<g transform="translate(300,420) scale(3.3333333333333)"><rect width="6" height="6"/></g>
<g transform="translate(380,420) scale(3.3333333333333)"><rect width="6" height="6"/></g>
<g transform="translate(400,420) scale(3.3333333333333)"><rect width="6" height="6"/></g>
<g transform="translate(420,420) scale(3.3333333333333)"><rect width="6" height="6"/></g>
<g transform="translate(440,420) scale(3.3333333333333)"><rect width="6" height="6"/></g>
<g transform="translate(460,420) scale(3.3333333333333)"><rect width="6" height="6"/></g>
<g transform="translate(480,420) scale(3.3333333333333)"><rect width="6" height="6"/></g>
<g transform="translate(520,420) scale(3.3333333333333)"><rect width="6" height="6"/></g>
<g transform="translate(540,420) scale(3.3333333333333)"><rect width="6" height="6"/></g>
<g transform="translate(620,420) scale(3.3333333333333)"><rect width="6" height="6"/></g>
<g transform="translate(660,420) scale(3.3333333333333)"><rect width="6" height="6"/></g>
<g transform="translate(680,420) scale(3.3333333333333)"><rect width="6" height="6"/></g>
<g transform="translate(760,420) scale(3.3333333333333)"><rect width="6" height="6"/></g>
<g transform="translate(780,420) scale(3.3333333333333)"><rect width="6" height="6"/></g>
<g transform="translate(800,420) scale(3.3333333333333)"><rect width="6" height="6"/></g>
<g transform="translate(820,420) scale(3.3333333333333)"><rect width="6" height="6"/></g>
<g transform="translate(840,420) scale(3.3333333333333)"><rect width="6" height="6"/></g>
<g transform="translate(860,420) scale(3.3333333333333)"><rect width="6" height="6"/></g>
<g transform="translate(880,420) scale(3.3333333333333)"><rect width="6" height="6"/></g>
<g transform="translate(920,420) scale(3.3333333333333)"><rect width="6" height="6"/></g>
<g transform="translate(100,440) scale(3.3333333333333)"><rect width="6" height="6"/></g>
<g transform="translate(120,440) scale(3.3333333333333)"><rect width="6" height="6"/></g>
<g transform="translate(140,440) scale(3.3333333333333)"><rect width="6" height="6"/></g>
<g transform="translate(160,440) scale(3.3333333333333)"><rect width="6" height="6"/></g>
<g transform="translate(180,440) scale(3.3333333333333)"><rect width="6" height="6"/></g>
<g transform="translate(200,440) scale(3.3333333333333)"><rect width="6" height="6"/></g>
<g transform="translate(220,440) scale(3.3333333333333)"><rect width="6" height="6"/></g>
<g transform="translate(260,440) scale(3.3333333333333)"><rect width="6" height="6"/></g>
<g transform="translate(300,440) scale(3.3333333333333)"><rect width="6" height="6"/></g>
<g transform="translate(320,440) scale(3.3333333333333)"><rect width="6" height="6"/></g>
<g transform="translate(360,440) scale(3.3333333333333)"><rect width="6" height="6"/></g>
<g transform="translate(380,440) scale(3.3333333333333)"><rect width="6" height="6"/></g>
<g transform="translate(420,440) scale(3.3333333333333)"><rect width="6" height="6"/></g>
<g transform="translate(440,440) scale(3.3333333333333)"><rect width="6" height="6"/></g>
<g transform="translate(460,440) scale(3.3333333333333)"><rect width="6" height="6"/></g>
<g transform="translate(480,440) scale(3.3333333333333)"><rect width="6" height="6"/></g>
<g transform="translate(500,440) scale(3.3333333333333)"><rect width="6" height="6"/></g>
<g transform="translate(520,440) scale(3.3333333333333)"><rect width="6" height="6"/></g>
<g transform="translate(540,440) scale(3.3333333333333)"><rect width="6" height="6"/></g>
<g transform="translate(560,440) scale(3.3333333333333)"><rect width="6" height="6"/></g>
<g transform="translate(580,440) scale(3.3333333333333)"><rect width="6" height="6"/></g>
<g transform="translate(660,440) scale(3.3333333333333)"><rect width="6" height="6"/></g>
<g transform="translate(700,440) scale(3.3333333333333)"><rect width="6" height="6"/></g>
<g transform="translate(760,440) scale(3.3333333333333)"><rect width="6" height="6"/></g>
<g transform="translate(780,440) scale(3.3333333333333)"><rect width="6" height="6"/></g>
<g transform="translate(800,440) scale(3.3333333333333)"><rect width="6" height="6"/></g>
<g transform="translate(820,440) scale(3.3333333333333)"><rect width="6" height="6"/></g>
<g transform="translate(840,440) scale(3.3333333333333)"><rect width="6" height="6"/></g>
<g transform="translate(60,460) scale(3.3333333333333)"><rect width="6" height="6"/></g>
<g transform="translate(80,460) scale(3.3333333333333)"><rect width="6" height="6"/></g>
<g transform="translate(120,460) scale(3.3333333333333)"><rect width="6" height="6"/></g>
<g transform="translate(200,460) scale(3.3333333333333)"><rect width="6" height="6"/></g>
<g transform="translate(220,460) scale(3.3333333333333)"><rect width="6" height="6"/></g>
<g transform="translate(240,460) scale(3.3333333333333)"><rect width="6" height="6"/></g>
<g transform="translate(260,460) scale(3.3333333333333)"><rect width="6" height="6"/></g>
<g transform="translate(280,460) scale(3.3333333333333)"><rect width="6" height="6"/></g>
<g transform="translate(300,460) scale(3.3333333333333)"><rect width="6" height="6"/></g>
<g transform="translate(320,460) scale(3.3333333333333)"><rect width="6" height="6"/></g>
<g transform="translate(340,460) scale(3.3333333333333)"><rect width="6" height="6"/></g>
<g transform="translate(360,460) scale(3.3333333333333)"><rect width="6" height="6"/></g>
<g transform="translate(380,460) scale(3.3333333333333)"><rect width="6" height="6"/></g>
<g transform="translate(400,460) scale(3.3333333333333)"><rect width="6" height="6"/></g>
<g transform="translate(420,460) scale(3.3333333333333)"><rect width="6" height="6"/></g>
<g transform="translate(440,460) scale(3.3333333333333)"><rect width="6" height="6"/></g>
<g transform="translate(520,460) scale(3.3333333333333)"><rect width="6" height="6"/></g>
<g transform="translate(560,460) scale(3.3333333333333)"><rect width="6" height="6"/></g>
<g transform="translate(600,460) scale(3.3333333333333)"><rect width="6" height="6"/></g>
<g transform="translate(620,460) scale(3.3333333333333)"><rect width="6" height="6"/></g>
<g transform="translate(740,460) scale(3.3333333333333)"><rect width="6" height="6"/></g>
<g transform="translate(760,460) scale(3.3333333333333)"><rect width="6" height="6"/></g>
<g transform="translate(840,460) scale(3.3333333333333)"><rect width="6" height="6"/></g>
<g transform="translate(860,460) scale(3.3333333333333)"><rect width="6" height="6"/></g>
<g transform="translate(920,460) scale(3.3333333333333)"><rect width="6" height="6"/></g>
<g transform="translate(40,480) scale(3.3333333333333)"><rect width="6" height="6"/></g>
<g transform="translate(80,480) scale(3.3333333333333)"><rect width="6" height="6"/></g>
<g transform="translate(120,480) scale(3.3333333333333)"><rect width="6" height="6"/></g>
<g transform="translate(160,480) scale(3.3333333333333)"><rect width="6" height="6"/></g>
<g transform="translate(200,480) scale(3.3333333333333)"><rect width="6" height="6"/></g>
<g transform="translate(220,480) scale(3.3333333333333)"><rect width="6" height="6"/></g>
<g transform="translate(240,480) scale(3.3333333333333)"><rect width="6" height="6"/></g>
<g transform="translate(320,480) scale(3.3333333333333)"><rect width="6" height="6"/></g>
<g transform="translate(420,480) scale(3.3333333333333)"><rect width="6" height="6"/></g>
<g transform="translate(440,480) scale(3.3333333333333)"><rect width="6" height="6"/></g>
<g transform="translate(480,480) scale(3.3333333333333)"><rect width="6" height="6"/></g>
<g transform="translate(520,480) scale(3.3333333333333)"><rect width="6" height="6"/></g>
<g transform="translate(560,480) scale(3.3333333333333)"><rect width="6" height="6"/></g>
<g transform="translate(600,480) scale(3.3333333333333)"><rect width="6" height="6"/></g>
<g transform="translate(640,480) scale(3.3333333333333)"><rect width="6" height="6"/></g>
<g transform="translate(700,480) scale(3.3333333333333)"><rect width="6" height="6"/></g>
<g transform="translate(720,480) scale(3.3333333333333)"><rect width="6" height="6"/></g>
<g transform="translate(760,480) scale(3.3333333333333)"><rect width="6" height="6"/></g>
<g transform="translate(800,480) scale(3.3333333333333)"><rect width="6" height="6"/></g>
<g transform="translate(840,480) scale(3.3333333333333)"><rect width="6" height="6"/></g>
<g transform="translate(900,480) scale(3.3333333333333)"><rect width="6" height="6"/></g>
<g transform="translate(40,500) scale(3.3333333333333)"><rect width="6" height="6"/></g>
<g transform="translate(100,500) scale(3.3333333333333)"><rect width="6" height="6"/></g>
<g transform="translate(120,500) scale(3.3333333333333)"><rect width="6" height="6"/></g>
<g transform="translate(200,500) scale(3.3333333333333)"><rect width="6" height="6"/></g>
<g transform="translate(220,500) scale(3.3333333333333)"><rect width="6" height="6"/></g>
<g transform="translate(260,500) scale(3.3333333333333)"><rect width="6" height="6"/></g>
<g transform="translate(320,500) scale(3.3333333333333)"><rect width="6" height="6"/></g>
<g transform="translate(360,500) scale(3.3333333333333)"><rect width="6" height="6"/></g>
<g transform="translate(420,500) scale(3.3333333333333)"><rect width="6" height="6"/></g>
<g transform="translate(440,500) scale(3.3333333333333)"><rect width="6" height="6"/></g>
<g transform="translate(520,500) scale(3.3333333333333)"><rect width="6" height="6"/></g>
<g transform="translate(560,500) scale(3.3333333333333)"><rect width="6" height="6"/></g>
<g transform="translate(580,500) scale(3.3333333333333)"><rect width="6" height="6"/></g>
<g transform="translate(600,500) scale(3.3333333333333)"><rect width="6" height="6"/></g>
<g transform="translate(660,500) scale(3.3333333333333)"><rect width="6" height="6"/></g>
<g transform="translate(700,500) scale(3.3333333333333)"><rect width="6" height="6"/></g>
<g transform="translate(760,500) scale(3.3333333333333)"><rect width="6" height="6"/></g>
<g transform="translate(840,500) scale(3.3333333333333)"><rect width="6" height="6"/></g>
<g transform="translate(860,500) scale(3.3333333333333)"><rect width="6" height="6"/></g>
<g transform="translate(880,500) scale(3.3333333333333)"><rect width="6" height="6"/></g>
<g transform="translate(900,500) scale(3.3333333333333)"><rect width="6" height="6"/></g>
<g transform="translate(80,520) scale(3.3333333333333)"><rect width="6" height="6"/></g>
<g transform="translate(120,520) scale(3.3333333333333)"><rect width="6" height="6"/></g>
<g transform="translate(140,520) scale(3.3333333333333)"><rect width="6" height="6"/></g>
<g transform="translate(160,520) scale(3.3333333333333)"><rect width="6" height="6"/></g>
<g transform="translate(180,520) scale(3.3333333333333)"><rect width="6" height="6"/></g>
<g transform="translate(200,520) scale(3.3333333333333)"><rect width="6" height="6"/></g>
<g transform="translate(220,520) scale(3.3333333333333)"><rect width="6" height="6"/></g>
<g transform="translate(240,520) scale(3.3333333333333)"><rect width="6" height="6"/></g>
<g transform="translate(280,520) scale(3.3333333333333)"><rect width="6" height="6"/></g>
<g transform="translate(300,520) scale(3.3333333333333)"><rect width="6" height="6"/></g>
<g transform="translate(340,520) scale(3.3333333333333)"><rect width="6" height="6"/></g>
<g transform="translate(360,520) scale(3.3333333333333)"><rect width="6" height="6"/></g>
<g transform="translate(380,520) scale(3.3333333333333)"><rect width="6" height="6"/></g>
<g transform="translate(400,520) scale(3.3333333333333)"><rect width="6" height="6"/></g>
<g transform="translate(420,520) scale(3.3333333333333)"><rect width="6" height="6"/></g>
<g transform="translate(440,520) scale(3.3333333333333)"><rect width="6" height="6"/></g>
<g transform="translate(460,520) scale(3.3333333333333)"><rect width="6" height="6"/></g>
<g transform="translate(480,520) scale(3.3333333333333)"><rect width="6" height="6"/></g>
<g transform="translate(500,520) scale(3.3333333333333)"><rect width="6" height="6"/></g>
<g transform="translate(520,520) scale(3.3333333333333)"><rect width="6" height="6"/></g>
<g transform="translate(560,520) scale(3.3333333333333)"><rect width="6" height="6"/></g>
<g transform="translate(580,520) scale(3.3333333333333)"><rect width="6" height="6"/></g>
<g transform="translate(640,520) scale(3.3333333333333)"><rect width="6" height="6"/></g>
<g transform="translate(700,520) scale(3.3333333333333)"><rect width="6" height="6"/></g>
<g transform="translate(760,520) scale(3.3333333333333)"><rect width="6" height="6"/></g>
<g transform="translate(780,520) scale(3.3333333333333)"><rect width="6" height="6"/></g>
<g transform="translate(800,520) scale(3.3333333333333)"><rect width="6" height="6"/></g>
<g transform="translate(820,520) scale(3.3333333333333)"><rect width="6" height="6"/></g>
<g transform="translate(840,520) scale(3.3333333333333)"><rect width="6" height="6"/></g>
<g transform="translate(900,520) scale(3.3333333333333)"><rect width="6" height="6"/></g>
<g transform="translate(40,540) scale(3.3333333333333)"><rect width="6" height="6"/></g>
<g transform="translate(60,540) scale(3.3333333333333)"><rect width="6" height="6"/></g>
<g transform="translate(120,540) scale(3.3333333333333)"><rect width="6" height="6"/></g>
<g transform="translate(180,540) scale(3.3333333333333)"><rect width="6" height="6"/></g>
<g transform="translate(200,540) scale(3.3333333333333)"><rect width="6" height="6"/></g>
<g transform="translate(260,540) scale(3.3333333333333)"><rect width="6" height="6"/></g>
<g transform="translate(280,540) scale(3.3333333333333)"><rect width="6" height="6"/></g>
<g transform="translate(320,540) scale(3.3333333333333)"><rect width="6" height="6"/></g>
<g transform="translate(560,540) scale(3.3333333333333)"><rect width="6" height="6"/></g>
<g transform="translate(660,540) scale(3.3333333333333)"><rect width="6" height="6"/></g>
<g transform="translate(700,540) scale(3.3333333333333)"><rect width="6" height="6"/></g>
<g transform="translate(740,540) scale(3.3333333333333)"><rect width="6" height="6"/></g>
<g transform="translate(760,540) scale(3.3333333333333)"><rect width="6" height="6"/></g>
<g transform="translate(780,540) scale(3.3333333333333)"><rect width="6" height="6"/></g>
<g transform="translate(800,540) scale(3.3333333333333)"><rect width="6" height="6"/></g>
<g transform="translate(860,540) scale(3.3333333333333)"><rect width="6" height="6"/></g>
<g transform="translate(880,540) scale(3.3333333333333)"><rect width="6" height="6"/></g>
<g transform="translate(920,540) scale(3.3333333333333)"><rect width="6" height="6"/></g>
<g transform="translate(40,560) scale(3.3333333333333)"><rect width="6" height="6"/></g>
<g transform="translate(60,560) scale(3.3333333333333)"><rect width="6" height="6"/></g>
<g transform="translate(80,560) scale(3.3333333333333)"><rect width="6" height="6"/></g>
<g transform="translate(100,560) scale(3.3333333333333)"><rect width="6" height="6"/></g>
<g transform="translate(160,560) scale(3.3333333333333)"><rect width="6" height="6"/></g>
<g transform="translate(180,560) scale(3.3333333333333)"><rect width="6" height="6"/></g>
<g transform="translate(280,560) scale(3.3333333333333)"><rect width="6" height="6"/></g>
<g transform="translate(340,560) scale(3.3333333333333)"><rect width="6" height="6"/></g>
<g transform="translate(360,560) scale(3.3333333333333)"><rect width="6" height="6"/></g>
<g transform="translate(400,560) scale(3.3333333333333)"><rect width="6" height="6"/></g>
<g transform="translate(420,560) scale(3.3333333333333)"><rect width="6" height="6"/></g>
<g transform="translate(460,560) scale(3.3333333333333)"><rect width="6" height="6"/></g>
<g transform="translate(580,560) scale(3.3333333333333)"><rect width="6" height="6"/></g>
<g transform="translate(620,560) scale(3.3333333333333)"><rect width="6" height="6"/></g>
<g transform="translate(700,560) scale(3.3333333333333)"><rect width="6" height="6"/></g>
<g transform="translate(740,560) scale(3.3333333333333)"><rect width="6" height="6"/></g>
<g transform="translate(760,560) scale(3.3333333333333)"><rect width="6" height="6"/></g>
<g transform="translate(780,560) scale(3.3333333333333)"><rect width="6" height="6"/></g>
<g transform="translate(840,560) scale(3.3333333333333)"><rect width="6" height="6"/></g>
<g transform="translate(860,560) scale(3.3333333333333)"><rect width="6" height="6"/></g>
<g transform="translate(880,560) scale(3.3333333333333)"><rect width="6" height="6"/></g>
<g transform="translate(900,560) scale(3.3333333333333)"><rect width="6" height="6"/></g>
<g transform="translate(100,580) scale(3.3333333333333)"><rect width="6" height="6"/></g>
<g transform="translate(140,580) scale(3.3333333333333)"><rect width="6" height="6"/></g>
<g transform="translate(180,580) scale(3.3333333333333)"><rect width="6" height="6"/></g>
<g transform="translate(200,580) scale(3.3333333333333)"><rect width="6" height="6"/></g>
<g transform="translate(240,580) scale(3.3333333333333)"><rect width="6" height="6"/></g>
<g transform="translate(340,580) scale(3.3333333333333)"><rect width="6" height="6"/></g>
<g transform="translate(420,580) scale(3.3333333333333)"><rect width="6" height="6"/></g>
<g transform="translate(440,580) scale(3.3333333333333)"><rect width="6" height="6"/></g>
<g transform="translate(460,580) scale(3.3333333333333)"><rect width="6" height="6"/></g>
<g transform="translate(520,580) scale(3.3333333333333)"><rect width="6" height="6"/></g>
<g transform="translate(540,580) scale(3.3333333333333)"><rect width="6" height="6"/></g>
<g transform="translate(560,580) scale(3.3333333333333)"><rect width="6" height="6"/></g>
<g transform="translate(600,580) scale(3.3333333333333)"><rect width="6" height="6"/></g>
<g transform="translate(620,580) scale(3.3333333333333)"><rect width="6" height="6"/></g>
<g transform="translate(640,580) scale(3.3333333333333)"><rect width="6" height="6"/></g>
<g transform="translate(680,580) scale(3.3333333333333)"><rect width="6" height="6"/></g>
<g transform="translate(720,580) scale(3.3333333333333)"><rect width="6" height="6"/></g>
<g transform="translate(800,580) scale(3.3333333333333)"><rect width="6" height="6"/></g>
<g transform="translate(820,580) scale(3.3333333333333)"><rect width="6" height="6"/></g>
<g transform="translate(840,580) scale(3.3333333333333)"><rect width="6" height="6"/></g>
<g transform="translate(860,580) scale(3.3333333333333)"><rect width="6" height="6"/></g>
<g transform="translate(880,580) scale(3.3333333333333)"><rect width="6" height="6"/></g>
<g transform="translate(900,580) scale(3.3333333333333)"><rect width="6" height="6"/></g>
<g transform="translate(40,600) scale(3.3333333333333)"><rect width="6" height="6"/></g>
<g transform="translate(60,600) scale(3.3333333333333)"><rect width="6" height="6"/></g>
<g transform="translate(140,600) scale(3.3333333333333)"><rect width="6" height="6"/></g>
<g transform="translate(160,600) scale(3.3333333333333)"><rect width="6" height="6"/></g>
<g transform="translate(220,600) scale(3.3333333333333)"><rect width="6" height="6"/></g>
<g transform="translate(320,600) scale(3.3333333333333)"><rect width="6" height="6"/></g>
<g transform="translate(420,600) scale(3.3333333333333)"><rect width="6" height="6"/></g>
<g transform="translate(440,600) scale(3.3333333333333)"><rect width="6" height="6"/></g>
<g transform="translate(460,600) scale(3.3333333333333)"><rect width="6" height="6"/></g>
<g transform="translate(480,600) scale(3.3333333333333)"><rect width="6" height="6"/></g>
<g transform="translate(540,600) scale(3.3333333333333)"><rect width="6" height="6"/></g>
<g transform="translate(620,600) scale(3.3333333333333)"><rect width="6" height="6"/></g>
<g transform="translate(640,600) scale(3.3333333333333)"><rect width="6" height="6"/></g>
<g transform="translate(720,600) scale(3.3333333333333)"><rect width="6" height="6"/></g>
<g transform="translate(780,600) scale(3.3333333333333)"><rect width="6" height="6"/></g>
<g transform="translate(800,600) scale(3.3333333333333)"><rect width="6" height="6"/></g>
<g transform="translate(840,600) scale(3.3333333333333)"><rect width="6" height="6"/></g>
<g transform="translate(860,600) scale(3.3333333333333)"><rect width="6" height="6"/></g>
<g transform="translate(920,600) scale(3.3333333333333)"><rect width="6" height="6"/></g>
<g transform="translate(80,620) scale(3.3333333333333)"><rect width="6" height="6"/></g>
<g transform="translate(120,620) scale(3.3333333333333)"><rect width="6" height="6"/></g>
<g transform="translate(140,620) scale(3.3333333333333)"><rect width="6" height="6"/></g>
<g transform="translate(220,620) scale(3.3333333333333)"><rect width="6" height="6"/></g>
<g transform="translate(240,620) scale(3.3333333333333)"><rect width="6" height="6"/></g>
<g transform="translate(260,620) scale(3.3333333333333)"><rect width="6" height="6"/></g>
<g transform="translate(280,620) scale(3.3333333333333)"><rect width="6" height="6"/></g>
<g transform="translate(300,620) scale(3.3333333333333)"><rect width="6" height="6"/></g>
<g transform="translate(360,620) scale(3.3333333333333)"><rect width="6" height="6"/></g>
<g transform="translate(420,620) scale(3.3333333333333)"><rect width="6" height="6"/></g>
<g transform="translate(440,620) scale(3.3333333333333)"><rect width="6" height="6"/></g>
<g transform="translate(460,620) scale(3.3333333333333)"><rect width="6" height="6"/></g>
<g transform="translate(480,620) scale(3.3333333333333)"><rect width="6" height="6"/></g>
<g transform="translate(500,620) scale(3.3333333333333)"><rect width="6" height="6"/></g>
<g transform="translate(520,620) scale(3.3333333333333)"><rect width="6" height="6"/></g>
<g transform="translate(620,620) scale(3.3333333333333)"><rect width="6" height="6"/></g>
<g transform="translate(640,620) scale(3.3333333333333)"><rect width="6" height="6"/></g>
<g transform="translate(660,620) scale(3.3333333333333)"><rect width="6" height="6"/></g>
<g transform="translate(680,620) scale(3.3333333333333)"><rect width="6" height="6"/></g>
<g transform="translate(760,620) scale(3.3333333333333)"><rect width="6" height="6"/></g>
<g transform="translate(780,620) scale(3.3333333333333)"><rect width="6" height="6"/></g>
<g transform="translate(880,620) scale(3.3333333333333)"><rect width="6" height="6"/></g>
<g transform="translate(920,620) scale(3.3333333333333)"><rect width="6" height="6"/></g>
<g transform="translate(40,640) scale(3.3333333333333)"><rect width="6" height="6"/></g>
<g transform="translate(60,640) scale(3.3333333333333)"><rect width="6" height="6"/></g>
<g transform="translate(120,640) scale(3.3333333333333)"><rect width="6" height="6"/></g>
<g transform="translate(160,640) scale(3.3333333333333)"><rect width="6" height="6"/></g>
<g transform="translate(180,640) scale(3.3333333333333)"><rect width="6" height="6"/></g>
<g transform="translate(200,640) scale(3.3333333333333)"><rect width="6" height="6"/></g>
<g transform="translate(280,640) scale(3.3333333333333)"><rect width="6" height="6"/></g>
<g transform="translate(380,640) scale(3.3333333333333)"><rect width="6" height="6"/></g>
<g transform="translate(400,640) scale(3.3333333333333)"><rect width="6" height="6"/></g>
<g transform="translate(420,640) scale(3.3333333333333)"><rect width="6" height="6"/></g>
<g transform="translate(520,640) scale(3.3333333333333)"><rect width="6" height="6"/></g>
<g transform="translate(580,640) scale(3.3333333333333)"><rect width="6" height="6"/></g>
<g transform="translate(600,640) scale(3.3333333333333)"><rect width="6" height="6"/></g>
<g transform="translate(640,640) scale(3.3333333333333)"><rect width="6" height="6"/></g>
<g transform="translate(700,640) scale(3.3333333333333)"><rect width="6" height="6"/></g>
<g transform="translate(720,640) scale(3.3333333333333)"><rect width="6" height="6"/></g>
<g transform="translate(760,640) scale(3.3333333333333)"><rect width="6" height="6"/></g>
<g transform="translate(780,640) scale(3.3333333333333)"><rect width="6" height="6"/></g>
<g transform="translate(820,640) scale(3.3333333333333)"><rect width="6" height="6"/></g>
<g transform="translate(860,640) scale(3.3333333333333)"><rect width="6" height="6"/></g>
<g transform="translate(880,640) scale(3.3333333333333)"><rect width="6" height="6"/></g>
<g transform="translate(900,640) scale(3.3333333333333)"><rect width="6" height="6"/></g>
<g transform="translate(60,660) scale(3.3333333333333)"><rect width="6" height="6"/></g>
<g transform="translate(80,660) scale(3.3333333333333)"><rect width="6" height="6"/></g>
<g transform="translate(100,660) scale(3.3333333333333)"><rect width="6" height="6"/></g>
<g transform="translate(180,660) scale(3.3333333333333)"><rect width="6" height="6"/></g>
<g transform="translate(200,660) scale(3.3333333333333)"><rect width="6" height="6"/></g>
<g transform="translate(240,660) scale(3.3333333333333)"><rect width="6" height="6"/></g>
<g transform="translate(340,660) scale(3.3333333333333)"><rect width="6" height="6"/></g>
<g transform="translate(380,660) scale(3.3333333333333)"><rect width="6" height="6"/></g>
<g transform="translate(400,660) scale(3.3333333333333)"><rect width="6" height="6"/></g>
<g transform="translate(420,660) scale(3.3333333333333)"><rect width="6" height="6"/></g>
<g transform="translate(520,660) scale(3.3333333333333)"><rect width="6" height="6"/></g>
<g transform="translate(580,660) scale(3.3333333333333)"><rect width="6" height="6"/></g>
<g transform="translate(620,660) scale(3.3333333333333)"><rect width="6" height="6"/></g>
<g transform="translate(640,660) scale(3.3333333333333)"><rect width="6" height="6"/></g>
<g transform="translate(680,660) scale(3.3333333333333)"><rect width="6" height="6"/></g>
<g transform="translate(700,660) scale(3.3333333333333)"><rect width="6" height="6"/></g>
<g transform="translate(740,660) scale(3.3333333333333)"><rect width="6" height="6"/></g>
<g transform="translate(800,660) scale(3.3333333333333)"><rect width="6" height="6"/></g>
<g transform="translate(880,660) scale(3.3333333333333)"><rect width="6" height="6"/></g>
<g transform="translate(900,660) scale(3.3333333333333)"><rect width="6" height="6"/></g>
<g transform="translate(920,660) scale(3.3333333333333)"><rect width="6" height="6"/></g>
<g transform="translate(40,680) scale(3.3333333333333)"><rect width="6" height="6"/></g>
<g transform="translate(80,680) scale(3.3333333333333)"><rect width="6" height="6"/></g>
<g transform="translate(100,680) scale(3.3333333333333)"><rect width="6" height="6"/></g>
<g transform="translate(120,680) scale(3.3333333333333)"><rect width="6" height="6"/></g>
<g transform="translate(140,680) scale(3.3333333333333)"><rect width="6" height="6"/></g>
<g transform="translate(160,680) scale(3.3333333333333)"><rect width="6" height="6"/></g>
<g transform="translate(200,680) scale(3.3333333333333)"><rect width="6" height="6"/></g>
<g transform="translate(260,680) scale(3.3333333333333)"><rect width="6" height="6"/></g>
<g transform="translate(300,680) scale(3.3333333333333)"><rect width="6" height="6"/></g>
<g transform="translate(360,680) scale(3.3333333333333)"><rect width="6" height="6"/></g>
<g transform="translate(380,680) scale(3.3333333333333)"><rect width="6" height="6"/></g>
<g transform="translate(400,680) scale(3.3333333333333)"><rect width="6" height="6"/></g>
<g transform="translate(420,680) scale(3.3333333333333)"><rect width="6" height="6"/></g>
<g transform="translate(440,680) scale(3.3333333333333)"><rect width="6" height="6"/></g>
<g transform="translate(500,680) scale(3.3333333333333)"><rect width="6" height="6"/></g>
<g transform="translate(520,680) scale(3.3333333333333)"><rect width="6" height="6"/></g>
<g transform="translate(580,680) scale(3.3333333333333)"><rect width="6" height="6"/></g>
<g transform="translate(600,680) scale(3.3333333333333)"><rect width="6" height="6"/></g>
<g transform="translate(620,680) scale(3.3333333333333)"><rect width="6" height="6"/></g>
<g transform="translate(640,680) scale(3.3333333333333)"><rect width="6" height="6"/></g>
<g transform="translate(660,680) scale(3.3333333333333)"><rect width="6" height="6"/></g>
<g transform="translate(780,680) scale(3.3333333333333)"><rect width="6" height="6"/></g>
<g transform="translate(840,680) scale(3.3333333333333)"><rect width="6" height="6"/></g>
<g transform="translate(100,700) scale(3.3333333333333)"><rect width="6" height="6"/></g>
<g transform="translate(120,700) scale(3.3333333333333)"><rect width="6" height="6"/></g>
<g transform="translate(140,700) scale(3.3333333333333)"><rect width="6" height="6"/></g>
<g transform="translate(220,700) scale(3.3333333333333)"><rect width="6" height="6"/></g>
<g transform="translate(240,700) scale(3.3333333333333)"><rect width="6" height="6"/></g>
<g transform="translate(300,700) scale(3.3333333333333)"><rect width="6" height="6"/></g>
<g transform="translate(340,700) scale(3.3333333333333)"><rect width="6" height="6"/></g>
<g transform="translate(360,700) scale(3.3333333333333)"><rect width="6" height="6"/></g>
<g transform="translate(400,700) scale(3.3333333333333)"><rect width="6" height="6"/></g>
<g transform="translate(440,700) scale(3.3333333333333)"><rect width="6" height="6"/></g>
<g transform="translate(460,700) scale(3.3333333333333)"><rect width="6" height="6"/></g>
<g transform="translate(480,700) scale(3.3333333333333)"><rect width="6" height="6"/></g>
<g transform="translate(500,700) scale(3.3333333333333)"><rect width="6" height="6"/></g>
<g transform="translate(600,700) scale(3.3333333333333)"><rect width="6" height="6"/></g>
<g transform="translate(620,700) scale(3.3333333333333)"><rect width="6" height="6"/></g>
<g transform="translate(660,700) scale(3.3333333333333)"><rect width="6" height="6"/></g>
<g transform="translate(780,700) scale(3.3333333333333)"><rect width="6" height="6"/></g>
<g transform="translate(820,700) scale(3.3333333333333)"><rect width="6" height="6"/></g>
<g transform="translate(860,700) scale(3.3333333333333)"><rect width="6" height="6"/></g>
<g transform="translate(880,700) scale(3.3333333333333)"><rect width="6" height="6"/></g>
<g transform="translate(920,700) scale(3.3333333333333)"><rect width="6" height="6"/></g>
<g transform="translate(120,720) scale(3.3333333333333)"><rect width="6" height="6"/></g>
<g transform="translate(160,720) scale(3.3333333333333)"><rect width="6" height="6"/></g>
<g transform="translate(220,720) scale(3.3333333333333)"><rect width="6" height="6"/></g>
<g transform="translate(260,720) scale(3.3333333333333)"><rect width="6" height="6"/></g>
<g transform="translate(320,720) scale(3.3333333333333)"><rect width="6" height="6"/></g>
<g transform="translate(520,720) scale(3.3333333333333)"><rect width="6" height="6"/></g>
<g transform="translate(540,720) scale(3.3333333333333)"><rect width="6" height="6"/></g>
<g transform="translate(560,720) scale(3.3333333333333)"><rect width="6" height="6"/></g>
<g transform="translate(600,720) scale(3.3333333333333)"><rect width="6" height="6"/></g>
<g transform="translate(640,720) scale(3.3333333333333)"><rect width="6" height="6"/></g>
<g transform="translate(680,720) scale(3.3333333333333)"><rect width="6" height="6"/></g>
<g transform="translate(720,720) scale(3.3333333333333)"><rect width="6" height="6"/></g>
<g transform="translate(760,720) scale(3.3333333333333)"><rect width="6" height="6"/></g>
<g transform="translate(820,720) scale(3.3333333333333)"><rect width="6" height="6"/></g>
<g transform="translate(880,720) scale(3.3333333333333)"><rect width="6" height="6"/></g>
<g transform="translate(900,720) scale(3.3333333333333)"><rect width="6" height="6"/></g>
<g transform="translate(60,740) scale(3.3333333333333)"><rect width="6" height="6"/></g>
<g transform="translate(80,740) scale(3.3333333333333)"><rect width="6" height="6"/></g>
<g transform="translate(100,740) scale(3.3333333333333)"><rect width="6" height="6"/></g>
<g transform="translate(120,740) scale(3.3333333333333)"><rect width="6" height="6"/></g>
<g transform="translate(180,740) scale(3.3333333333333)"><rect width="6" height="6"/></g>
<g transform="translate(220,740) scale(3.3333333333333)"><rect width="6" height="6"/></g>
<g transform="translate(240,740) scale(3.3333333333333)"><rect width="6" height="6"/></g>
<g transform="translate(260,740) scale(3.3333333333333)"><rect width="6" height="6"/></g>
<g transform="translate(360,740) scale(3.3333333333333)"><rect width="6" height="6"/></g>
<g transform="translate(380,740) scale(3.3333333333333)"><rect width="6" height="6"/></g>
<g transform="translate(400,740) scale(3.3333333333333)"><rect width="6" height="6"/></g>
<g transform="translate(440,740) scale(3.3333333333333)"><rect width="6" height="6"/></g>
<g transform="translate(480,740) scale(3.3333333333333)"><rect width="6" height="6"/></g>
<g transform="translate(500,740) scale(3.3333333333333)"><rect width="6" height="6"/></g>
<g transform="translate(520,740) scale(3.3333333333333)"><rect width="6" height="6"/></g>
<g transform="translate(540,740) scale(3.3333333333333)"><rect width="6" height="6"/></g>
<g transform="translate(580,740) scale(3.3333333333333)"><rect width="6" height="6"/></g>
<g transform="translate(600,740) scale(3.3333333333333)"><rect width="6" height="6"/></g>
<g transform="translate(620,740) scale(3.3333333333333)"><rect width="6" height="6"/></g>
<g transform="translate(680,740) scale(3.3333333333333)"><rect width="6" height="6"/></g>
<g transform="translate(740,740) scale(3.3333333333333)"><rect width="6" height="6"/></g>
<g transform="translate(780,740) scale(3.3333333333333)"><rect width="6" height="6"/></g>
<g transform="translate(820,740) scale(3.3333333333333)"><rect width="6" height="6"/></g>
<g transform="translate(860,740) scale(3.3333333333333)"><rect width="6" height="6"/></g>
<g transform="translate(880,740) scale(3.3333333333333)"><rect width="6" height="6"/></g>
<g transform="translate(900,740) scale(3.3333333333333)"><rect width="6" height="6"/></g>
<g transform="translate(920,740) scale(3.3333333333333)"><rect width="6" height="6"/></g>
<g transform="translate(40,760) scale(3.3333333333333)"><rect width="6" height="6"/></g>
<g transform="translate(100,760) scale(3.3333333333333)"><rect width="6" height="6"/></g>
<g transform="translate(120,760) scale(3.3333333333333)"><rect width="6" height="6"/></g>
<g transform="translate(160,760) scale(3.3333333333333)"><rect width="6" height="6"/></g>
<g transform="translate(180,760) scale(3.3333333333333)"><rect width="6" height="6"/></g>
<g transform="translate(280,760) scale(3.3333333333333)"><rect width="6" height="6"/></g>
<g transform="translate(340,760) scale(3.3333333333333)"><rect width="6" height="6"/></g>
<g transform="translate(380,760) scale(3.3333333333333)"><rect width="6" height="6"/></g>
<g transform="translate(400,760) scale(3.3333333333333)"><rect width="6" height="6"/></g>
<g transform="translate(420,760) scale(3.3333333333333)"><rect width="6" height="6"/></g>
<g transform="translate(440,760) scale(3.3333333333333)"><rect width="6" height="6"/></g>
<g transform="translate(460,760) scale(3.3333333333333)"><rect width="6" height="6"/></g>
<g transform="translate(480,760) scale(3.3333333333333)"><rect width="6" height="6"/></g>
<g transform="translate(500,760) scale(3.3333333333333)"><rect width="6" height="6"/></g>
<g transform="translate(520,760) scale(3.3333333333333)"><rect width="6" height="6"/></g>
<g transform="translate(540,760) scale(3.3333333333333)"><rect width="6" height="6"/></g>
<g transform="translate(560,760) scale(3.3333333333333)"><rect width="6" height="6"/></g>
<g transform="translate(580,760) scale(3.3333333333333)"><rect width="6" height="6"/></g>
<g transform="translate(600,760) scale(3.3333333333333)"><rect width="6" height="6"/></g>
<g transform="translate(620,760) scale(3.3333333333333)"><rect width="6" height="6"/></g>
<g transform="translate(700,760) scale(3.3333333333333)"><rect width="6" height="6"/></g>
<g transform="translate(720,760) scale(3.3333333333333)"><rect width="6" height="6"/></g>
<g transform="translate(760,760) scale(3.3333333333333)"><rect width="6" height="6"/></g>
<g transform="translate(780,760) scale(3.3333333333333)"><rect width="6" height="6"/></g>
<g transform="translate(800,760) scale(3.3333333333333)"><rect width="6" height="6"/></g>
<g transform="translate(820,760) scale(3.3333333333333)"><rect width="6" height="6"/></g>
<g transform="translate(840,760) scale(3.3333333333333)"><rect width="6" height="6"/></g>
<g transform="translate(860,760) scale(3.3333333333333)"><rect width="6" height="6"/></g>
<g transform="translate(900,760) scale(3.3333333333333)"><rect width="6" height="6"/></g>
<g transform="translate(920,760) scale(3.3333333333333)"><rect width="6" height="6"/></g>
<g transform="translate(200,780) scale(3.3333333333333)"><rect width="6" height="6"/></g>
<g transform="translate(220,780) scale(3.3333333333333)"><rect width="6" height="6"/></g>
<g transform="translate(260,780) scale(3.3333333333333)"><rect width="6" height="6"/></g>
<g transform="translate(320,780) scale(3.3333333333333)"><rect width="6" height="6"/></g>
<g transform="translate(360,780) scale(3.3333333333333)"><rect width="6" height="6"/></g>
<g transform="translate(400,780) scale(3.3333333333333)"><rect width="6" height="6"/></g>
<g transform="translate(440,780) scale(3.3333333333333)"><rect width="6" height="6"/></g>
<g transform="translate(520,780) scale(3.3333333333333)"><rect width="6" height="6"/></g>
<g transform="translate(540,780) scale(3.3333333333333)"><rect width="6" height="6"/></g>
<g transform="translate(560,780) scale(3.3333333333333)"><rect width="6" height="6"/></g>
<g transform="translate(580,780) scale(3.3333333333333)"><rect width="6" height="6"/></g>
<g transform="translate(600,780) scale(3.3333333333333)"><rect width="6" height="6"/></g>
<g transform="translate(640,780) scale(3.3333333333333)"><rect width="6" height="6"/></g>
<g transform="translate(740,780) scale(3.3333333333333)"><rect width="6" height="6"/></g>
<g transform="translate(760,780) scale(3.3333333333333)"><rect width="6" height="6"/></g>
<g transform="translate(840,780) scale(3.3333333333333)"><rect width="6" height="6"/></g>
<g transform="translate(880,780) scale(3.3333333333333)"><rect width="6" height="6"/></g>
<g transform="translate(900,780) scale(3.3333333333333)"><rect width="6" height="6"/></g>
<g transform="translate(920,780) scale(3.3333333333333)"><rect width="6" height="6"/></g>
<g transform="translate(280,800) scale(3.3333333333333)"><rect width="6" height="6"/></g>
<g transform="translate(340,800) scale(3.3333333333333)"><rect width="6" height="6"/></g>
<g transform="translate(360,800) scale(3.3333333333333)"><rect width="6" height="6"/></g>
<g transform="translate(420,800) scale(3.3333333333333)"><rect width="6" height="6"/></g>
<g transform="translate(440,800) scale(3.3333333333333)"><rect width="6" height="6"/></g>
<g transform="translate(480,800) scale(3.3333333333333)"><rect width="6" height="6"/></g>
<g transform="translate(520,800) scale(3.3333333333333)"><rect width="6" height="6"/></g>
<g transform="translate(560,800) scale(3.3333333333333)"><rect width="6" height="6"/></g>
<g transform="translate(620,800) scale(3.3333333333333)"><rect width="6" height="6"/></g>
<g transform="translate(660,800) scale(3.3333333333333)"><rect width="6" height="6"/></g>
<g transform="translate(700,800) scale(3.3333333333333)"><rect width="6" height="6"/></g>
<g transform="translate(720,800) scale(3.3333333333333)"><rect width="6" height="6"/></g>
<g transform="translate(760,800) scale(3.3333333333333)"><rect width="6" height="6"/></g>
<g transform="translate(800,800) scale(3.3333333333333)"><rect width="6" height="6"/></g>
<g transform="translate(840,800) scale(3.3333333333333)"><rect width="6" height="6"/></g>
<g transform="translate(860,800) scale(3.3333333333333)"><rect width="6" height="6"/></g>
<g transform="translate(900,800) scale(3.3333333333333)"><rect width="6" height="6"/></g>
<g transform="translate(220,820) scale(3.3333333333333)"><rect width="6" height="6"/></g>
<g transform="translate(280,820) scale(3.3333333333333)"><rect width="6" height="6"/></g>
<g transform="translate(300,820) scale(3.3333333333333)"><rect width="6" height="6"/></g>
<g transform="translate(320,820) scale(3.3333333333333)"><rect width="6" height="6"/></g>
<g transform="translate(380,820) scale(3.3333333333333)"><rect width="6" height="6"/></g>
<g transform="translate(400,820) scale(3.3333333333333)"><rect width="6" height="6"/></g>
<g transform="translate(440,820) scale(3.3333333333333)"><rect width="6" height="6"/></g>
<g transform="translate(520,820) scale(3.3333333333333)"><rect width="6" height="6"/></g>
<g transform="translate(540,820) scale(3.3333333333333)"><rect width="6" height="6"/></g>
<g transform="translate(600,820) scale(3.3333333333333)"><rect width="6" height="6"/></g>
<g transform="translate(660,820) scale(3.3333333333333)"><rect width="6" height="6"/></g>
<g transform="translate(680,820) scale(3.3333333333333)"><rect width="6" height="6"/></g>
<g transform="translate(740,820) scale(3.3333333333333)"><rect width="6" height="6"/></g>
<g transform="translate(760,820) scale(3.3333333333333)"><rect width="6" height="6"/></g>
<g transform="translate(840,820) scale(3.3333333333333)"><rect width="6" height="6"/></g>
<g transform="translate(860,820) scale(3.3333333333333)"><rect width="6" height="6"/></g>
<g transform="translate(880,820) scale(3.3333333333333)"><rect width="6" height="6"/></g>
<g transform="translate(920,820) scale(3.3333333333333)"><rect width="6" height="6"/></g>
<g transform="translate(200,840) scale(3.3333333333333)"><rect width="6" height="6"/></g>
<g transform="translate(240,840) scale(3.3333333333333)"><rect width="6" height="6"/></g>
<g transform="translate(260,840) scale(3.3333333333333)"><rect width="6" height="6"/></g>
<g transform="translate(280,840) scale(3.3333333333333)"><rect width="6" height="6"/></g>
<g transform="translate(340,840) scale(3.3333333333333)"><rect width="6" height="6"/></g>
<g transform="translate(360,840) scale(3.3333333333333)"><rect width="6" height="6"/></g>
<g transform="translate(380,840) scale(3.3333333333333)"><rect width="6" height="6"/></g>
<g transform="translate(440,840) scale(3.3333333333333)"><rect width="6" height="6"/></g>
<g transform="translate(460,840) scale(3.3333333333333)"><rect width="6" height="6"/></g>
<g transform="translate(480,840) scale(3.3333333333333)"><rect width="6" height="6"/></g>
<g transform="translate(500,840) scale(3.3333333333333)"><rect width="6" height="6"/></g>
<g transform="translate(520,840) scale(3.3333333333333)"><rect width="6" height="6"/></g>
<g transform="translate(540,840) scale(3.3333333333333)"><rect width="6" height="6"/></g>
<g transform="translate(560,840) scale(3.3333333333333)"><rect width="6" height="6"/></g>
<g transform="translate(600,840) scale(3.3333333333333)"><rect width="6" height="6"/></g>
<g transform="translate(640,840) scale(3.3333333333333)"><rect width="6" height="6"/></g>
<g transform="translate(660,840) scale(3.3333333333333)"><rect width="6" height="6"/></g>
<g transform="translate(740,840) scale(3.3333333333333)"><rect width="6" height="6"/></g>
<g transform="translate(760,840) scale(3.3333333333333)"><rect width="6" height="6"/></g>
<g transform="translate(780,840) scale(3.3333333333333)"><rect width="6" height="6"/></g>
<g transform="translate(800,840) scale(3.3333333333333)"><rect width="6" height="6"/></g>
<g transform="translate(820,840) scale(3.3333333333333)"><rect width="6" height="6"/></g>
<g transform="translate(840,840) scale(3.3333333333333)"><rect width="6" height="6"/></g>
<g transform="translate(900,840) scale(3.3333333333333)"><rect width="6" height="6"/></g>
<g transform="translate(920,840) scale(3.3333333333333)"><rect width="6" height="6"/></g>
<g transform="translate(200,860) scale(3.3333333333333)"><rect width="6" height="6"/></g>
<g transform="translate(320,860) scale(3.3333333333333)"><rect width="6" height="6"/></g>
<g transform="translate(360,860) scale(3.3333333333333)"><rect width="6" height="6"/></g>
<g transform="translate(420,860) scale(3.3333333333333)"><rect width="6" height="6"/></g>
<g transform="translate(480,860) scale(3.3333333333333)"><rect width="6" height="6"/></g>
<g transform="translate(500,860) scale(3.3333333333333)"><rect width="6" height="6"/></g>
<g transform="translate(520,860) scale(3.3333333333333)"><rect width="6" height="6"/></g>
<g transform="translate(580,860) scale(3.3333333333333)"><rect width="6" height="6"/></g>
<g transform="translate(660,860) scale(3.3333333333333)"><rect width="6" height="6"/></g>
<g transform="translate(740,860) scale(3.3333333333333)"><rect width="6" height="6"/></g>
<g transform="translate(820,860) scale(3.3333333333333)"><rect width="6" height="6"/></g>
<g transform="translate(840,860) scale(3.3333333333333)"><rect width="6" height="6"/></g>
<g transform="translate(880,860) scale(3.3333333333333)"><rect width="6" height="6"/></g>
<g transform="translate(900,860) scale(3.3333333333333)"><rect width="6" height="6"/></g>
<g transform="translate(920,860) scale(3.3333333333333)"><rect width="6" height="6"/></g>
<g transform="translate(200,880) scale(3.3333333333333)"><rect width="6" height="6"/></g>
<g transform="translate(240,880) scale(3.3333333333333)"><rect width="6" height="6"/></g>
<g transform="translate(280,880) scale(3.3333333333333)"><rect width="6" height="6"/></g>
<g transform="translate(320,880) scale(3.3333333333333)"><rect width="6" height="6"/></g>
<g transform="translate(340,880) scale(3.3333333333333)"><rect width="6" height="6"/></g>
<g transform="translate(360,880) scale(3.3333333333333)"><rect width="6" height="6"/></g>
<g transform="translate(380,880) scale(3.3333333333333)"><rect width="6" height="6"/></g>
<g transform="translate(400,880) scale(3.3333333333333)"><rect width="6" height="6"/></g>
<g transform="translate(420,880) scale(3.3333333333333)"><rect width="6" height="6"/></g>
<g transform="translate(480,880) scale(3.3333333333333)"><rect width="6" height="6"/></g>
<g transform="translate(520,880) scale(3.3333333333333)"><rect width="6" height="6"/></g>
<g transform="translate(540,880) scale(3.3333333333333)"><rect width="6" height="6"/></g>
<g transform="translate(580,880) scale(3.3333333333333)"><rect width="6" height="6"/></g>
<g transform="translate(620,880) scale(3.3333333333333)"><rect width="6" height="6"/></g>
<g transform="translate(720,880) scale(3.3333333333333)"><rect width="6" height="6"/></g>
<g transform="translate(740,880) scale(3.3333333333333)"><rect width="6" height="6"/></g>
<g transform="translate(760,880) scale(3.3333333333333)"><rect width="6" height="6"/></g>
<g transform="translate(780,880) scale(3.3333333333333)"><rect width="6" height="6"/></g>
<g transform="translate(800,880) scale(3.3333333333333)"><rect width="6" height="6"/></g>
<g transform="translate(820,880) scale(3.3333333333333)"><rect width="6" height="6"/></g>
<g transform="translate(240,900) scale(3.3333333333333)"><rect width="6" height="6"/></g>
<g transform="translate(300,900) scale(3.3333333333333)"><rect width="6" height="6"/></g>
<g transform="translate(320,900) scale(3.3333333333333)"><rect width="6" height="6"/></g>
<g transform="translate(380,900) scale(3.3333333333333)"><rect width="6" height="6"/></g>
<g transform="translate(460,900) scale(3.3333333333333)"><rect width="6" height="6"/></g>
<g transform="translate(480,900) scale(3.3333333333333)"><rect width="6" height="6"/></g>
<g transform="translate(520,900) scale(3.3333333333333)"><rect width="6" height="6"/></g>
<g transform="translate(540,900) scale(3.3333333333333)"><rect width="6" height="6"/></g>
<g transform="translate(560,900) scale(3.3333333333333)"><rect width="6" height="6"/></g>
<g transform="translate(580,900) scale(3.3333333333333)"><rect width="6" height="6"/></g>
<g transform="translate(620,900) scale(3.3333333333333)"><rect width="6" height="6"/></g>
<g transform="translate(720,900) scale(3.3333333333333)"><rect width="6" height="6"/></g>
<g transform="translate(760,900) scale(3.3333333333333)"><rect width="6" height="6"/></g>
<g transform="translate(840,900) scale(3.3333333333333)"><rect width="6" height="6"/></g>
<g transform="translate(860,900) scale(3.3333333333333)"><rect width="6" height="6"/></g>
<g transform="translate(880,900) scale(3.3333333333333)"><rect width="6" height="6"/></g>
<g transform="translate(220,920) scale(3.3333333333333)"><rect width="6" height="6"/></g>
<g transform="translate(260,920) scale(3.3333333333333)"><rect width="6" height="6"/></g>
<g transform="translate(280,920) scale(3.3333333333333)"><rect width="6" height="6"/></g>
<g transform="translate(300,920) scale(3.3333333333333)"><rect width="6" height="6"/></g>
<g transform="translate(340,920) scale(3.3333333333333)"><rect width="6" height="6"/></g>
<g transform="translate(360,920) scale(3.3333333333333)"><rect width="6" height="6"/></g>
<g transform="translate(380,920) scale(3.3333333333333)"><rect width="6" height="6"/></g>
<g transform="translate(420,920) scale(3.3333333333333)"><rect width="6" height="6"/></g>
<g transform="translate(540,920) scale(3.3333333333333)"><rect width="6" height="6"/></g>
<g transform="translate(620,920) scale(3.3333333333333)"><rect width="6" height="6"/></g>
<g transform="translate(660,920) scale(3.3333333333333)"><rect width="6" height="6"/></g>
<g transform="translate(680,920) scale(3.3333333333333)"><rect width="6" height="6"/></g>
<g transform="translate(700,920) scale(3.3333333333333)"><rect width="6" height="6"/></g>
<g transform="translate(720,920) scale(3.3333333333333)"><rect width="6" height="6"/></g>
<g transform="translate(740,920) scale(3.3333333333333)"><rect width="6" height="6"/></g>
<g transform="translate(760,920) scale(3.3333333333333)"><rect width="6" height="6"/></g>
<g transform="translate(780,920) scale(3.3333333333333)"><rect width="6" height="6"/></g>
<g transform="translate(800,920) scale(3.3333333333333)"><rect width="6" height="6"/></g>
<g transform="translate(820,920) scale(3.3333333333333)"><rect width="6" height="6"/></g>
<g transform="translate(860,920) scale(3.3333333333333)"><rect width="6" height="6"/></g>
<g transform="translate(900,920) scale(3.3333333333333)"><rect width="6" height="6"/></g>
</g></mask></defs>
<rect x="0" y="0" width="980" height="980" mask="url(#qrmask)" fill="#000000" />
<g transform="translate(40,40)"  fill="#000000"><g transform="scale(10)"><path d="M0.2,0.1L0.1,0.6l0.1,0.5L0.2,1.6L0.1,2.1l0.1,0.5L0,3.1l0,0.5L0,4l0.1,0.5l0,0.5l0.1,0.5L0.1,6l0,0.5l0,0.5 l0.2,0.5L0.1,8l0.1,0.5L0,8.9l0.2,0.5L0,9.9l0.2,0.5l-0.1,0.5l0,0.5L0,11.9l0.2,0.5l-0.1,0.5l0.1,0.5l0,0.4L0.6,14l0.5,0l0.5-0.1 l0.5,0.1l0.5,0.1L3.1,14l0.5-0.1l0.5-0.1l0.5,0L5,13.9l0.5-0.1l0.5,0l0.5,0L7,13.9L7.5,14L8,14l0.5-0.2L9,13.9L9.4,14l0.5-0.2 l0.5,0.2l0.5-0.1l0.5,0l0.5-0.1l0.5,0l0.5,0l0.5,0l0.5,0.1l-0.1-0.5l0.2-0.5l-0.1-0.5l-0.1-0.5l0.2-0.5l-0.2-0.5l0.1-0.5L14,9.9 l-0.2-0.5L13.9,9L14,8.5L14,8l-0.2-0.5l0-0.5l0.1-0.5L13.8,6l0-0.5L14,5l0-0.5l-0.1-0.5l0.1-0.5l-0.2-0.5l0.1-0.5l0-0.5l0-0.5 l-0.1-0.5L14,0.6l-0.2-0.4l-0.4,0l-0.5,0L12.4,0l-0.5,0.2l-0.5,0l-0.5-0.1l-0.5,0L10,0l-0.5,0L9,0L8.5,0.2L8,0.2L7.5,0.1L7,0.1 L6.5,0.2L6,0L5.5,0.2L5.1,0.2L4.6,0.1L4.1,0.1L3.6,0L3.1,0.1L2.6,0L2.1,0.1l-0.5,0l-0.5,0L0.6,0.2L0.2,0.1z M11.9,11.9l-0.5-0.1 L10.9,12l-0.5-0.1L10,11.9l-0.5,0.1L9,11.8l-0.5,0l-0.5,0l-0.5,0.1l-0.5,0L6.5,12L6,11.9l-0.5,0l-0.5,0L4.6,12l-0.5-0.2L3.6,12 l-0.5-0.1L2.6,12l-0.4-0.1L2,11.4l0.1-0.5l0-0.5l0.1-0.5L2,9.5L2.1,9L2,8.5L2,8l0.2-0.5l0-0.5L2,6.5L2.1,6l0.1-0.5L2.2,5L2.1,4.5 L2,4.1l0-0.5l0.2-0.5L2,2.6L2,2l0.5,0l0.5,0.1l0.5,0.1l0.5,0L4.5,2L5,2.1l0.5,0.1L6,2l0.5,0.2L7,2.1l0.5,0L8,2l0.5,0L9,2l0.5,0 l0.5,0.1L10.4,2l0.5,0.2L11.4,2L12,2l-0.1,0.6L12,3.1l-0.1,0.5L11.8,4L12,4.5L11.9,5l-0.1,0.5l0,0.5L12,6.5L12,7l-0.1,0.5L12,8 l0,0.5l-0.2,0.5l0,0.5l0.1,0.5l-0.1,0.5l0.2,0.5l-0.1,0.5L11.9,11.9z"/></g></g>
<g transform="translate(800,40)"  fill="#000000"><g transform="scale(10)"><path d="M0.2,0.1L0.1,0.6l0.1,0.5L0.2,1.6L0.1,2.1l0.1,0.5L0,3.1l0,0.5L0,4l0.1,0.5l0,0.5l0.1,0.5L0.1,6l0,0.5l0,0.5 l0.2,0.5L0.1,8l0.1,0.5L0,8.9l0.2,0.5L0,9.9l0.2,0.5l-0.1,0.5l0,0.5L0,11.9l0.2,0.5l-0.1,0.5l0.1,0.5l0,0.4L0.6,14l0.5,0l0.5-0.1 l0.5,0.1l0.5,0.1L3.1,14l0.5-0.1l0.5-0.1l0.5,0L5,13.9l0.5-0.1l0.5,0l0.5,0L7,13.9L7.5,14L8,14l0.5-0.2L9,13.9L9.4,14l0.5-0.2 l0.5,0.2l0.5-0.1l0.5,0l0.5-0.1l0.5,0l0.5,0l0.5,0l0.5,0.1l-0.1-0.5l0.2-0.5l-0.1-0.5l-0.1-0.5l0.2-0.5l-0.2-0.5l0.1-0.5L14,9.9 l-0.2-0.5L13.9,9L14,8.5L14,8l-0.2-0.5l0-0.5l0.1-0.5L13.8,6l0-0.5L14,5l0-0.5l-0.1-0.5l0.1-0.5l-0.2-0.5l0.1-0.5l0-0.5l0-0.5 l-0.1-0.5L14,0.6l-0.2-0.4l-0.4,0l-0.5,0L12.4,0l-0.5,0.2l-0.5,0l-0.5-0.1l-0.5,0L10,0l-0.5,0L9,0L8.5,0.2L8,0.2L7.5,0.1L7,0.1 L6.5,0.2L6,0L5.5,0.2L5.1,0.2L4.6,0.1L4.1,0.1L3.6,0L3.1,0.1L2.6,0L2.1,0.1l-0.5,0l-0.5,0L0.6,0.2L0.2,0.1z M11.9,11.9l-0.5-0.1 L10.9,12l-0.5-0.1L10,11.9l-0.5,0.1L9,11.8l-0.5,0l-0.5,0l-0.5,0.1l-0.5,0L6.5,12L6,11.9l-0.5,0l-0.5,0L4.6,12l-0.5-0.2L3.6,12 l-0.5-0.1L2.6,12l-0.4-0.1L2,11.4l0.1-0.5l0-0.5l0.1-0.5L2,9.5L2.1,9L2,8.5L2,8l0.2-0.5l0-0.5L2,6.5L2.1,6l0.1-0.5L2.2,5L2.1,4.5 L2,4.1l0-0.5l0.2-0.5L2,2.6L2,2l0.5,0l0.5,0.1l0.5,0.1l0.5,0L4.5,2L5,2.1l0.5,0.1L6,2l0.5,0.2L7,2.1l0.5,0L8,2l0.5,0L9,2l0.5,0 l0.5,0.1L10.4,2l0.5,0.2L11.4,2L12,2l-0.1,0.6L12,3.1l-0.1,0.5L11.8,4L12,4.5L11.9,5l-0.1,0.5l0,0.5L12,6.5L12,7l-0.1,0.5L12,8 l0,0.5l-0.2,0.5l0,0.5l0.1,0.5l-0.1,0.5l0.2,0.5l-0.1,0.5L11.9,11.9z"/></g></g>
<g transform="translate(40,800)"  fill="#000000"><g transform="scale(10)"><path d="M0.2,0.1L0.1,0.6l0.1,0.5L0.2,1.6L0.1,2.1l0.1,0.5L0,3.1l0,0.5L0,4l0.1,0.5l0,0.5l0.1,0.5L0.1,6l0,0.5l0,0.5 l0.2,0.5L0.1,8l0.1,0.5L0,8.9l0.2,0.5L0,9.9l0.2,0.5l-0.1,0.5l0,0.5L0,11.9l0.2,0.5l-0.1,0.5l0.1,0.5l0,0.4L0.6,14l0.5,0l0.5-0.1 l0.5,0.1l0.5,0.1L3.1,14l0.5-0.1l0.5-0.1l0.5,0L5,13.9l0.5-0.1l0.5,0l0.5,0L7,13.9L7.5,14L8,14l0.5-0.2L9,13.9L9.4,14l0.5-0.2 l0.5,0.2l0.5-0.1l0.5,0l0.5-0.1l0.5,0l0.5,0l0.5,0l0.5,0.1l-0.1-0.5l0.2-0.5l-0.1-0.5l-0.1-0.5l0.2-0.5l-0.2-0.5l0.1-0.5L14,9.9 l-0.2-0.5L13.9,9L14,8.5L14,8l-0.2-0.5l0-0.5l0.1-0.5L13.8,6l0-0.5L14,5l0-0.5l-0.1-0.5l0.1-0.5l-0.2-0.5l0.1-0.5l0-0.5l0-0.5 l-0.1-0.5L14,0.6l-0.2-0.4l-0.4,0l-0.5,0L12.4,0l-0.5,0.2l-0.5,0l-0.5-0.1l-0.5,0L10,0l-0.5,0L9,0L8.5,0.2L8,0.2L7.5,0.1L7,0.1 L6.5,0.2L6,0L5.5,0.2L5.1,0.2L4.6,0.1L4.1,0.1L3.6,0L3.1,0.1L2.6,0L2.1,0.1l-0.5,0l-0.5,0L0.6,0.2L0.2,0.1z M11.9,11.9l-0.5-0.1 L10.9,12l-0.5-0.1L10,11.9l-0.5,0.1L9,11.8l-0.5,0l-0.5,0l-0.5,0.1l-0.5,0L6.5,12L6,11.9l-0.5,0l-0.5,0L4.6,12l-0.5-0.2L3.6,12 l-0.5-0.1L2.6,12l-0.4-0.1L2,11.4l0.1-0.5l0-0.5l0.1-0.5L2,9.5L2.1,9L2,8.5L2,8l0.2-0.5l0-0.5L2,6.5L2.1,6l0.1-0.5L2.2,5L2.1,4.5 L2,4.1l0-0.5l0.2-0.5L2,2.6L2,2l0.5,0l0.5,0.1l0.5,0.1l0.5,0L4.5,2L5,2.1l0.5,0.1L6,2l0.5,0.2L7,2.1l0.5,0L8,2l0.5,0L9,2l0.5,0 l0.5,0.1L10.4,2l0.5,0.2L11.4,2L12,2l-0.1,0.6L12,3.1l-0.1,0.5L11.8,4L12,4.5L11.9,5l-0.1,0.5l0,0.5L12,6.5L12,7l-0.1,0.5L12,8 l0,0.5l-0.2,0.5l0,0.5l0.1,0.5l-0.1,0.5l0.2,0.5l-0.1,0.5L11.9,11.9z"/></g></g>
<g transform="translate(80,80)"  fill="#000000"><g transform="scale(10)"><rect width="6" height="6"/></g></g>
<g transform="translate(840,80)"  fill="#000000"><g transform="scale(10)"><rect width="6" height="6"/></g></g>
<g transform="translate(80,840)"  fill="#000000"><g transform="scale(10)"><rect width="6" height="6"/></g></g>
</svg>