<?xml version="1.0" encoding="utf-8"?>
<!DOCTYPE svg PUBLIC "-//W3C//DTD SVG 20010904//EN" "http://www.w3.org/TR/2001/REC-SVG-20010904/DTD/svg10.dtd">
<svg xmlns="http://www.w3.org/2000/svg" xml:space="preserve" xmlns:xlink="http://www.w3.org/1999/xlink" width="990" height="990" viewBox="0 0 990 990">
<defs>
<mask id="qrmask"><g fill="#ffffff">
<g transform="translate(220,44) scale(3.6666666666667)"><rect width="6" height="6"/></g>
<g transform="translate(286,44) scale(3.6666666666667)"><rect width="6" height="6"/></g>
<g transform="translate(330,44) scale(3.6666666666667)"><rect width="6" height="6"/></g>
<g transform="translate(374,44) scale(3.6666666666667)"><rect width="6" height="6"/></g>
<g transform="translate(440,44) scale(3.6666666666667)"><rect width="6" height="6"/></g>
<g transform="translate(462,44) scale(3.6666666666667)"><rect width="6" height="6"/></g>
<g transform="translate(506,44) scale(3.6666666666667)"><rect width="6" height="6"/></g>
<g transform="translate(528,44) scale(3.6666666666667)"><rect width="6" height="6"/></g>
<g transform="translate(550,44) scale(3.6666666666667)"><rect width="6" height="6"/></g>
<g transform="translate(572,44) scale(3.6666666666667)"><rect width="6" height="6"/></g>
<g transform="translate(682,44) scale(3.6666666666667)"><rect width="6" height="6"/></g>
<g transform="translate(704,44) scale(3.6666666666667)"><rect width="6" height="6"/></g>
<g transform="translate(726,44) scale(3.6666666666667)"><rect width="6" height="6"/></g>
<g transform="translate(748,44) scale(3.6666666666667)"><rect width="6" height="6"/></g>
<g transform="translate(220,66) scale(3.6666666666667)"><rect width="6" height="6"/></g>
<g transform="translate(286,66) scale(3.6666666666667)"><rect width="6" height="6"/></g>
<g transform="translate(330,66) scale(3.6666666666667)"><rect width="6" height="6"/></g>
<g transform="translate(396,66) scale(3.6666666666667)"><rect width="6" height="6"/></g>
<g transform="translate(462,66) scale(3.6666666666667)"><rect width="6" height="6"/></g>
<g transform="translate(484,66) scale(3.6666666666667)"><rect width="6" height="6"/></g>
<g transform="translate(572,66) scale(3.6666666666667)"><rect width="6" height="6"/></g>
<g transform="translate(638,66) scale(3.6666666666667)"><rect width="6" height="6"/></g>
<g transform="translate(660,66) scale(3.6666666666667)"><rect width="6" height="6"/></g>
<g transform="translate(682,66) scale(3.6666666666667)"><rect width="6" height="6"/></g>
<g transform="translate(704,66) scale(3.6666666666667)"><rect width="6" height="6"/></g>
<g transform="translate(748,66) scale(3.6666666666667)"><rect width="6" height="6"/></g>
<g transform="translate(220,88) scale(3.6666666666667)"><rect width="6" height="6"/></g>
<g transform="translate(418,88) scale(3.6666666666667)"><rect width="6" height="6"/></g>
<g transform="translate(528,88) scale(3.6666666666667)"><rect width="6" height="6"/></g>
<g transform="translate(550,88) scale(3.6666666666667)"><rect width="6" height="6"/></g>
<g transform="translate(616,88) scale(3.6666666666667)"><rect width="6" height="6"/></g>
<g transform="translate(682,88) scale(3.6666666666667)"><rect width="6" height="6"/></g>
<g transform="translate(748,88) scale(3.6666666666667)"><rect width="6" height="6"/></g>
<g transform="translate(242,110) scale(3.6666666666667)"><rect width="6" height="6"/></g>
<g transform="translate(286,110) scale(3.6666666666667)"><rect width="6" height="6"/></g>
<g transform="translate(308,110) scale(3.6666666666667)"><rect width="6" height="6"/></g>
<g transform="translate(374,110) scale(3.6666666666667)"><rect width="6" height="6"/></g>
<g transform="translate(396,110) scale(3.6666666666667)"><rect width="6" height="6"/></g>
<g transform="translate(418,110) scale(3.6666666666667)"><rect width="6" height="6"/></g>
<g transform="translate(550,110) scale(3.6666666666667)"><rect width="6" height="6"/></g>
<g transform="translate(572,110) scale(3.6666666666667)"><rect width="6" height="6"/></g>
<g transform="translate(638,110) scale(3.6666666666667)"><rect width="6" height="6"/></g>
<g transform="translate(660,110) scale(3.6666666666667)"><rect width="6" height="6"/></g>
<g transform="translate(726,110) scale(3.6666666666667)"><rect width="6" height="6"/></g>
<g transform="translate(374,132) scale(3.6666666666667)"><rect width="6" height="6"/></g>
<g transform="translate(440,132) scale(3.6666666666667)"><rect width="6" height="6"/></g>
<g transform="translate(462,132) scale(3.6666666666667)"><rect width="6" height="6"/></g>
<g transform="translate(484,132) scale(3.6666666666667)"><rect width="6" height="6"/></g>
<g transform="translate(616,132) scale(3.6666666666667)"><rect width="6" height="6"/></g>
<g transform="translate(660,132) scale(3.6666666666667)"><rect width="6" height="6"/></g>
<g transform="translate(704,132) scale(3.6666666666667)"><rect width="6" height="6"/></g>
<g transform="translate(726,132) scale(3.6666666666667)"><rect width="6" height="6"/></g>
<g transform="translate(748,132) scale(3.6666666666667)"><rect width="6" height="6"/></g>
<g transform="translate(220,154) scale(3.6666666666667)"><rect width="6" height="6"/></g>
<g transform="translate(242,154) scale(3.6666666666667)"><rect width="6" height="6"/></g>
<g transform="translate(264,154) scale(3.6666666666667)"><rect width="6" height="6"/></g>
<g transform="translate(308,154) scale(3.6666666666667)"><rect width="6" height="6"/></g>
<g transform="translate(330,154) scale(3.6666666666667)"><rect width="6" height="6"/></g>
<g transform="translate(352,154) scale(3.6666666666667)"><rect width="6" height="6"/></g>
<g transform="translate(440,154) scale(3.6666666666667)"><rect width="6" height="6"/></g>
<g transform="translate(462,154) scale(3.6666666666667)"><rect width="6" height="6"/></g>
<g transform="translate(506,154) scale(3.6666666666667)"><rect width="6" height="6"/></g>
<g transform="translate(528,154) scale(3.6666666666667)"><rect width="6" height="6"/></g>
<g transform="translate(550,154) scale(3.6666666666667)"><rect width="6" height="6"/></g>
<g transform="translate(594,154) scale(3.6666666666667)"><rect width="6" height="6"/></g>
<g transform="translate(638,154) scale(3.6666666666667)"><rect width="6" height="6"/></g>
<g transform="translate(660,154) scale(3.6666666666667)"><rect width="6" height="6"/></g>
<g transform="translate(682,154) scale(3.6666666666667)"><rect width="6" height="6"/></g>
<g transform="translate(748,154) scale(3.6666666666667)"><rect width="6" height="6"/></g>
<g transform="translate(220,176) scale(3.6666666666667)"><rect width="6" height="6"/></g>
<g transform="translate(264,176) scale(3.6666666666667)"><rect width="6" height="6"/></g>
<g transform="translate(308,176) scale(3.6666666666667)"><rect width="6" height="6"/></g>
<g transform="translate(352,176) scale(3.6666666666667)"><rect width="6" height="6"/></g>
<g transform="translate(396,176) scale(3.6666666666667)"><rect width="6" height="6"/></g>
<g transform="translate(440,176) scale(3.6666666666667)"><rect width="6" height="6"/></g>
<g transform="translate(484,176) scale(3.6666666666667)"><rect width="6" height="6"/></g>
<g transform="translate(528,176) scale(3.6666666666667)"><rect width="6" height="6"/></g>
<g transform="translate(572,176) scale(3.6666666666667)"><rect width="6" height="6"/></g>
<g transform="translate(616,176) scale(3.6666666666667)"><rect width="6" height="6"/></g>
<g transform="translate(660,176) scale(3.6666666666667)"><rect width="6" height="6"/></g>
<g transform="translate(704,176) scale(3.6666666666667)"><rect width="6" height="6"/></g>
<g transform="translate(748,176) scale(3.6666666666667)"><rect width="6" height="6"/></g>
<g transform="translate(220,198) scale(3.6666666666667)"><rect width="6" height="6"/></g>
<g transform="translate(264,198) scale(3.6666666666667)"><rect width="6" height="6"/></g>
<g transform="translate(286,198) scale(3.6666666666667)"><rect width="6" height="6"/></g>
<g transform="translate(308,198) scale(3.6666666666667)"><rect width="6" height="6"/></g>
<g transform="translate(352,198) scale(3.6666666666667)"><rect width="6" height="6"/></g>
<g transform="translate(396,198) scale(3.6666666666667)"><rect width="6" height="6"/></g>
<g transform="translate(418,198) scale(3.6666666666667)"><rect width="6" height="6"/></g>
<g transform="translate(462,198) scale(3.6666666666667)"><rect width="6" height="6"/></g>
<g transform="translate(528,198) scale(3.6666666666667)"><rect width="6" height="6"/></g>
<g transform="translate(550,198) scale(3.6666666666667)"><rect width="6" height="6"/></g>
<g transform="translate(594,198) scale(3.6666666666667)"><rect width="6" height="6"/></g>
<g transform="translate(616,198) scale(3.6666666666667)"><rect width="6" height="6"/></g>
<g transform="translate(660,198) scale(3.6666666666667)"><rect width="6" height="6"/></g>
<g transform="translate(726,198) scale(3.6666666666667)"><rect width="6" height="6"/></g>
<g transform="translate(748,198) scale(3.6666666666667)"><rect width="6" height="6"/></g>
<g transform="translate(88,220) scale(3.6666666666667)"><rect width="6" height="6"/></g>
<g transform="translate(110,220) scale(3.6666666666667)"><rect width="6" height="6"/></g>
<g transform="translate(132,220) scale(3.6666666666667)"><rect width="6" height="6"/></g>
<g transform="translate(176,220) scale(3.6666666666667)"><rect width="6" height="6"/></g>
<g transform="translate(220,220) scale(3.6666666666667)"><rect width="6" height="6"/></g>
<g transform="translate(242,220) scale(3.6666666666667)"><rect width="6" height="6"/></g>
<g transform="translate(286,220) scale(3.6666666666667)"><rect width="6" height="6"/></g>
<g transform="translate(308,220) scale(3.6666666666667)"><rect width="6" height="6"/></g>
<g transform="translate(352,220) scale(3.6666666666667)"><rect width="6" height="6"/></g>
<g transform="translate(440,220) scale(3.6666666666667)"><rect width="6" height="6"/></g>
<g transform="translate(506,220) scale(3.6666666666667)"><rect width="6" height="6"/></g>
<g transform="translate(528,220) scale(3.6666666666667)"><rect width="6" height="6"/></g>
<g transform="translate(550,220) scale(3.6666666666667)"><rect width="6" height="6"/></g>
<g transform="translate(572,220) scale(3.6666666666667)"><rect width="6" height="6"/></g>
<g transform="translate(594,220) scale(3.6666666666667)"><rect width="6" height="6"/></g>
<g transform="translate(682,220) scale(3.6666666666667)"><rect width="6" height="6"/></g>
<g transform="translate(726,220) scale(3.6666666666667)"><rect width="6" height="6"/></g>
<g transform="translate(748,220) scale(3.6666666666667)"><rect width="6" height="6"/></g>
<g transform="translate(770,220) scale(3.6666666666667)"><rect width="6" height="6"/></g>
<g transform="translate(792,220) scale(3.6666666666667)"><rect width="6" height="6"/></g>
<g transform="translate(814,220) scale(3.6666666666667)"><rect width="6" height="6"/></g>
<g transform="translate(880,220) scale(3.6666666666667)"><rect width="6" height="6"/></g>
<g transform="translate(902,220) scale(3.6666666666667)"><rect width="6" height="6"/></g>
<g transform="translate(924,220) scale(3.6666666666667)"><rect width="6" height="6"/></g>
<g transform="translate(44,242) scale(3.6666666666667)"><rect width="6" height="6"/></g>
<g transform="translate(110,242) scale(3.6666666666667)"><rect width="6" height="6"/></g>
<g transform="translate(242,242) scale(3.6666666666667)"><rect width="6" height="6"/></g>
<g transform="translate(308,242) scale(3.6666666666667)"><rect width="6" height="6"/></g>
<g transform="translate(330,242) scale(3.6666666666667)"><rect width="6" height="6"/></g>
<g transform="translate(352,242) scale(3.6666666666667)"><rect width="6" height="6"/></g>
<g transform="translate(374,242) scale(3.6666666666667)"><rect width="6" height="6"/></g>
<g transform="translate(396,242) scale(3.6666666666667)"><rect width="6" height="6"/></g>
<g transform="translate(418,242) scale(3.6666666666667)"><rect width="6" height="6"/></g>
<g transform="translate(440,242) scale(3.6666666666667)"><rect width="6" height="6"/></g>
<g transform="translate(484,242) scale(3.6666666666667)"><rect width="6" height="6"/></g>
<g transform="translate(528,242) scale(3.6666666666667)"><rect width="6" height="6"/></g>
<g transform="translate(660,242) scale(3.6666666666667)"><rect width="6" height="6"/></g>
<g transform="translate(682,242) scale(3.6666666666667)"><rect width="6" height="6"/></g>
<g transform="translate(726,242) scale(3.6666666666667)"><rect width="6" height="6"/></g>
<g transform="translate(748,242) scale(3.6666666666667)"><rect width="6" height="6"/></g>
<g transform="translate(792,242) scale(3.6666666666667)"><rect width="6" height="6"/></g>
<g transform="translate(814,242) scale(3.6666666666667)"><rect width="6" height="6"/></g>
<g transform="translate(836,242) scale(3.6666666666667)"><rect width="6" height="6"/></g>
<g transform="translate(880,242) scale(3.6666666666667)"><rect width="6" height="6"/></g>
<g transform="translate(902,242) scale(3.6666666666667)"><rect width="6" height="6"/></g>
<g transform="translate(924,242) scale(3.6666666666667)"><rect width="6" height="6"/></g>
<g transform="translate(44,264) scale(3.6666666666667)"><rect width="6" height="6"/></g>
<g transform="translate(66,264) scale(3.6666666666667)"><rect width="6" height="6"/></g>
<g transform="translate(88,264) scale(3.6666666666667)"><rect width="6" height="6"/></g>
<g transform="translate(110,264) scale(3.6666666666667)"><rect width="6" height="6"/></g>
<g transform="translate(176,264) scale(3.6666666666667)"><rect width="6" height="6"/></g>
<g transform="translate(198,264) scale(3.6666666666667)"><rect width="6" height="6"/></g>
<g transform="translate(220,264) scale(3.6666666666667)"><rect width="6" height="6"/></g>
<g transform="translate(242,264) scale(3.6666666666667)"><rect width="6" height="6"/></g>
<g transform="translate(286,264) scale(3.6666666666667)"><rect width="6" height="6"/></g>
<g transform="translate(330,264) scale(3.6666666666667)"><rect width="6" height="6"/></g>
<g transform="translate(352,264) scale(3.6666666666667)"><rect width="6" height="6"/></g>
<g transform="translate(396,264) scale(3.6666666666667)"><rect width="6" height="6"/></g>
<g transform="translate(418,264) scale(3.6666666666667)"><rect width="6" height="6"/></g>
<g transform="translate(440,264) scale(3.6666666666667)"><rect width="6" height="6"/></g>
<g transform="translate(462,264) scale(3.6666666666667)"><rect width="6" height="6"/></g>
<g transform="translate(484,264) scale(3.6666666666667)"><rect width="6" height="6"/></g>
<g transform="translate(506,264) scale(3.6666666666667)"><rect width="6" height="6"/></g>
<g transform="translate(528,264) scale(3.6666666666667)"><rect width="6" height="6"/></g>
<g transform="translate(550,264) scale(3.6666666666667)"><rect width="6" height="6"/></g>
<g transform="translate(594,264) scale(3.6666666666667)"><rect width="6" height="6"/></g>
<g transform="translate(638,264) scale(3.6666666666667)"><rect width="6" height="6"/></g>
<g transform="translate(748,264) scale(3.6666666666667)"><rect width="6" height="6"/></g>
<g transform="translate(770,264) scale(3.6666666666667)"><rect width="6" height="6"/></g>
<g transform="translate(814,264) scale(3.6666666666667)"><rect width="6" height="6"/></g>
<g transform="translate(836,264) scale(3.6666666666667)"><rect width="6" height="6"/></g>
<g transform="translate(308,286) scale(3.6666666666667)"><rect width="6" height="6"/></g>
<g transform="translate(352,286) scale(3.6666666666667)"><rect width="6" height="6"/></g>
<g transform="translate(374,286) scale(3.6666666666667)"><rect width="6" height="6"/></g>
<g transform="translate(418,286) scale(3.6666666666667)"><rect width="6" height="6"/></g>
<g transform="translate(462,286) scale(3.6666666666667)"><rect width="6" height="6"/></g>
<g transform="translate(484,286) scale(3.6666666666667)"><rect width="6" height="6"/></g>
<g transform="translate(506,286) scale(3.6666666666667)"><rect width="6" height="6"/></g>
<g transform="translate(528,286) scale(3.6666666666667)"><rect width="6" height="6"/></g>
<g transform="translate(550,286) scale(3.6666666666667)"><rect width="6" height="6"/></g>
<g transform="translate(572,286) scale(3.6666666666667)"><rect width="6" height="6"/></g>
<g transform="translate(616,286) scale(3.6666666666667)"><rect width="6" height="6"/></g>
<g transform="translate(638,286) scale(3.6666666666667)"><rect width="6" height="6"/></g>
<g transform="translate(660,286) scale(3.6666666666667)"><rect width="6" height="6"/></g>
<g transform="translate(726,286) scale(3.6666666666667)"><rect width="6" height="6"/></g>
<g transform="translate(748,286) scale(3.6666666666667)"><rect width="6" height="6"/></g>
<g transform="translate(770,286) scale(3.6666666666667)"><rect width="6" height="6"/></g>
<g transform="translate(858,286) scale(3.6666666666667)"><rect width="6" height="6"/></g>
<g transform="translate(902,286) scale(3.6666666666667)"><rect width="6" height="6"/></g>
<g transform="translate(44,308) scale(3.6666666666667)"><rect width="6" height="6"/></g>
<g transform="translate(66,308) scale(3.6666666666667)"><rect width="6" height="6"/></g>
<g transform="translate(88,308) scale(3.6666666666667)"><rect width="6" height="6"/></g>
<g transform="translate(110,308) scale(3.6666666666667)"><rect width="6" height="6"/></g>
<g transform="translate(132,308) scale(3.6666666666667)"><rect width="6" height="6"/></g>
<g transform="translate(154,308) scale(3.6666666666667)"><rect width="6" height="6"/></g>
<g transform="translate(176,308) scale(3.6666666666667)"><rect width="6" height="6"/></g>
<g transform="translate(198,308) scale(3.6666666666667)"><rect width="6" height="6"/></g>
<g transform="translate(220,308) scale(3.6666666666667)"><rect width="6" height="6"/></g>
<g transform="translate(264,308) scale(3.6666666666667)"><rect width="6" height="6"/></g>
<g transform="translate(286,308) scale(3.6666666666667)"><rect width="6" height="6"/></g>
<g transform="translate(308,308) scale(3.6666666666667)"><rect width="6" height="6"/></g>
<g transform="translate(352,308) scale(3.6666666666667)"><rect width="6" height="6"/></g>
<g transform="translate(418,308) scale(3.6666666666667)"><rect width="6" height="6"/></g>
<g transform="translate(440,308) scale(3.6666666666667)"><rect width="6" height="6"/></g>
<g transform="translate(484,308) scale(3.6666666666667)"><rect width="6" height="6"/></g>
<g transform="translate(506,308) scale(3.6666666666667)"><rect width="6" height="6"/></g>
<g transform="translate(550,308) scale(3.6666666666667)"><rect width="6" height="6"/></g>
<g transform="translate(572,308) scale(3.6666666666667)"><rect width="6" height="6"/></g>
<g transform="translate(682,308) scale(3.6666666666667)"><rect width="6" height="6"/></g>
<g transform="translate(704,308) scale(3.6666666666667)"><rect width="6" height="6"/></g>
<g transform="translate(726,308) scale(3.6666666666667)"><rect width="6" height="6"/></g>
<g transform="translate(748,308) scale(3.6666666666667)"><rect width="6" height="6"/></g>
<g transform="translate(770,308) scale(3.6666666666667)"><rect width="6" height="6"/></g>
<g transform="translate(858,308) scale(3.6666666666667)"><rect width="6" height="6"/></g>
<g transform="translate(880,308) scale(3.6666666666667)"><rect width="6" height="6"/></g>
<g transform="translate(924,308) scale(3.6666666666667)"><rect width="6" height="6"/></g>
<g transform="translate(66,330) scale(3.6666666666667)"><rect width="6" height="6"/></g>
<g transform="translate(110,330) scale(3.6666666666667)"><rect width="6" height="6"/></g>
<g transform="translate(132,330) scale(3.6666666666667)"><rect width="6" height="6"/></g>
<g transform="translate(198,330) scale(3.6666666666667)"><rect width="6" height="6"/></g>
<g transform="translate(286,330) scale(3.6666666666667)"><rect width="6" height="6"/></g>
<g transform="translate(308,330) scale(3.6666666666667)"><rect width="6" height="6"/></g>
<g transform="translate(330,330) scale(3.6666666666667)"><rect width="6" height="6"/></g>
<g transform="translate(352,330) scale(3.6666666666667)"><rect width="6" height="6"/></g>
<g transform="translate(374,330) scale(3.6666666666667)"><rect width="6" height="6"/></g>
<g transform="translate(440,330) scale(3.6666666666667)"><rect width="6" height="6"/></g>
<g transform="translate(462,330) scale(3.6666666666667)"><rect width="6" height="6"/></g>
<g transform="translate(506,330) scale(3.6666666666667)"><rect width="6" height="6"/></g>
<g transform="translate(550,330) scale(3.6666666666667)"><rect width="6" height="6"/></g>
<g transform="translate(572,330) scale(3.6666666666667)"><rect width="6" height="6"/></g>
<g transform="translate(638,330) scale(3.6666666666667)"><rect width="6" height="6"/></g>
<g transform="translate(660,330) scale(3.6666666666667)"><rect width="6" height="6"/></g>
<g transform="translate(704,330) scale(3.6666666666667)"><rect width="6" height="6"/></g>
<g transform="translate(748,330) scale(3.6666666666667)"><rect width="6" height="6"/></g>
<g transform="translate(770,330) scale(3.6666666666667)"><rect width="6" height="6"/></g>
<g transform="translate(814,330) scale(3.6666666666667)"><rect width="6" height="6"/></g>
<g transform="translate(836,330) scale(3.6666666666667)"><rect width="6" height="6"/></g>
<g transform="translate(880,330) scale(3.6666666666667)"><rect width="6" height="6"/></g>
<g transform="translate(902,330) scale(3.6666666666667)"><rect width="6" height="6"/></g>
<g transform="translate(924,330) scale(3.6666666666667)"><rect width="6" height="6"/></g>
<g transform="translate(44,352) scale(3.6666666666667)"><rect width="6" height="6"/></g>
<g transform="translate(110,352) scale(3.6666666666667)"><rect width="6" height="6"/></g>
<g transform="translate(132,352) scale(3.6666666666667)"><rect width="6" height="6"/></g>
<g transform="translate(154,352) scale(3.6666666666667)"><rect width="6" height="6"/></g>
<g transform="translate(176,352) scale(3.6666666666667)"><rect width="6" height="6"/></g>
<g transform="translate(220,352) scale(3.6666666666667)"><rect width="6" height="6"/></g>
<g transform="translate(264,352) scale(3.6666666666667)"><rect width="6" height="6"/></g>
<g transform="translate(308,352) scale(3.6666666666667)"><rect width="6" height="6"/></g>
<g transform="translate(374,352) scale(3.6666666666667)"><rect width="6" height="6"/></g>
<g transform="translate(396,352) scale(3.6666666666667)"><rect width="6" height="6"/></g>
<g transform="translate(440,352) scale(3.6666666666667)"><rect width="6" height="6"/></g>
<g transform="translate(550,352) scale(3.6666666666667)"><rect width="6" height="6"/></g>
<g transform="translate(572,352) scale(3.6666666666667)"><rect width="6" height="6"/></g>
<g transform="translate(616,352) scale(3.6666666666667)"><rect width="6" height="6"/></g>
<g transform="translate(770,352) scale(3.6666666666667)"><rect width="6" height="6"/></g>
<g transform="translate(814,352) scale(3.6666666666667)"><rect width="6" height="6"/></g>
<g transform="translate(836,352) scale(3.6666666666667)"><rect width="6" height="6"/></g>
<g transform="translate(858,352) scale(3.6666666666667)"><rect width="6" height="6"/></g>
<g transform="translate(880,352) scale(3.6666666666667)"><rect width="6" height="6"/></g>
<g transform="translate(88,374) scale(3.6666666666667)"><rect width="6" height="6"/></g>
<g transform="translate(154,374) scale(3.6666666666667)"><rect width="6" height="6"/></g>
<g transform="translate(264,374) scale(3.6666666666667)"><rect width="6" height="6"/></g>
<g transform="translate(308,374) scale(3.6666666666667)"><rect width="6" height="6"/></g>
<g transform="translate(330,374) scale(3.6666666666667)"><rect width="6" height="6"/></g>
<g transform="translate(374,374) scale(3.6666666666667)"><rect width="6" height="6"/></g>
<g transform="translate(396,374) scale(3.6666666666667)"><rect width="6" height="6"/></g>
<g transform="translate(418,374) scale(3.6666666666667)"><rect width="6" height="6"/></g>
<g transform="translate(440,374) scale(3.6666666666667)"><rect width="6" height="6"/></g>
<g transform="translate(484,374) scale(3.6666666666667)"><rect width="6" height="6"/></g>
<g transform="translate(506,374) scale(3.6666666666667)"><rect width="6" height="6"/></g>
<g transform="translate(550,374) scale(3.6666666666667)"><rect width="6" height="6"/></g>
<g transform="translate(616,374) scale(3.6666666666667)"><rect width="6" height="6"/></g>
<g transform="translate(660,374) scale(3.6666666666667)"><rect width="6" height="6"/></g>
<g transform="translate(748,374) scale(3.6666666666667)"><rect width="6" height="6"/></g>
<g transform="translate(792,374) scale(3.6666666666667)"><rect width="6" height="6"/></g>
<g transform="translate(858,374) scale(3.6666666666667)"><rect width="6" height="6"/></g>
<g transform="translate(44,396) scale(3.6666666666667)"><rect width="6" height="6"/></g>
<g transform="translate(66,396) scale(3.6666666666667)"><rect width="6" height="6"/></g>
<g transform="translate(88,396) scale(3.6666666666667)"><rect width="6" height="6"/></g>
<g transform="translate(110,396) scale(3.6666666666667)"><rect width="6" height="6"/></g>
<g transform="translate(176,396) scale(3.6666666666667)"><rect width="6" height="6"/></g>
<g transform="translate(220,396) scale(3.6666666666667)"><rect width="6" height="6"/></g>
<g transform="translate(242,396) scale(3.6666666666667)"><rect width="6" height="6"/></g>
<g transform="translate(264,396) scale(3.6666666666667)"><rect width="6" height="6"/></g>
<g transform="translate(286,396) scale(3.6666666666667)"><rect width="6" height="6"/></g>
<g transform="translate(352,396) scale(3.6666666666667)"><rect width="6" height="6"/></g>
<g transform="translate(396,396) scale(3.6666666666667)"><rect width="6" height="6"/></g>
<g transform="translate(418,396) scale(3.6666666666667)"><rect width="6" height="6"/></g>
<g transform="translate(462,396) scale(3.6666666666667)"><rect width="6" height="6"/></g>
<g transform="translate(484,396) scale(3.6666666666667)"><rect width="6" height="6"/></g>
<g transform="translate(506,396) scale(3.6666666666667)"><rect width="6" height="6"/></g>
<g transform="translate(572,396) scale(3.6666666666667)"><rect width="6" height="6"/></g>
<g transform="translate(616,396) scale(3.6666666666667)"><rect width="6" height="6"/></g>
<g transform="translate(660,396) scale(3.6666666666667)"><rect width="6" height="6"/></g>
<g transform="translate(682,396) scale(3.6666666666667)"><rect width="6" height="6"/></g>
<g transform="translate(770,396) scale(3.6666666666667)"><rect width="6" height="6"/></g>
<g transform="translate(814,396) scale(3.6666666666667)"><rect width="6" height="6"/></g>
<g transform="translate(880,396) scale(3.6666666666667)"><rect width="6" height="6"/></g>
<g transform="translate(902,396) scale(3.6666666666667)"><rect width="6" height="6"/></g>
<g transform="translate(924,396) scale(3.6666666666667)"><rect width="6" height="6"/></g>
<g transform="translate(88,418) scale(3.6666666666667)"><rect width="6" height="6"/></g>
<g transform="translate(110,418) scale(3.6666666666667)"><rect width="6" height="6"/></g>
<g transform="translate(154,418) scale(3.6666666666667)"><rect width="6" height="6"/></g>
<g transform="translate(198,418) scale(3.6666666666667)"><rect width="6" height="6"/></g>
<g transform="translate(242,418) scale(3.6666666666667)"><rect width="6" height="6"/></g>
<g transform="translate(264,418) scale(3.6666666666667)"><rect width="6" height="6"/></g>
<g transform="translate(286,418) scale(3.6666666666667)"><rect width="6" height="6"/></g>
<g transform="translate(308,418) scale(3.6666666666667)"><rect width="6" height="6"/></g>
<g transform="translate(330,418) scale(3.6666666666667)"><rect width="6" height="6"/></g>
<g transform="translate(374,418) scale(3.6666666666667)"><rect width="6" height="6"/></g>
<g transform="translate(396,418) scale(3.6666666666667)"><rect width="6" height="6"/></g>
<g transform="translate(418,418) scale(3.6666666666667)"><rect width="6" height="6"/></g>
<g transform="translate(440,418) scale(3.6666666666667)"><rect width="6" height="6"/></g>
<g transform="translate(484,418) scale(3.6666666666667)"><rect width="6" height="6"/></g>
<g transform="translate(506,418) scale(3.6666666666667)"><rect width="6" height="6"/></g>
<g transform="translate(550,418) scale(3.6666666666667)"><rect width="6" height="6"/></g>
<g transform="translate(572,418) scale(3.6666666666667)"><rect width="6" height="6"/></g>
<g transform="translate(616,418) scale(3.6666666666667)"><rect width="6" height="6"/></g>
<g transform="translate(660,418) scale(3.6666666666667)"><rect width="6" height="6"/></g>
<g transform="translate(704,418) scale(3.6666666666667)"><rect width="6" height="6"/></g>
<g transform="translate(726,418) scale(3.6666666666667)"><rect width="6" height="6"/></g>
<g transform="translate(748,418) scale(3.6666666666667)"><rect width="6" height="6"/></g>
<g transform="translate(792,418) scale(3.6666666666667)"><rect width="6" height="6"/></g>
<g transform="translate(814,418) scale(3.6666666666667)"><rect width="6" height="6"/></g>
<g transform="translate(836,418) scale(3.6666666666667)"><rect width="6" height="6"/></g>
<g transform="translate(858,418) scale(3.6666666666667)"><rect width="6" height="6"/></g>
<g transform="translate(880,418) scale(3.6666666666667)"><rect width="6" height="6"/></g>
<g transform="translate(902,418) scale(3.6666666666667)"><rect width="6" height="6"/></g>
<g transform="translate(924,418) scale(3.6666666666667)"><rect width="6" height="6"/></g>
<g transform="translate(44,440) scale(3.6666666666667)"><rect width="6" height="6"/></g>
<g transform="translate(66,440) scale(3.6666666666667)"><rect width="6" height="6"/></g>
<g transform="translate(110,440) scale(3.6666666666667)"><rect width="6" height="6"/></g>
<g transform="translate(176,440) scale(3.6666666666667)"><rect width="6" height="6"/></g>
<g transform="translate(242,440) scale(3.6666666666667)"><rect width="6" height="6"/></g>
<g transform="translate(286,440) scale(3.6666666666667)"><rect width="6" height="6"/></g>
<g transform="translate(308,440) scale(3.6666666666667)"><rect width="6" height="6"/></g>
<g transform="translate(352,440) scale(3.6666666666667)"><rect width="6" height="6"/></g>
<g transform="translate(418,440) scale(3.6666666666667)"><rect width="6" height="6"/></g>
<g transform="translate(484,440) scale(3.6666666666667)"><rect width="6" height="6"/></g>
<g transform="translate(506,440) scale(3.6666666666667)"><rect width="6" height="6"/></g>
<g transform="translate(528,440) scale(3.6666666666667)"><rect width="6" height="6"/></g>
<g transform="translate(572,440) scale(3.6666666666667)"><rect width="6" height="6"/></g>
<g transform="translate(594,440) scale(3.6666666666667)"><rect width="6" height="6"/></g>
<g transform="translate(616,440) scale(3.6666666666667)"><rect width="6" height="6"/></g>
<g transform="translate(638,440) scale(3.6666666666667)"><rect width="6" height="6"/></g>
<g transform="translate(660,440) scale(3.6666666666667)"><rect width="6" height="6"/></g>
<g transform="translate(682,440) scale(3.6666666666667)"><rect width="6" height="6"/></g>
<g transform="translate(704,440) scale(3.6666666666667)"><rect width="6" height="6"/></g>
<g transform="translate(748,440) scale(3.6666666666667)"><rect width="6" height="6"/></g>
<g transform="translate(792,440) scale(3.6666666666667)"><rect width="6" height="6"/></g>
<g transform="translate(836,440) scale(3.6666666666667)"><rect width="6" height="6"/></g>
<g transform="translate(880,440) scale(3.6666666666667)"><rect width="6" height="6"/></g>
<g transform="translate(44,462) scale(3.6666666666667)"><rect width="6" height="6"/></g>
<g transform="translate(66,462) scale(3.6666666666667)"><rect width="6" height="6"/></g>
<g transform="translate(110,462) scale(3.6666666666667)"><rect width="6" height="6"/></g>
<g transform="translate(154,462) scale(3.6666666666667)"><rect width="6" height="6"/></g>
<g transform="translate(242,462) scale(3.6666666666667)"><rect width="6" height="6"/></g>
<g transform="translate(264,462) scale(3.6666666666667)"><rect width="6" height="6"/></g>
<g transform="translate(308,462) scale(3.6666666666667)"><rect width="6" height="6"/></g>
<g transform="translate(352,462) scale(3.6666666666667)"><rect width="6" height="6"/></g>
<g transform="translate(374,462) scale(3.6666666666667)"><rect width="6" height="6"/></g>
<g transform="translate(396,462) scale(3.6666666666667)"><rect width="6" height="6"/></g>
<g transform="translate(484,462) scale(3.6666666666667)"><rect width="6" height="6"/></g>
<g transform="translate(528,462) scale(3.6666666666667)"><rect width="6" height="6"/></g>
<g transform="translate(550,462) scale(3.6666666666667)"><rect width="6" height="6"/></g>
<g transform="translate(572,462) scale(3.6666666666667)"><rect width="6" height="6"/></g>
<g transform="translate(638,462) scale(3.6666666666667)"><rect width="6" height="6"/></g>
<g transform="translate(660,462) scale(3.6666666666667)"><rect width="6" height="6"/></g>
<g transform="translate(748,462) scale(3.6666666666667)"><rect width="6" height="6"/></g>
<g transform="translate(770,462) scale(3.6666666666667)"><rect width="6" height="6"/></g>
<g transform="translate(792,462) scale(3.6666666666667)"><rect width="6" height="6"/></g>
<g transform="translate(836,462) scale(3.6666666666667)"><rect width="6" height="6"/></g>
<g transform="translate(858,462) scale(3.6666666666667)"><rect width="6" height="6"/></g>
<g transform="translate(902,462) scale(3.6666666666667)"><rect width="6" height="6"/></g>
<g transform="translate(924,462) scale(3.6666666666667)"><rect width="6" height="6"/></g>
<g transform="translate(44,484) scale(3.6666666666667)"><rect width="6" height="6"/></g>
<g transform="translate(88,484) scale(3.6666666666667)"><rect width="6" height="6"/></g>
<g transform="translate(110,484) scale(3.6666666666667)"><rect width="6" height="6"/></g>
<g transform="translate(132,484) scale(3.6666666666667)"><rect width="6" height="6"/></g>
<g transform="translate(176,484) scale(3.6666666666667)"><rect width="6" height="6"/></g>
<g transform="translate(264,484) scale(3.6666666666667)"><rect width="6" height="6"/></g>
<g transform="translate(286,484) scale(3.6666666666667)"><rect width="6" height="6"/></g>
<g transform="translate(308,484) scale(3.6666666666667)"><rect width="6" height="6"/></g>
<g transform="translate(352,484) scale(3.6666666666667)"><rect width="6" height="6"/></g>
<g transform="translate(396,484) scale(3.6666666666667)"><rect width="6" height="6"/></g>
<g transform="translate(418,484) scale(3.6666666666667)"><rect width="6" height="6"/></g>
<g transform="translate(440,484) scale(3.6666666666667)"><rect width="6" height="6"/></g>
<g transform="translate(462,484) scale(3.6666666666667)"><rect width="6" height="6"/></g>
<g transform="translate(484,484) scale(3.6666666666667)"><rect width="6" height="6"/></g>
<g transform="translate(528,484) scale(3.6666666666667)"><rect width="6" height="6"/></g>
<g transform="translate(550,484) scale(3.6666666666667)"><rect width="6" height="6"/></g>
<g transform="translate(572,484) scale(3.6666666666667)"><rect width="6" height="6"/></g>
<g transform="translate(594,484) scale(3.6666666666667)"><rect width="6" height="6"/></g>
<g transform="translate(638,484) scale(3.6666666666667)"><rect width="6" height="6"/></g>
<g transform="translate(704,484) scale(3.6666666666667)"><rect width="6" height="6"/></g>
<g transform="translate(726,484) scale(3.6666666666667)"><rect width="6" height="6"/></g>
<g transform="translate(770,484) scale(3.6666666666667)"><rect width="6" height="6"/></g>
<g transform="translate(880,484) scale(3.6666666666667)"><rect width="6" height="6"/></g>
<g transform="translate(924,484) scale(3.6666666666667)"><rect width="6" height="6"/></g>
<g transform="translate(110,506) scale(3.6666666666667)"><rect width="6" height="6"/></g>
<g transform="translate(154,506) scale(3.6666666666667)"><rect width="6" height="6"/></g>
<g transform="translate(198,506) scale(3.6666666666667)"><rect width="6" height="6"/></g>
<g transform="translate(264,506) scale(3.6666666666667)"><rect width="6" height="6"/></g>
<g transform="translate(330,506) scale(3.6666666666667)"><rect width="6" height="6"/></g>
<g transform="translate(462,506) scale(3.6666666666667)"><rect width="6" height="6"/></g>
<g transform="translate(506,506) scale(3.6666666666667)"><rect width="6" height="6"/></g>
<g transform="translate(550,506) scale(3.6666666666667)"><rect width="6" height="6"/></g>
<g transform="translate(572,506) scale(3.6666666666667)"><rect width="6" height="6"/></g>
<g transform="translate(616,506) scale(3.6666666666667)"><rect width="6" height="6"/></g>
<g transform="translate(726,506) scale(3.6666666666667)"><rect width="6" height="6"/></g>
<g transform="translate(748,506) scale(3.6666666666667)"><rect width="6" height="6"/></g>
<g transform="translate(770,506) scale(3.6666666666667)"><rect width="6" height="6"/></g>
<g transform="translate(792,506) scale(3.6666666666667)"><rect width="6" height="6"/></g>
<g transform="translate(836,506) scale(3.6666666666667)"><rect width="6" height="6"/></g>
<g transform="translate(880,506) scale(3.6666666666667)"><rect width="6" height="6"/></g>
<g transform="translate(902,506) scale(3.6666666666667)"><rect width="6" height="6"/></g>
<g transform="translate(924,506) scale(3.6666666666667)"><rect width="6" height="6"/></g>
<g transform="translate(44,528) scale(3.6666666666667)"><rect width="6" height="6"/></g>
<g transform="translate(66,528) scale(3.6666666666667)"><rect width="6" height="6"/></g>
<g transform="translate(88,528) scale(3.6666666666667)"><rect width="6" height="6"/></g>
<g transform="translate(132,528) scale(3.6666666666667)"><rect width="6" height="6"/></g>
<g transform="translate(154,528) scale(3.6666666666667)"><rect width="6" height="6"/></g>
<g transform="translate(176,528) scale(3.6666666666667)"><rect width="6" height="6"/></g>
<g transform="translate(220,528) scale(3.6666666666667)"><rect width="6" height="6"/></g>
<g transform="translate(242,528) scale(3.6666666666667)"><rect width="6" height="6"/></g>
<g transform="translate(264,528) scale(3.6666666666667)"><rect width="6" height="6"/></g>
<g transform="translate(286,528) scale(3.6666666666667)"><rect width="6" height="6"/></g>
<g transform="translate(374,528) scale(3.6666666666667)"><rect width="6" height="6"/></g>
<g transform="translate(440,528) scale(3.6666666666667)"><rect width="6" height="6"/></g>
<g transform="translate(462,528) scale(3.6666666666667)"><rect width="6" height="6"/></g>
<g transform="translate(506,528) scale(3.6666666666667)"><rect width="6" height="6"/></g>
<g transform="translate(528,528) scale(3.6666666666667)"><rect width="6" height="6"/></g>
<g transform="translate(550,528) scale(3.6666666666667)"><rect width="6" height="6"/></g>
<g transform="translate(572,528) scale(3.6666666666667)"><rect width="6" height="6"/></g>
<g transform="translate(594,528) scale(3.6666666666667)"><rect width="6" height="6"/></g>
<g transform="translate(616,528) scale(3.6666666666667)"><rect width="6" height="6"/></g>
<g transform="translate(638,528) scale(3.6666666666667)"><rect width="6" height="6"/></g>
<g transform="translate(682,528) scale(3.6666666666667)"><rect width="6" height="6"/></g>
<g transform="translate(748,528) scale(3.6666666666667)"><rect width="6" height="6"/></g>
<g transform="translate(814,528) scale(3.6666666666667)"><rect width="6" height="6"/></g>
<g transform="translate(836,528) scale(3.6666666666667)"><rect width="6" height="6"/></g>
<g transform="translate(858,528) scale(3.6666666666667)"><rect width="6" height="6"/></g>
<g transform="translate(88,550) scale(3.6666666666667)"><rect width="6" height="6"/></g>
<g transform="translate(198,550) scale(3.6666666666667)"><rect width="6" height="6"/></g>
<g transform="translate(264,550) scale(3.6666666666667)"><rect width="6" height="6"/></g>
<g transform="translate(286,550) scale(3.6666666666667)"><rect width="6" height="6"/></g>
<g transform="translate(330,550) scale(3.6666666666667)"><rect width="6" height="6"/></g>
<g transform="translate(374,550) scale(3.6666666666667)"><rect width="6" height="6"/></g>
<g transform="translate(418,550) scale(3.6666666666667)"><rect width="6" height="6"/></g>
<g transform="translate(506,550) scale(3.6666666666667)"><rect width="6" height="6"/></g>
<g transform="translate(528,550) scale(3.6666666666667)"><rect width="6" height="6"/></g>
<g transform="translate(550,550) scale(3.6666666666667)"><rect width="6" height="6"/></g>
<g transform="translate(616,550) scale(3.6666666666667)"><rect width="6" height="6"/></g>
<g transform="translate(660,550) scale(3.6666666666667)"><rect width="6" height="6"/></g>
<g transform="translate(726,550) scale(3.6666666666667)"><rect width="6" height="6"/></g>
<g transform="translate(836,550) scale(3.6666666666667)"><rect width="6" height="6"/></g>
<g transform="translate(858,550) scale(3.6666666666667)"><rect width="6" height="6"/></g>
<g transform="translate(902,550) scale(3.6666666666667)"><rect width="6" height="6"/></g>
<g transform="translate(66,572) scale(3.6666666666667)"><rect width="6" height="6"/></g>
<g transform="translate(176,572) scale(3.6666666666667)"><rect width="6" height="6"/></g>
<g transform="translate(220,572) scale(3.6666666666667)"><rect width="6" height="6"/></g>
<g transform="translate(242,572) scale(3.6666666666667)"><rect width="6" height="6"/></g>
<g transform="translate(264,572) scale(3.6666666666667)"><rect width="6" height="6"/></g>
<g transform="translate(286,572) scale(3.6666666666667)"><rect width="6" height="6"/></g>
<g transform="translate(396,572) scale(3.6666666666667)"><rect width="6" height="6"/></g>
<g transform="translate(462,572) scale(3.6666666666667)"><rect width="6" height="6"/></g>
<g transform="translate(506,572) scale(3.6666666666667)"><rect width="6" height="6"/></g>
<g transform="translate(528,572) scale(3.6666666666667)"><rect width="6" height="6"/></g>
<g transform="translate(572,572) scale(3.6666666666667)"><rect width="6" height="6"/></g>
<g transform="translate(594,572) scale(3.6666666666667)"><rect width="6" height="6"/></g>
<g transform="translate(616,572) scale(3.6666666666667)"><rect width="6" height="6"/></g>
<g transform="translate(682,572) scale(3.6666666666667)"><rect width="6" height="6"/></g>
<g transform="translate(880,572) scale(3.6666666666667)"><rect width="6" height="6"/></g>
<g transform="translate(902,572) scale(3.6666666666667)"><rect width="6" height="6"/></g>
<g transform="translate(44,594) scale(3.6666666666667)"><rect width="6" height="6"/></g>
<g transform="translate(88,594) scale(3.6666666666667)"><rect width="6" height="6"/></g>
<g transform="translate(154,594) scale(3.6666666666667)"><rect width="6" height="6"/></g>
<g transform="translate(242,594) scale(3.6666666666667)"><rect width="6" height="6"/></g>
<g transform="translate(286,594) scale(3.6666666666667)"><rect width="6" height="6"/></g>
<g transform="translate(308,594) scale(3.6666666666667)"><rect width="6" height="6"/></g>
<g transform="translate(330,594) scale(3.6666666666667)"><rect width="6" height="6"/></g>
<g transform="translate(352,594) scale(3.6666666666667)"><rect width="6" height="6"/></g>
<g transform="translate(418,594) scale(3.6666666666667)"><rect width="6" height="6"/></g>
<g transform="translate(440,594) scale(3.6666666666667)"><rect width="6" height="6"/></g>
<g transform="translate(462,594) scale(3.6666666666667)"><rect width="6" height="6"/></g>
<g transform="translate(528,594) scale(3.6666666666667)"><rect width="6" height="6"/></g>
<g transform="translate(550,594) scale(3.6666666666667)"><rect width="6" height="6"/></g>
<g transform="translate(594,594) scale(3.6666666666667)"><rect width="6" height="6"/></g>
<g transform="translate(660,594) scale(3.6666666666667)"><rect width="6" height="6"/></g>
<g transform="translate(682,594) scale(3.6666666666667)"><rect width="6" height="6"/></g>
<g transform="translate(726,594) scale(3.6666666666667)"><rect width="6" height="6"/></g>
<g transform="translate(792,594) scale(3.6666666666667)"><rect width="6" height="6"/></g>
<g transform="translate(814,594) scale(3.6666666666667)"><rect width="6" height="6"/></g>
<g transform="translate(836,594) scale(3.6666666666667)"><rect width="6" height="6"/></g>
<g transform="translate(858,594) scale(3.6666666666667)"><rect width="6" height="6"/></g>
<g transform="translate(902,594) scale(3.6666666666667)"><rect width="6" height="6"/></g>
<g transform="translate(924,594) scale(3.6666666666667)"><rect width="6" height="6"/></g>
<g transform="translate(110,616) scale(3.6666666666667)"><rect width="6" height="6"/></g>
<g transform="translate(176,616) scale(3.6666666666667)"><rect width="6" height="6"/></g>
<g transform="translate(198,616) scale(3.6666666666667)"><rect width="6" height="6"/></g>
<g transform="translate(242,616) scale(3.6666666666667)"><rect width="6" height="6"/></g>
<g transform="translate(352,616) scale(3.6666666666667)"><rect width="6" height="6"/></g>
<g transform="translate(484,616) scale(3.6666666666667)"><rect width="6" height="6"/></g>
<g transform="translate(594,616) scale(3.6666666666667)"><rect width="6" height="6"/></g>
<g transform="translate(616,616) scale(3.6666666666667)"><rect width="6" height="6"/></g>
<g transform="translate(638,616) scale(3.6666666666667)"><rect width="6" height="6"/></g>
<g transform="translate(682,616) scale(3.6666666666667)"><rect width="6" height="6"/></g>
<g transform="translate(748,616) scale(3.6666666666667)"><rect width="6" height="6"/></g>
<g transform="translate(792,616) scale(3.6666666666667)"><rect width="6" height="6"/></g>
<g transform="translate(814,616) scale(3.6666666666667)"><rect width="6" height="6"/></g>
<g transform="translate(44,638) scale(3.6666666666667)"><rect width="6" height="6"/></g>
<g transform="translate(66,638) scale(3.6666666666667)"><rect width="6" height="6"/></g>
<g transform="translate(110,638) scale(3.6666666666667)"><rect width="6" height="6"/></g>
<g transform="translate(132,638) scale(3.6666666666667)"><rect width="6" height="6"/></g>
<g transform="translate(154,638) scale(3.6666666666667)"><rect width="6" height="6"/></g>
<g transform="translate(198,638) scale(3.6666666666667)"><rect width="6" height="6"/></g>
<g transform="translate(264,638) scale(3.6666666666667)"><rect width="6" height="6"/></g>
<g transform="translate(308,638) scale(3.6666666666667)"><rect width="6" height="6"/></g>
<g transform="translate(374,638) scale(3.6666666666667)"><rect width="6" height="6"/></g>
<g transform="translate(396,638) scale(3.6666666666667)"><rect width="6" height="6"/></g>
<g transform="translate(418,638) scale(3.6666666666667)"><rect width="6" height="6"/></g>
<g transform="translate(440,638) scale(3.6666666666667)"><rect width="6" height="6"/></g>
<g transform="translate(594,638) scale(3.6666666666667)"><rect width="6" height="6"/></g>
<g transform="translate(660,638) scale(3.6666666666667)"><rect width="6" height="6"/></g>
<g transform="translate(726,638) scale(3.6666666666667)"><rect width="6" height="6"/></g>
<g transform="translate(748,638) scale(3.6666666666667)"><rect width="6" height="6"/></g>
<g transform="translate(836,638) scale(3.6666666666667)"><rect width="6" height="6"/></g>
<g transform="translate(858,638) scale(3.6666666666667)"><rect width="6" height="6"/></g>
<g transform="translate(44,660) scale(3.6666666666667)"><rect width="6" height="6"/></g>
<g transform="translate(88,660) scale(3.6666666666667)"><rect width="6" height="6"/></g>
<g transform="translate(110,660) scale(3.6666666666667)"><rect width="6" height="6"/></g>
<g transform="translate(176,660) scale(3.6666666666667)"><rect width="6" height="6"/></g>
<g transform="translate(198,660) scale(3.6666666666667)"><rect width="6" height="6"/></g>
<g transform="translate(220,660) scale(3.6666666666667)"><rect width="6" height="6"/></g>
<g transform="translate(242,660) scale(3.6666666666667)"><rect width="6" height="6"/></g>
<g transform="translate(264,660) scale(3.6666666666667)"><rect width="6" height="6"/></g>
<g transform="translate(286,660) scale(3.6666666666667)"><rect width="6" height="6"/></g>
<g transform="translate(330,660) scale(3.6666666666667)"><rect width="6" height="6"/></g>
<g transform="translate(374,660) scale(3.6666666666667)"><rect width="6" height="6"/></g>
<g transform="translate(396,660) scale(3.6666666666667)"><rect width="6" height="6"/></g>
<g transform="translate(418,660) scale(3.6666666666667)"><rect width="6" height="6"/></g>
<g transform="translate(440,660) scale(3.6666666666667)"><rect width="6" height="6"/></g>
<g transform="translate(550,660) scale(3.6666666666667)"><rect width="6" height="6"/></g>
<g transform="translate(572,660) scale(3.6666666666667)"><rect width="6" height="6"/></g>
<g transform="translate(594,660) scale(3.6666666666667)"><rect width="6" height="6"/></g>
<g transform="translate(682,660) scale(3.6666666666667)"><rect width="6" height="6"/></g>
<g transform="translate(726,660) scale(3.6666666666667)"><rect width="6" height="6"/></g>
<g transform="translate(770,660) scale(3.6666666666667)"><rect width="6" height="6"/></g>
<g transform="translate(858,660) scale(3.6666666666667)"><rect width="6" height="6"/></g>
<g transform="translate(880,660) scale(3.6666666666667)"><rect width="6" height="6"/></g>
<g transform="translate(924,660) scale(3.6666666666667)"><rect width="6" height="6"/></g>
<g transform="translate(44,682) scale(3.6666666666667)"><rect width="6" height="6"/></g>
<g transform="translate(66,682) scale(3.6666666666667)"><rect width="6" height="6"/></g>
<g transform="translate(88,682) scale(3.6666666666667)"><rect width="6" height="6"/></g>
<g transform="translate(154,682) scale(3.6666666666667)"><rect width="6" height="6"/></g>
<g transform="translate(198,682) scale(3.6666666666667)"><rect width="6" height="6"/></g>
<g transform="translate(242,682) scale(3.6666666666667)"><rect width="6" height="6"/></g>
<g transform="translate(264,682) scale(3.6666666666667)"><rect width="6" height="6"/></g>
<g transform="translate(308,682) scale(3.6666666666667)"><rect width="6" height="6"/></g>
<g transform="translate(330,682) scale(3.6666666666667)"><rect width="6" height="6"/></g>
<g transform="translate(396,682) scale(3.6666666666667)"><rect width="6" height="6"/></g>
<g transform="translate(418,682) scale(3.6666666666667)"><rect width="6" height="6"/></g>
<g transform="translate(440,682) scale(3.6666666666667)"><rect width="6" height="6"/></g>
<g transform="translate(462,682) scale(3.6666666666667)"><rect width="6" height="6"/></g>
<g transform="translate(484,682) scale(3.6666666666667)"><rect width="6" height="6"/></g>
<g transform="translate(528,682) scale(3.6666666666667)"><rect width="6" height="6"/></g>
<g transform="translate(550,682) scale(3.6666666666667)"><rect width="6" height="6"/></g>
<g transform="translate(572,682) scale(3.6666666666667)"><rect width="6" height="6"/></g>
<g transform="translate(616,682) scale(3.6666666666667)"><rect width="6" height="6"/></g>
<g transform="translate(638,682) scale(3.6666666666667)"><rect width="6" height="6"/></g>
<g transform="translate(682,682) scale(3.6666666666667)"><rect width="6" height="6"/></g>
<g transform="translate(704,682) scale(3.6666666666667)"><rect width="6" height="6"/></g>
<g transform="translate(770,682) scale(3.6666666666667)"><rect width="6" height="6"/></g>
<g transform="translate(792,682) scale(3.6666666666667)"><rect width="6" height="6"/></g>
<g transform="translate(814,682) scale(3.6666666666667)"><rect width="6" height="6"/></g>
<g transform="translate(836,682) scale(3.6666666666667)"><rect width="6" height="6"/></g>
<g transform="translate(858,682) scale(3.6666666666667)"><rect width="6" height="6"/></g>
<g transform="translate(902,682) scale(3.6666666666667)"><rect width="6" height="6"/></g>
<g transform="translate(924,682) scale(3.6666666666667)"><rect width="6" height="6"/></g>
<g transform="translate(44,704) scale(3.6666666666667)"><rect width="6" height="6"/></g>
<g transform="translate(110,704) scale(3.6666666666667)"><rect width="6" height="6"/></g>
<g transform="translate(176,704) scale(3.6666666666667)"><rect width="6" height="6"/></g>
<g transform="translate(198,704) scale(3.6666666666667)"><rect width="6" height="6"/></g>
<g transform="translate(242,704) scale(3.6666666666667)"><rect width="6" height="6"/></g>
<g transform="translate(264,704) scale(3.6666666666667)"><rect width="6" height="6"/></g>
<g transform="translate(286,704) scale(3.6666666666667)"><rect width="6" height="6"/></g>
<g transform="translate(308,704) scale(3.6666666666667)"><rect width="6" height="6"/></g>
<g transform="translate(330,704) scale(3.6666666666667)"><rect width="6" height="6"/></g>
<g transform="translate(352,704) scale(3.6666666666667)"><rect width="6" height="6"/></g>
<g transform="translate(396,704) scale(3.6666666666667)"><rect width="6" height="6"/></g>
<g transform="translate(440,704) scale(3.6666666666667)"><rect width="6" height="6"/></g>
<g transform="translate(550,704) scale(3.6666666666667)"><rect width="6" height="6"/></g>
<g transform="translate(638,704) scale(3.6666666666667)"><rect width="6" height="6"/></g>
<g transform="translate(682,704) scale(3.6666666666667)"><rect width="6" height="6"/></g>
<g transform="translate(770,704) scale(3.6666666666667)"><rect width="6" height="6"/></g>
<g transform="translate(792,704) scale(3.6666666666667)"><rect width="6" height="6"/></g>
<g transform="translate(836,704) scale(3.6666666666667)"><rect width="6" height="6"/></g>
<g transform="translate(858,704) scale(3.6666666666667)"><rect width="6" height="6"/></g>
<g transform="translate(44,726) scale(3.6666666666667)"><rect width="6" height="6"/></g>
<g transform="translate(220,726) scale(3.6666666666667)"><rect width="6" height="6"/></g>
<g transform="translate(264,726) scale(3.6666666666667)"><rect width="6" height="6"/></g>
<g transform="translate(286,726) scale(3.6666666666667)"><rect width="6" height="6"/></g>
<g transform="translate(330,726) scale(3.6666666666667)"><rect width="6" height="6"/></g>
<g transform="translate(374,726) scale(3.6666666666667)"><rect width="6" height="6"/></g>
<g transform="translate(396,726) scale(3.6666666666667)"><rect width="6" height="6"/></g>
<g transform="translate(440,726) scale(3.6666666666667)"><rect width="6" height="6"/></g>
<g transform="translate(484,726) scale(3.6666666666667)"><rect width="6" height="6"/></g>
<g transform="translate(506,726) scale(3.6666666666667)"><rect width="6" height="6"/></g>
<g transform="translate(528,726) scale(3.6666666666667)"><rect width="6" height="6"/></g>
<g transform="translate(572,726) scale(3.6666666666667)"><rect width="6" height="6"/></g>
<g transform="translate(594,726) scale(3.6666666666667)"><rect width="6" height="6"/></g>
<g transform="translate(616,726) scale(3.6666666666667)"><rect width="6" height="6"/></g>
<g transform="translate(638,726) scale(3.6666666666667)"><rect width="6" height="6"/></g>
<g transform="translate(704,726) scale(3.6666666666667)"><rect width="6" height="6"/></g>
<g transform="translate(726,726) scale(3.6666666666667)"><rect width="6" height="6"/></g>
<g transform="translate(770,726) scale(3.6666666666667)"><rect width="6" height="6"/></g>
<g transform="translate(792,726) scale(3.6666666666667)"><rect width="6" height="6"/></g>
<g transform="translate(814,726) scale(3.6666666666667)"><rect width="6" height="6"/></g>
<g transform="translate(836,726) scale(3.6666666666667)"><rect width="6" height="6"/></g>
<g transform="translate(858,726) scale(3.6666666666667)"><rect width="6" height="6"/></g>
<g transform="translate(902,726) scale(3.6666666666667)"><rect width="6" height="6"/></g>
<g transform="translate(924,726) scale(3.6666666666667)"><rect width="6" height="6"/></g>
<g transform="translate(44,748) scale(3.6666666666667)"><rect width="6" height="6"/></g>
<g transform="translate(88,748) scale(3.6666666666667)"><rect width="6" height="6"/></g>
<g transform="translate(110,748) scale(3.6666666666667)"><rect width="6" height="6"/></g>
<g transform="translate(176,748) scale(3.6666666666667)"><rect width="6" height="6"/></g>
<g transform="translate(242,748) scale(3.6666666666667)"><rect width="6" height="6"/></g>
<g transform="translate(264,748) scale(3.6666666666667)"><rect width="6" height="6"/></g>
<g transform="translate(286,748) scale(3.6666666666667)"><rect width="6" height="6"/></g>
<g transform="translate(308,748) scale(3.6666666666667)"><rect width="6" height="6"/></g>
<g transform="translate(440,748) scale(3.6666666666667)"><rect width="6" height="6"/></g>
<g transform="translate(462,748) scale(3.6666666666667)"><rect width="6" height="6"/></g>
<g transform="translate(528,748) scale(3.6666666666667)"><rect width="6" height="6"/></g>
<g transform="translate(572,748) scale(3.6666666666667)"><rect width="6" height="6"/></g>
<g transform="translate(638,748) scale(3.6666666666667)"><rect width="6" height="6"/></g>
<g transform="translate(682,748) scale(3.6666666666667)"><rect width="6" height="6"/></g>
<g transform="translate(748,748) scale(3.6666666666667)"><rect width="6" height="6"/></g>
<g transform="translate(770,748) scale(3.6666666666667)"><rect width="6" height="6"/></g>
<g transform="translate(792,748) scale(3.6666666666667)"><rect width="6" height="6"/></g>
<g transform="translate(814,748) scale(3.6666666666667)"><rect width="6" height="6"/></g>
<g transform="translate(836,748) scale(3.6666666666667)"><rect width="6" height="6"/></g>
<g transform="translate(880,748) scale(3.6666666666667)"><rect width="6" height="6"/></g>
<g transform="translate(220,770) scale(3.6666666666667)"><rect width="6" height="6"/></g>
<g transform="translate(242,770) scale(3.6666666666667)"><rect width="6" height="6"/></g>
<g transform="translate(264,770) scale(3.6666666666667)"><rect width="6" height="6"/></g>
<g transform="translate(286,770) scale(3.6666666666667)"><rect width="6" height="6"/></g>
<g transform="translate(308,770) scale(3.6666666666667)"><rect width="6" height="6"/></g>
<g transform="translate(330,770) scale(3.6666666666667)"><rect width="6" height="6"/></g>
<g transform="translate(352,770) scale(3.6666666666667)"><rect width="6" height="6"/></g>
<g transform="translate(374,770) scale(3.6666666666667)"><rect width="6" height="6"/></g>
<g transform="translate(396,770) scale(3.6666666666667)"><rect width="6" height="6"/></g>
<g transform="translate(418,770) scale(3.6666666666667)"><rect width="6" height="6"/></g>
<g transform="translate(484,770) scale(3.6666666666667)"><rect width="6" height="6"/></g>
<g transform="translate(550,770) scale(3.6666666666667)"><rect width="6" height="6"/></g>
<g transform="translate(572,770) scale(3.6666666666667)"><rect width="6" height="6"/></g>
<g transform="translate(616,770) scale(3.6666666666667)"><rect width="6" height="6"/></g>
<g transform="translate(660,770) scale(3.6666666666667)"><rect width="6" height="6"/></g>
<g transform="translate(704,770) scale(3.6666666666667)"><rect width="6" height="6"/></g>
<g transform="translate(748,770) scale(3.6666666666667)"><rect width="6" height="6"/></g>
<g transform="translate(836,770) scale(3.6666666666667)"><rect width="6" height="6"/></g>
<g transform="translate(880,770) scale(3.6666666666667)"><rect width="6" height="6"/></g>
<g transform="translate(902,770) scale(3.6666666666667)"><rect width="6" height="6"/></g>
<g transform="translate(924,770) scale(3.6666666666667)"><rect width="6" height="6"/></g>
<g transform="translate(242,792) scale(3.6666666666667)"><rect width="6" height="6"/></g>
<g transform="translate(264,792) scale(3.6666666666667)"><rect width="6" height="6"/></g>
<g transform="translate(286,792) scale(3.6666666666667)"><rect width="6" height="6"/></g>
<g transform="translate(352,792) scale(3.6666666666667)"><rect width="6" height="6"/></g>
<g transform="translate(396,792) scale(3.6666666666667)"><rect width="6" height="6"/></g>
<g transform="translate(506,792) scale(3.6666666666667)"><rect width="6" height="6"/></g>
<g transform="translate(528,792) scale(3.6666666666667)"><rect width="6" height="6"/></g>
<g transform="translate(550,792) scale(3.6666666666667)"><rect width="6" height="6"/></g>
<g transform="translate(638,792) scale(3.6666666666667)"><rect width="6" height="6"/></g>
<g transform="translate(726,792) scale(3.6666666666667)"><rect width="6" height="6"/></g>
<g transform="translate(748,792) scale(3.6666666666667)"><rect width="6" height="6"/></g>
<g transform="translate(792,792) scale(3.6666666666667)"><rect width="6" height="6"/></g>
<g transform="translate(836,792) scale(3.6666666666667)"><rect width="6" height="6"/></g>
<g transform="translate(858,792) scale(3.6666666666667)"><rect width="6" height="6"/></g>
<g transform="translate(242,814) scale(3.6666666666667)"><rect width="6" height="6"/></g>
<g transform="translate(308,814) scale(3.6666666666667)"><rect width="6" height="6"/></g>
<g transform="translate(330,814) scale(3.6666666666667)"><rect width="6" height="6"/></g>
<g transform="translate(352,814) scale(3.6666666666667)"><rect width="6" height="6"/></g>
<g transform="translate(396,814) scale(3.6666666666667)"><rect width="6" height="6"/></g>
<g transform="translate(418,814) scale(3.6666666666667)"><rect width="6" height="6"/></g>
<g transform="translate(528,814) scale(3.6666666666667)"><rect width="6" height="6"/></g>
<g transform="translate(594,814) scale(3.6666666666667)"><rect width="6" height="6"/></g>
<g transform="translate(638,814) scale(3.6666666666667)"><rect width="6" height="6"/></g>
<g transform="translate(660,814) scale(3.6666666666667)"><rect width="6" height="6"/></g>
<g transform="translate(682,814) scale(3.6666666666667)"><rect width="6" height="6"/></g>
<g transform="translate(704,814) scale(3.6666666666667)"><rect width="6" height="6"/></g>
<g transform="translate(748,814) scale(3.6666666666667)"><rect width="6" height="6"/></g>
<g transform="translate(836,814) scale(3.6666666666667)"><rect width="6" height="6"/></g>
<g transform="translate(858,814) scale(3.6666666666667)"><rect width="6" height="6"/></g>
<g transform="translate(220,836) scale(3.6666666666667)"><rect width="6" height="6"/></g>
<g transform="translate(242,836) scale(3.6666666666667)"><rect width="6" height="6"/></g>
<g transform="translate(264,836) scale(3.6666666666667)"><rect width="6" height="6"/></g>
<g transform="translate(286,836) scale(3.6666666666667)"><rect width="6" height="6"/></g>
<g transform="translate(330,836) scale(3.6666666666667)"><rect width="6" height="6"/></g>
<g transform="translate(352,836) scale(3.6666666666667)"><rect width="6" height="6"/></g>
<g transform="translate(374,836) scale(3.6666666666667)"><rect width="6" height="6"/></g>
<g transform="translate(396,836) scale(3.6666666666667)"><rect width="6" height="6"/></g>
<g transform="translate(506,836) scale(3.6666666666667)"><rect width="6" height="6"/></g>
<g transform="translate(528,836) scale(3.6666666666667)"><rect width="6" height="6"/></g>
<g transform="translate(594,836) scale(3.6666666666667)"><rect width="6" height="6"/></g>
<g transform="translate(616,836) scale(3.6666666666667)"><rect width="6" height="6"/></g>
<g transform="translate(638,836) scale(3.6666666666667)"><rect width="6" height="6"/></g>
<g transform="translate(704,836) scale(3.6666666666667)"><rect width="6" height="6"/></g>
<g transform="translate(748,836) scale(3.6666666666667)"><rect width="6" height="6"/></g>
<g transform="translate(770,836) scale(3.6666666666667)"><rect width="6" height="6"/></g>
<g transform="translate(792,836) scale(3.6666666666667)"><rect width="6" height="6"/></g>
<g transform="translate(814,836) scale(3.6666666666667)"><rect width="6" height="6"/></g>
<g transform="translate(836,836) scale(3.6666666666667)"><rect width="6" height="6"/></g>
<g transform="translate(880,836) scale(3.6666666666667)"><rect width="6" height="6"/></g>
<g transform="translate(902,836) scale(3.6666666666667)"><rect width="6" height="6"/></g>
<g transform="translate(924,836) scale(3.6666666666667)"><rect width="6" height="6"/></g>
<g transform="translate(220,858) scale(3.6666666666667)"><rect width="6" height="6"/></g>
<g transform="translate(242,858) scale(3.6666666666667)"><rect width="6" height="6"/></g>
<g transform="translate(264,858) scale(3.6666666666667)"><rect width="6" height="6"/></g>
<g transform="translate(308,858) scale(3.6666666666667)"><rect width="6" height="6"/></g>
<g transform="translate(374,858) scale(3.6666666666667)"><rect width="6" height="6"/></g>
<g transform="translate(484,858) scale(3.6666666666667)"><rect width="6" height="6"/></g>
<g transform="translate(506,858) scale(3.6666666666667)"><rect width="6" height="6"/></g>
<g transform="translate(528,858) scale(3.6666666666667)"><rect width="6" height="6"/></g>
<g transform="translate(550,858) scale(3.6666666666667)"><rect width="6" height="6"/></g>
<g transform="translate(616,858) scale(3.6666666666667)"><rect width="6" height="6"/></g>
<g transform="translate(660,858) scale(3.6666666666667)"><rect width="6" height="6"/></g>
<g transform="translate(704,858) scale(3.6666666666667)"><rect width="6" height="6"/></g>
<g transform="translate(726,858) scale(3.6666666666667)"><rect width="6" height="6"/></g>
<g transform="translate(748,858) scale(3.6666666666667)"><rect width="6" height="6"/></g>
<g transform="translate(770,858) scale(3.6666666666667)"><rect width="6" height="6"/></g>
<g transform="translate(814,858) scale(3.6666666666667)"><rect width="6" height="6"/></g>
<g transform="translate(858,858) scale(3.6666666666667)"><rect width="6" height="6"/></g>
<g transform="translate(880,858) scale(3.6666666666667)"><rect width="6" height="6"/></g>
<g transform="translate(924,858) scale(3.6666666666667)"><rect width="6" height="6"/></g>
<g transform="translate(220,880) scale(3.6666666666667)"><rect width="6" height="6"/></g>
<g transform="translate(242,880) scale(3.6666666666667)"><rect width="6" height="6"/></g>
<g transform="translate(264,880) scale(3.6666666666667)"><rect width="6" height="6"/></g>
<g transform="translate(330,880) scale(3.6666666666667)"><rect width="6" height="6"/></g>
<g transform="translate(352,880) scale(3.6666666666667)"><rect width="6" height="6"/></g>
<g transform="translate(396,880) scale(3.6666666666667)"><rect width="6" height="6"/></g>
<g transform="translate(418,880) scale(3.6666666666667)"><rect width="6" height="6"/></g>
<g transform="translate(462,880) scale(3.6666666666667)"><rect width="6" height="6"/></g>
<g transform="translate(550,880) scale(3.6666666666667)"><rect width="6" height="6"/></g>
<g transform="translate(572,880) scale(3.6666666666667)"><rect width="6" height="6"/></g>
<g transform="translate(594,880) scale(3.6666666666667)"><rect width="6" height="6"/></g>
<g transform="translate(616,880) scale(3.6666666666667)"><rect width="6" height="6"/></g>
<g transform="translate(638,880) scale(3.6666666666667)"><rect width="6" height="6"/></g>
<g transform="translate(660,880) scale(3.6666666666667)"><rect width="6" height="6"/></g>
<g transform="translate(682,880) scale(3.6666666666667)"><rect width="6" height="6"/></g>
<g transform="translate(770,880) scale(3.6666666666667)"><rect width="6" height="6"/></g>
<g transform="translate(792,880) scale(3.6666666666667)"><rect width="6" height="6"/></g>
<g transform="translate(814,880) scale(3.6666666666667)"><rect width="6" height="6"/></g>
<g transform="translate(836,880) scale(3.6666666666667)"><rect width="6" height="6"/></g>
<g transform="translate(858,880) scale(3.6666666666667)"><rect width="6" height="6"/></g>
<g transform="translate(902,880) scale(3.6666666666667)"><rect width="6" height="6"/></g>
<g transform="translate(242,902) scale(3.6666666666667)"><rect width="6" height="6"/></g>
<g transform="translate(308,902) scale(3.6666666666667)"><rect width="6" height="6"/></g>
<g transform="translate(330,902) scale(3.6666666666667)"><rect width="6" height="6"/></g>
<g transform="translate(352,902) scale(3.6666666666667)"><rect width="6" height="6"/></g>
<g transform="translate(374,902) scale(3.6666666666667)"><rect width="6" height="6"/></g>
<g transform="translate(396,902) scale(3.6666666666667)"><rect width="6" height="6"/></g>
<g transform="translate(418,902) scale(3.6666666666667)"><rect width="6" height="6"/></g>
<g transform="translate(550,902) scale(3.6666666666667)"><rect width="6" height="6"/></g>
<g transform="translate(572,902) scale(3.6666666666667)"><rect width="6" height="6"/></g>
<g transform="translate(616,902) scale(3.6666666666667)"><rect width="6" height="6"/></g>
<g transform="translate(638,902) scale(3.6666666666667)"><rect width="6" height="6"/></g>
<g transform="translate(748,902) scale(3.6666666666667)"><rect width="6" height="6"/></g>
<g transform="translate(792,902) scale(3.6666666666667)"><rect width="6" height="6"/></g>
<g transform="translate(836,902) scale(3.6666666666667)"><rect width="6" height="6"/></g>
<g transform="translate(858,902) scale(3.6666666666667)"><rect width="6" height="6"/></g>
<g transform="translate(902,902) scale(3.6666666666667)"><rect width="6" height="6"/></g>
<g transform="translate(242,924) scale(3.6666666666667)"><rect width="6" height="6"/></g>
<g transform="translate(264,924) scale(3.6666666666667)"><rect width="6" height="6"/></g>
<g transform="translate(286,924) scale(3.6666666666667)"><rect width="6" height="6"/></g>
<g transform="translate(330,924) scale(3.6666666666667)"><rect width="6" height="6"/></g>
<g transform="translate(352,924) scale(3.6666666666667)"><rect width="6" height="6"/></g>
<g transform="translate(374,924) scale(3.6666666666667)"><rect width="6" height="6"/></g>
<g transform="translate(418,924) scale(3.6666666666667)"><rect width="6" height="6"/></g>
<g transform="translate(440,924) scale(3.6666666666667)"><rect width="6" height="6"/></g>
<g transform="translate(484,924) scale(3.6666666666667)"><rect width="6" height="6"/></g>
<g transform="translate(506,924) scale(3.6666666666667)"><rect width="6" height="6"/></g>
<g transform="translate(528,924) scale(3.6666666666667)"><rect width="6" height="6"/></g>
<g transform="translate(550,924) scale(3.6666666666667)"><rect width="6" height="6"/></g>
<g transform="translate(594,924) scale(3.6666666666667)"><rect width="6" height="6"/></g>
<g transform="translate(682,924) scale(3.6666666666667)"><rect width="6" height="6"/></g>
<g transform="translate(704,924) scale(3.6666666666667)"><rect width="6" height="6"/></g>
<g transform="translate(726,924) scale(3.6666666666667)"><rect width="6" height="6"/></g>
<g transform="translate(770,924) scale(3.6666666666667)"><rect width="6" height="6"/></g>
<g transform="translate(792,924) scale(3.6666666666667)"><rect width="6" height="6"/></g>
<g transform="translate(814,924) scale(3.6666666666667)"><rect width="6" height="6"/></g>
<g transform="translate(836,924) scale(3.6666666666667)"><rect width="6" height="6"/></g>
<g transform="translate(880,924) scale(3.6666666666667)"><rect width="6" height="6"/></g>
</g></mask></defs>
<rect x="0" y="0" width="990" height="990" mask="url(#qrmask)" fill="#000000" />
<g transform="translate(44,44)"  fill="#000000"><g transform="scale(11)"><path d="M0.2,0.1L0.1,0.6l0.1,0.5L0.2,1.6L0.1,2.1l0.1,0.5L0,3.1l0,0.5L0,4l0.1,0.5l0,0.5l0.1,0.5L0.1,6l0,0.5l0,0.5 l0.2,0.5L0.1,8l0.1,0.5L0,8.9l0.2,0.5L0,9.9l0.2,0.5l-0.1,0.5l0,0.5L0,11.9l0.2,0.5l-0.1,0.5l0.1,0.5l0,0.4L0.6,14l0.5,0l0.5-0.1 l0.5,0.1l0.5,0.1L3.1,14l0.5-0.1l0.5-0.1l0.5,0L5,13.9l0.5-0.1l0.5,0l0.5,0L7,13.9L7.5,14L8,14l0.5-0.2L9,13.9L9.4,14l0.5-0.2 l0.5,0.2l0.5-0.1l0.5,0l0.5-0.1l0.5,0l0.5,0l0.5,0l0.5,0.1l-0.1-0.5l0.2-0.5l-0.1-0.5l-0.1-0.5l0.2-0.5l-0.2-0.5l0.1-0.5L14,9.9 l-0.2-0.5L13.9,9L14,8.5L14,8l-0.2-0.5l0-0.5l0.1-0.5L13.8,6l0-0.5L14,5l0-0.5l-0.1-0.5l0.1-0.5l-0.2-0.5l0.1-0.5l0-0.5l0-0.5 l-0.1-0.5L14,0.6l-0.2-0.4l-0.4,0l-0.5,0L12.4,0l-0.5,0.2l-0.5,0l-0.5-0.1l-0.5,0L10,0l-0.5,0L9,0L8.5,0.2L8,0.2L7.5,0.1L7,0.1 L6.5,0.2L6,0L5.5,0.2L5.1,0.2L4.6,0.1L4.1,0.1L3.6,0L3.1,0.1L2.6,0L2.1,0.1l-0.5,0l-0.5,0L0.6,0.2L0.2,0.1z M11.9,11.9l-0.5-0.1 L10.9,12l-0.5-0.1L10,11.9l-0.5,0.1L9,11.8l-0.5,0l-0.5,0l-0.5,0.1l-0.5,0L6.5,12L6,11.9l-0.5,0l-0.5,0L4.6,12l-0.5-0.2L3.6,12 l-0.5-0.1L2.6,12l-0.4-0.1L2,11.4l0.1-0.5l0-0.5l0.1-0.5L2,9.5L2.1,9L2,8.5L2,8l0.2-0.5l0-0.5L2,6.5L2.1,6l0.1-0.5L2.2,5L2.1,4.5 L2,4.1l0-0.5l0.2-0.5L2,2.6L2,2l0.5,0l0.5,0.1l0.5,0.1l0.5,0L4.5,2L5,2.1l0.5,0.1L6,2l0.5,0.2L7,2.1l0.5,0L8,2l0.5,0L9,2l0.5,0 l0.5,0.1L10.4,2l0.5,0.2L11.4,2L12,2l-0.1,0.6L12,3.1l-0.1,0.5L11.8,4L12,4.5L11.9,5l-0.1,0.5l0,0.5L12,6.5L12,7l-0.1,0.5L12,8 l0,0.5l-0.2,0.5l0,0.5l0.1,0.5l-0.1,0.5l0.2,0.5l-0.1,0.5L11.9,11.9z"/></g></g>
<g transform="translate(792,44)"  fill="#000000"><g transform="scale(11)"><path d="M0.2,0.1L0.1,0.6l0.1,0.5L0.2,1.6L0.1,2.1l0.1,0.5L0,3.1l0,0.5L0,4l0.1,0.5l0,0.5l0.1,0.5L0.1,6l0,0.5l0,0.5 l0.2,0.5L0.1,8l0.1,0.5L0,8.9l0.2,0.5L0,9.9l0.2,0.5l-0.1,0.5l0,0.5L0,11.9l0.2,0.5l-0.1,0.5l0.1,0.5l0,0.4L0.6,14l0.5,0l0.5-0.1 l0.5,0.1l0.5,0.1L3.1,14l0.5-0.1l0.5-0.1l0.5,0L5,13.9l0.5-0.1l0.5,0l0.5,0L7,13.9L7.5,14L8,14l0.5-0.2L9,13.9L9.4,14l0.5-0.2 l0.5,0.2l0.5-0.1l0.5,0l0.5-0.1l0.5,0l0.5,0l0.5,0l0.5,0.1l-0.1-0.5l0.2-0.5l-0.1-0.5l-0.1-0.5l0.2-0.5l-0.2-0.5l0.1-0.5L14,9.9 l-0.2-0.5L13.9,9L14,8.5L14,8l-0.2-0.5l0-0.5l0.1-0.5L13.8,6l0-0.5L14,5l0-0.5l-0.1-0.5l0.1-0.5l-0.2-0.5l0.1-0.5l0-0.5l0-0.5 l-0.1-0.5L14,0.6l-0.2-0.4l-0.4,0l-0.5,0L12.4,0l-0.5,0.2l-0.5,0l-0.5-0.1l-0.5,0L10,0l-0.5,0L9,0L8.5,0.2L8,0.2L7.5,0.1L7,0.1 L6.5,0.2L6,0L5.5,0.2L5.1,0.2L4.6,0.1L4.1,0.1L3.6,0L3.1,0.1L2.6,0L2.1,0.1l-0.5,0l-0.5,0L0.6,0.2L0.2,0.1z M11.9,11.9l-0.5-0.1 L10.9,12l-0.5-0.1L10,11.9l-0.5,0.1L9,11.8l-0.5,0l-0.5,0l-0.5,0.1l-0.5,0L6.5,12L6,11.9l-0.5,0l-0.5,0L4.6,12l-0.5-0.2L3.6,12 l-0.5-0.1L2.6,12l-0.4-0.1L2,11.4l0.1-0.5l0-0.5l0.1-0.5L2,9.5L2.1,9L2,8.5L2,8l0.2-0.5l0-0.5L2,6.5L2.1,6l0.1-0.5L2.2,5L2.1,4.5 L2,4.1l0-0.5l0.2-0.5L2,2.6L2,2l0.5,0l0.5,0.1l0.5,0.1l0.5,0L4.5,2L5,2.1l0.5,0.1L6,2l0.5,0.2L7,2.1l0.5,0L8,2l0.5,0L9,2l0.5,0 l0.5,0.1L10.4,2l0.5,0.2L11.4,2L12,2l-0.1,0.6L12,3.1l-0.1,0.5L11.8,4L12,4.5L11.9,5l-0.1,0.5l0,0.5L12,6.5L12,7l-0.1,0.5L12,8 l0,0.5l-0.2,0.5l0,0.5l0.1,0.5l-0.1,0.5l0.2,0.5l-0.1,0.5L11.9,11.9z"/></g></g>
<g transform="translate(44,792)"  fill="#000000"><g transform="scale(11)"><path d="M0.2,0.1L0.1,0.6l0.1,0.5L0.2,1.6L0.1,2.1l0.1,0.5L0,3.1l0,0.5L0,4l0.1,0.5l0,0.5l0.1,0.5L0.1,6l0,0.5l0,0.5 l0.2,0.5L0.1,8l0.1,0.5L0,8.9l0.2,0.5L0,9.9l0.2,0.5l-0.1,0.5l0,0.5L0,11.9l0.2,0.5l-0.1,0.5l0.1,0.5l0,0.4L0.6,14l0.5,0l0.5-0.1 l0.5,0.1l0.5,0.1L3.1,14l0.5-0.1l0.5-0.1l0.5,0L5,13.9l0.5-0.1l0.5,0l0.5,0L7,13.9L7.5,14L8,14l0.5-0.2L9,13.9L9.4,14l0.5-0.2 l0.5,0.2l0.5-0.1l0.5,0l0.5-0.1l0.5,0l0.5,0l0.5,0l0.5,0.1l-0.1-0.5l0.2-0.5l-0.1-0.5l-0.1-0.5l0.2-0.5l-0.2-0.5l0.1-0.5L14,9.9 l-0.2-0.5L13.9,9L14,8.5L14,8l-0.2-0.5l0-0.5l0.1-0.5L13.8,6l0-0.5L14,5l0-0.5l-0.1-0.5l0.1-0.5l-0.2-0.5l0.1-0.5l0-0.5l0-0.5 l-0.1-0.5L14,0.6l-0.2-0.4l-0.4,0l-0.5,0L12.4,0l-0.5,0.2l-0.5,0l-0.5-0.1l-0.5,0L10,0l-0.5,0L9,0L8.5,0.2L8,0.2L7.5,0.1L7,0.1 L6.5,0.2L6,0L5.5,0.2L5.1,0.2L4.6,0.1L4.1,0.1L3.6,0L3.1,0.1L2.6,0L2.1,0.1l-0.5,0l-0.5,0L0.6,0.2L0.2,0.1z M11.9,11.9l-0.5-0.1 L10.9,12l-0.5-0.1L10,11.9l-0.5,0.1L9,11.8l-0.5,0l-0.5,0l-0.5,0.1l-0.5,0L6.5,12L6,11.9l-0.5,0l-0.5,0L4.6,12l-0.5-0.2L3.6,12 l-0.5-0.1L2.6,12l-0.4-0.1L2,11.4l0.1-0.5l0-0.5l0.1-0.5L2,9.5L2.1,9L2,8.5L2,8l0.2-0.5l0-0.5L2,6.5L2.1,6l0.1-0.5L2.2,5L2.1,4.5 L2,4.1l0-0.5l0.2-0.5L2,2.6L2,2l0.5,0l0.5,0.1l0.5,0.1l0.5,0L4.5,2L5,2.1l0.5,0.1L6,2l0.5,0.2L7,2.1l0.5,0L8,2l0.5,0L9,2l0.5,0 l0.5,0.1L10.4,2l0.5,0.2L11.4,2L12,2l-0.1,0.6L12,3.1l-0.1,0.5L11.8,4L12,4.5L11.9,5l-0.1,0.5l0,0.5L12,6.5L12,7l-0.1,0.5L12,8 l0,0.5l-0.2,0.5l0,0.5l0.1,0.5l-0.1,0.5l0.2,0.5l-0.1,0.5L11.9,11.9z"/></g></g>
<g transform="translate(88,88)"  fill="#000000"><g transform="scale(11)"><rect width="6" height="6"/></g></g>
<g transform="translate(836,88)"  fill="#000000"><g transform="scale(11)"><rect width="6" height="6"/></g></g>
<g transform="translate(88,836)"  fill="#000000"><g transform="scale(11)"><rect width="6" height="6"/></g></g>
</svg>