<?xml version="1.0" encoding="utf-8"?>
<!DOCTYPE svg PUBLIC "-//W3C//DTD SVG 20010904//EN" "http://www.w3.org/TR/2001/REC-SVG-20010904/DTD/svg10.dtd">
<svg xmlns="http://www.w3.org/2000/svg" xml:space="preserve" xmlns:xlink="http://www.w3.org/1999/xlink" width="984" height="984" viewBox="0 0 984 984">
<defs>
<mask id="qrmask"><g fill="#ffffff">
<g transform="translate(240,48) scale(4)"><rect width="6" height="6"/></g>
<g transform="translate(264,48) scale(4)"><rect width="6" height="6"/></g>
<g transform="translate(312,48) scale(4)"><rect width="6" height="6"/></g>
<g transform="translate(336,48) scale(4)"><rect width="6" height="6"/></g>
<g transform="translate(408,48) scale(4)"><rect width="6" height="6"/></g>
<g transform="translate(456,48) scale(4)"><rect width="6" height="6"/></g>
<g transform="translate(480,48) scale(4)"><rect width="6" height="6"/></g>
<g transform="translate(504,48) scale(4)"><rect width="6" height="6"/></g>
<g transform="translate(552,48) scale(4)"><rect width="6" height="6"/></g>
<g transform="translate(576,48) scale(4)"><rect width="6" height="6"/></g>
<g transform="translate(600,48) scale(4)"><rect width="6" height="6"/></g>
<g transform="translate(240,72) scale(4)"><rect width="6" height="6"/></g>
<g transform="translate(312,72) scale(4)"><rect width="6" height="6"/></g>
<g transform="translate(336,72) scale(4)"><rect width="6" height="6"/></g>
<g transform="translate(360,72) scale(4)"><rect width="6" height="6"/></g>
<g transform="translate(432,72) scale(4)"><rect width="6" height="6"/></g>
<g transform="translate(480,72) scale(4)"><rect width="6" height="6"/></g>
<g transform="translate(576,72) scale(4)"><rect width="6" height="6"/></g>
<g transform="translate(624,72) scale(4)"><rect width="6" height="6"/></g>
<g transform="translate(672,72) scale(4)"><rect width="6" height="6"/></g>
<g transform="translate(696,72) scale(4)"><rect width="6" height="6"/></g>
<g transform="translate(720,72) scale(4)"><rect width="6" height="6"/></g>
<g transform="translate(240,96) scale(4)"><rect width="6" height="6"/></g>
<g transform="translate(312,96) scale(4)"><rect width="6" height="6"/></g>
<g transform="translate(336,96) scale(4)"><rect width="6" height="6"/></g>
<g transform="translate(384,96) scale(4)"><rect width="6" height="6"/></g>
<g transform="translate(408,96) scale(4)"><rect width="6" height="6"/></g>
<g transform="translate(480,96) scale(4)"><rect width="6" height="6"/></g>
<g transform="translate(528,96) scale(4)"><rect width="6" height="6"/></g>
<g transform="translate(576,96) scale(4)"><rect width="6" height="6"/></g>
<g transform="translate(600,96) scale(4)"><rect width="6" height="6"/></g>
<g transform="translate(672,96) scale(4)"><rect width="6" height="6"/></g>
<g transform="translate(696,96) scale(4)"><rect width="6" height="6"/></g>
<g transform="translate(720,96) scale(4)"><rect width="6" height="6"/></g>
<g transform="translate(288,120) scale(4)"><rect width="6" height="6"/></g>
<g transform="translate(312,120) scale(4)"><rect width="6" height="6"/></g>
<g transform="translate(360,120) scale(4)"><rect width="6" height="6"/></g>
<g transform="translate(384,120) scale(4)"><rect width="6" height="6"/></g>
<g transform="translate(432,120) scale(4)"><rect width="6" height="6"/></g>
<g transform="translate(456,120) scale(4)"><rect width="6" height="6"/></g>
<g transform="translate(504,120) scale(4)"><rect width="6" height="6"/></g>
<g transform="translate(528,120) scale(4)"><rect width="6" height="6"/></g>
<g transform="translate(552,120) scale(4)"><rect width="6" height="6"/></g>
<g transform="translate(576,120) scale(4)"><rect width="6" height="6"/></g>
<g transform="translate(600,120) scale(4)"><rect width="6" height="6"/></g>
<g transform="translate(624,120) scale(4)"><rect width="6" height="6"/></g>
<g transform="translate(648,120) scale(4)"><rect width="6" height="6"/></g>
<g transform="translate(672,120) scale(4)"><rect width="6" height="6"/></g>
<g transform="translate(264,144) scale(4)"><rect width="6" height="6"/></g>
<g transform="translate(336,144) scale(4)"><rect width="6" height="6"/></g>
<g transform="translate(360,144) scale(4)"><rect width="6" height="6"/></g>
<g transform="translate(384,144) scale(4)"><rect width="6" height="6"/></g>
<g transform="translate(408,144) scale(4)"><rect width="6" height="6"/></g>
<g transform="translate(456,144) scale(4)"><rect width="6" height="6"/></g>
<g transform="translate(480,144) scale(4)"><rect width="6" height="6"/></g>
<g transform="translate(504,144) scale(4)"><rect width="6" height="6"/></g>
<g transform="translate(552,144) scale(4)"><rect width="6" height="6"/></g>
<g transform="translate(624,144) scale(4)"><rect width="6" height="6"/></g>
<g transform="translate(240,168) scale(4)"><rect width="6" height="6"/></g>
<g transform="translate(264,168) scale(4)"><rect width="6" height="6"/></g>
<g transform="translate(288,168) scale(4)"><rect width="6" height="6"/></g>
<g transform="translate(336,168) scale(4)"><rect width="6" height="6"/></g>
<g transform="translate(456,168) scale(4)"><rect width="6" height="6"/></g>
<g transform="translate(480,168) scale(4)"><rect width="6" height="6"/></g>
<g transform="translate(504,168) scale(4)"><rect width="6" height="6"/></g>
<g transform="translate(552,168) scale(4)"><rect width="6" height="6"/></g>
<g transform="translate(600,168) scale(4)"><rect width="6" height="6"/></g>
<g transform="translate(696,168) scale(4)"><rect width="6" height="6"/></g>
<g transform="translate(720,168) scale(4)"><rect width="6" height="6"/></g>
<g transform="translate(240,192) scale(4)"><rect width="6" height="6"/></g>
<g transform="translate(288,192) scale(4)"><rect width="6" height="6"/></g>
<g transform="translate(336,192) scale(4)"><rect width="6" height="6"/></g>
<g transform="translate(384,192) scale(4)"><rect width="6" height="6"/></g>
<g transform="translate(432,192) scale(4)"><rect width="6" height="6"/></g>
<g transform="translate(480,192) scale(4)"><rect width="6" height="6"/></g>
<g transform="translate(528,192) scale(4)"><rect width="6" height="6"/></g>
<g transform="translate(576,192) scale(4)"><rect width="6" height="6"/></g>
<g transform="translate(624,192) scale(4)"><rect width="6" height="6"/></g>
<g transform="translate(672,192) scale(4)"><rect width="6" height="6"/></g>
<g transform="translate(720,192) scale(4)"><rect width="6" height="6"/></g>
<g transform="translate(240,216) scale(4)"><rect width="6" height="6"/></g>
<g transform="translate(264,216) scale(4)"><rect width="6" height="6"/></g>
<g transform="translate(384,216) scale(4)"><rect width="6" height="6"/></g>
<g transform="translate(456,216) scale(4)"><rect width="6" height="6"/></g>
<g transform="translate(480,216) scale(4)"><rect width="6" height="6"/></g>
<g transform="translate(504,216) scale(4)"><rect width="6" height="6"/></g>
<g transform="translate(528,216) scale(4)"><rect width="6" height="6"/></g>
<g transform="translate(576,216) scale(4)"><rect width="6" height="6"/></g>
<g transform="translate(600,216) scale(4)"><rect width="6" height="6"/></g>
<g transform="translate(672,216) scale(4)"><rect width="6" height="6"/></g>
<g transform="translate(720,216) scale(4)"><rect width="6" height="6"/></g>
<g transform="translate(96,240) scale(4)"><rect width="6" height="6"/></g>
<g transform="translate(120,240) scale(4)"><rect width="6" height="6"/></g>
<g transform="translate(144,240) scale(4)"><rect width="6" height="6"/></g>
<g transform="translate(192,240) scale(4)"><rect width="6" height="6"/></g>
<g transform="translate(240,240) scale(4)"><rect width="6" height="6"/></g>
<g transform="translate(264,240) scale(4)"><rect width="6" height="6"/></g>
<g transform="translate(288,240) scale(4)"><rect width="6" height="6"/></g>
<g transform="translate(312,240) scale(4)"><rect width="6" height="6"/></g>
<g transform="translate(360,240) scale(4)"><rect width="6" height="6"/></g>
<g transform="translate(408,240) scale(4)"><rect width="6" height="6"/></g>
<g transform="translate(432,240) scale(4)"><rect width="6" height="6"/></g>
<g transform="translate(552,240) scale(4)"><rect width="6" height="6"/></g>
<g transform="translate(576,240) scale(4)"><rect width="6" height="6"/></g>
<g transform="translate(600,240) scale(4)"><rect width="6" height="6"/></g>
<g transform="translate(744,240) scale(4)"><rect width="6" height="6"/></g>
<g transform="translate(768,240) scale(4)"><rect width="6" height="6"/></g>
<g transform="translate(792,240) scale(4)"><rect width="6" height="6"/></g>
<g transform="translate(864,240) scale(4)"><rect width="6" height="6"/></g>
<g transform="translate(888,240) scale(4)"><rect width="6" height="6"/></g>
<g transform="translate(912,240) scale(4)"><rect width="6" height="6"/></g>
<g transform="translate(96,264) scale(4)"><rect width="6" height="6"/></g>
<g transform="translate(120,264) scale(4)"><rect width="6" height="6"/></g>
<g transform="translate(240,264) scale(4)"><rect width="6" height="6"/></g>
<g transform="translate(264,264) scale(4)"><rect width="6" height="6"/></g>
<g transform="translate(288,264) scale(4)"><rect width="6" height="6"/></g>
<g transform="translate(432,264) scale(4)"><rect width="6" height="6"/></g>
<g transform="translate(480,264) scale(4)"><rect width="6" height="6"/></g>
<g transform="translate(624,264) scale(4)"><rect width="6" height="6"/></g>
<g transform="translate(648,264) scale(4)"><rect width="6" height="6"/></g>
<g transform="translate(672,264) scale(4)"><rect width="6" height="6"/></g>
<g transform="translate(696,264) scale(4)"><rect width="6" height="6"/></g>
<g transform="translate(720,264) scale(4)"><rect width="6" height="6"/></g>
<g transform="translate(768,264) scale(4)"><rect width="6" height="6"/></g>
<g transform="translate(864,264) scale(4)"><rect width="6" height="6"/></g>
<g transform="translate(72,288) scale(4)"><rect width="6" height="6"/></g>
<g transform="translate(120,288) scale(4)"><rect width="6" height="6"/></g>
<g transform="translate(168,288) scale(4)"><rect width="6" height="6"/></g>
<g transform="translate(192,288) scale(4)"><rect width="6" height="6"/></g>
<g transform="translate(240,288) scale(4)"><rect width="6" height="6"/></g>
<g transform="translate(264,288) scale(4)"><rect width="6" height="6"/></g>
<g transform="translate(336,288) scale(4)"><rect width="6" height="6"/></g>
<g transform="translate(576,288) scale(4)"><rect width="6" height="6"/></g>
<g transform="translate(600,288) scale(4)"><rect width="6" height="6"/></g>
<g transform="translate(624,288) scale(4)"><rect width="6" height="6"/></g>
<g transform="translate(648,288) scale(4)"><rect width="6" height="6"/></g>
<g transform="translate(672,288) scale(4)"><rect width="6" height="6"/></g>
<g transform="translate(768,288) scale(4)"><rect width="6" height="6"/></g>
<g transform="translate(792,288) scale(4)"><rect width="6" height="6"/></g>
<g transform="translate(840,288) scale(4)"><rect width="6" height="6"/></g>
<g transform="translate(888,288) scale(4)"><rect width="6" height="6"/></g>
<g transform="translate(912,288) scale(4)"><rect width="6" height="6"/></g>
<g transform="translate(72,312) scale(4)"><rect width="6" height="6"/></g>
<g transform="translate(120,312) scale(4)"><rect width="6" height="6"/></g>
<g transform="translate(144,312) scale(4)"><rect width="6" height="6"/></g>
<g transform="translate(168,312) scale(4)"><rect width="6" height="6"/></g>
<g transform="translate(216,312) scale(4)"><rect width="6" height="6"/></g>
<g transform="translate(240,312) scale(4)"><rect width="6" height="6"/></g>
<g transform="translate(312,312) scale(4)"><rect width="6" height="6"/></g>
<g transform="translate(384,312) scale(4)"><rect width="6" height="6"/></g>
<g transform="translate(480,312) scale(4)"><rect width="6" height="6"/></g>
<g transform="translate(504,312) scale(4)"><rect width="6" height="6"/></g>
<g transform="translate(600,312) scale(4)"><rect width="6" height="6"/></g>
<g transform="translate(672,312) scale(4)"><rect width="6" height="6"/></g>
<g transform="translate(720,312) scale(4)"><rect width="6" height="6"/></g>
<g transform="translate(768,312) scale(4)"><rect width="6" height="6"/></g>
<g transform="translate(48,336) scale(4)"><rect width="6" height="6"/></g>
<g transform="translate(96,336) scale(4)"><rect width="6" height="6"/></g>
<g transform="translate(144,336) scale(4)"><rect width="6" height="6"/></g>
<g transform="translate(168,336) scale(4)"><rect width="6" height="6"/></g>
<g transform="translate(192,336) scale(4)"><rect width="6" height="6"/></g>
<g transform="translate(288,336) scale(4)"><rect width="6" height="6"/></g>
<g transform="translate(312,336) scale(4)"><rect width="6" height="6"/></g>
<g transform="translate(432,336) scale(4)"><rect width="6" height="6"/></g>
<g transform="translate(456,336) scale(4)"><rect width="6" height="6"/></g>
<g transform="translate(504,336) scale(4)"><rect width="6" height="6"/></g>
<g transform="translate(600,336) scale(4)"><rect width="6" height="6"/></g>
<g transform="translate(648,336) scale(4)"><rect width="6" height="6"/></g>
<g transform="translate(672,336) scale(4)"><rect width="6" height="6"/></g>
<g transform="translate(744,336) scale(4)"><rect width="6" height="6"/></g>
<g transform="translate(768,336) scale(4)"><rect width="6" height="6"/></g>
<g transform="translate(792,336) scale(4)"><rect width="6" height="6"/></g>
<g transform="translate(816,336) scale(4)"><rect width="6" height="6"/></g>
<g transform="translate(840,336) scale(4)"><rect width="6" height="6"/></g>
<g transform="translate(864,336) scale(4)"><rect width="6" height="6"/></g>
<g transform="translate(888,336) scale(4)"><rect width="6" height="6"/></g>
<g transform="translate(48,360) scale(4)"><rect width="6" height="6"/></g>
<g transform="translate(72,360) scale(4)"><rect width="6" height="6"/></g>
<g transform="translate(144,360) scale(4)"><rect width="6" height="6"/></g>
<g transform="translate(216,360) scale(4)"><rect width="6" height="6"/></g>
<g transform="translate(336,360) scale(4)"><rect width="6" height="6"/></g>
<g transform="translate(360,360) scale(4)"><rect width="6" height="6"/></g>
<g transform="translate(384,360) scale(4)"><rect width="6" height="6"/></g>
<g transform="translate(408,360) scale(4)"><rect width="6" height="6"/></g>
<g transform="translate(432,360) scale(4)"><rect width="6" height="6"/></g>
<g transform="translate(480,360) scale(4)"><rect width="6" height="6"/></g>
<g transform="translate(504,360) scale(4)"><rect width="6" height="6"/></g>
<g transform="translate(528,360) scale(4)"><rect width="6" height="6"/></g>
<g transform="translate(552,360) scale(4)"><rect width="6" height="6"/></g>
<g transform="translate(576,360) scale(4)"><rect width="6" height="6"/></g>
<g transform="translate(600,360) scale(4)"><rect width="6" height="6"/></g>
<g transform="translate(648,360) scale(4)"><rect width="6" height="6"/></g>
<g transform="translate(720,360) scale(4)"><rect width="6" height="6"/></g>
<g transform="translate(744,360) scale(4)"><rect width="6" height="6"/></g>
<g transform="translate(792,360) scale(4)"><rect width="6" height="6"/></g>
<g transform="translate(840,360) scale(4)"><rect width="6" height="6"/></g>
<g transform="translate(864,360) scale(4)"><rect width="6" height="6"/></g>
<g transform="translate(72,384) scale(4)"><rect width="6" height="6"/></g>
<g transform="translate(192,384) scale(4)"><rect width="6" height="6"/></g>
<g transform="translate(240,384) scale(4)"><rect width="6" height="6"/></g>
<g transform="translate(264,384) scale(4)"><rect width="6" height="6"/></g>
<g transform="translate(288,384) scale(4)"><rect width="6" height="6"/></g>
<g transform="translate(360,384) scale(4)"><rect width="6" height="6"/></g>
<g transform="translate(408,384) scale(4)"><rect width="6" height="6"/></g>
<g transform="translate(648,384) scale(4)"><rect width="6" height="6"/></g>
<g transform="translate(672,384) scale(4)"><rect width="6" height="6"/></g>
<g transform="translate(696,384) scale(4)"><rect width="6" height="6"/></g>
<g transform="translate(720,384) scale(4)"><rect width="6" height="6"/></g>
<g transform="translate(744,384) scale(4)"><rect width="6" height="6"/></g>
<g transform="translate(792,384) scale(4)"><rect width="6" height="6"/></g>
<g transform="translate(840,384) scale(4)"><rect width="6" height="6"/></g>
<g transform="translate(888,384) scale(4)"><rect width="6" height="6"/></g>
<g transform="translate(912,384) scale(4)"><rect width="6" height="6"/></g>
<g transform="translate(72,408) scale(4)"><rect width="6" height="6"/></g>
<g transform="translate(120,408) scale(4)"><rect width="6" height="6"/></g>
<g transform="translate(216,408) scale(4)"><rect width="6" height="6"/></g>
<g transform="translate(360,408) scale(4)"><rect width="6" height="6"/></g>
<g transform="translate(408,408) scale(4)"><rect width="6" height="6"/></g>
<g transform="translate(504,408) scale(4)"><rect width="6" height="6"/></g>
<g transform="translate(552,408) scale(4)"><rect width="6" height="6"/></g>
<g transform="translate(672,408) scale(4)"><rect width="6" height="6"/></g>
<g transform="translate(696,408) scale(4)"><rect width="6" height="6"/></g>
<g transform="translate(720,408) scale(4)"><rect width="6" height="6"/></g>
<g transform="translate(816,408) scale(4)"><rect width="6" height="6"/></g>
<g transform="translate(912,408) scale(4)"><rect width="6" height="6"/></g>
<g transform="translate(48,432) scale(4)"><rect width="6" height="6"/></g>
<g transform="translate(96,432) scale(4)"><rect width="6" height="6"/></g>
<g transform="translate(192,432) scale(4)"><rect width="6" height="6"/></g>
<g transform="translate(312,432) scale(4)"><rect width="6" height="6"/></g>
<g transform="translate(384,432) scale(4)"><rect width="6" height="6"/></g>
<g transform="translate(432,432) scale(4)"><rect width="6" height="6"/></g>
<g transform="translate(456,432) scale(4)"><rect width="6" height="6"/></g>
<g transform="translate(480,432) scale(4)"><rect width="6" height="6"/></g>
<g transform="translate(504,432) scale(4)"><rect width="6" height="6"/></g>
<g transform="translate(552,432) scale(4)"><rect width="6" height="6"/></g>
<g transform="translate(600,432) scale(4)"><rect width="6" height="6"/></g>
<g transform="translate(624,432) scale(4)"><rect width="6" height="6"/></g>
<g transform="translate(672,432) scale(4)"><rect width="6" height="6"/></g>
<g transform="translate(744,432) scale(4)"><rect width="6" height="6"/></g>
<g transform="translate(768,432) scale(4)"><rect width="6" height="6"/></g>
<g transform="translate(816,432) scale(4)"><rect width="6" height="6"/></g>
<g transform="translate(864,432) scale(4)"><rect width="6" height="6"/></g>
<g transform="translate(888,432) scale(4)"><rect width="6" height="6"/></g>
<g transform="translate(912,432) scale(4)"><rect width="6" height="6"/></g>
<g transform="translate(96,456) scale(4)"><rect width="6" height="6"/></g>
<g transform="translate(120,456) scale(4)"><rect width="6" height="6"/></g>
<g transform="translate(168,456) scale(4)"><rect width="6" height="6"/></g>
<g transform="translate(240,456) scale(4)"><rect width="6" height="6"/></g>
<g transform="translate(264,456) scale(4)"><rect width="6" height="6"/></g>
<g transform="translate(288,456) scale(4)"><rect width="6" height="6"/></g>
<g transform="translate(312,456) scale(4)"><rect width="6" height="6"/></g>
<g transform="translate(384,456) scale(4)"><rect width="6" height="6"/></g>
<g transform="translate(408,456) scale(4)"><rect width="6" height="6"/></g>
<g transform="translate(456,456) scale(4)"><rect width="6" height="6"/></g>
<g transform="translate(576,456) scale(4)"><rect width="6" height="6"/></g>
<g transform="translate(600,456) scale(4)"><rect width="6" height="6"/></g>
<g transform="translate(624,456) scale(4)"><rect width="6" height="6"/></g>
<g transform="translate(648,456) scale(4)"><rect width="6" height="6"/></g>
<g transform="translate(672,456) scale(4)"><rect width="6" height="6"/></g>
<g transform="translate(720,456) scale(4)"><rect width="6" height="6"/></g>
<g transform="translate(840,456) scale(4)"><rect width="6" height="6"/></g>
<g transform="translate(864,456) scale(4)"><rect width="6" height="6"/></g>
<g transform="translate(48,480) scale(4)"><rect width="6" height="6"/></g>
<g transform="translate(72,480) scale(4)"><rect width="6" height="6"/></g>
<g transform="translate(96,480) scale(4)"><rect width="6" height="6"/></g>
<g transform="translate(192,480) scale(4)"><rect width="6" height="6"/></g>
<g transform="translate(216,480) scale(4)"><rect width="6" height="6"/></g>
<g transform="translate(264,480) scale(4)"><rect width="6" height="6"/></g>
<g transform="translate(312,480) scale(4)"><rect width="6" height="6"/></g>
<g transform="translate(336,480) scale(4)"><rect width="6" height="6"/></g>
<g transform="translate(408,480) scale(4)"><rect width="6" height="6"/></g>
<g transform="translate(432,480) scale(4)"><rect width="6" height="6"/></g>
<g transform="translate(456,480) scale(4)"><rect width="6" height="6"/></g>
<g transform="translate(504,480) scale(4)"><rect width="6" height="6"/></g>
<g transform="translate(552,480) scale(4)"><rect width="6" height="6"/></g>
<g transform="translate(600,480) scale(4)"><rect width="6" height="6"/></g>
<g transform="translate(624,480) scale(4)"><rect width="6" height="6"/></g>
<g transform="translate(648,480) scale(4)"><rect width="6" height="6"/></g>
<g transform="translate(672,480) scale(4)"><rect width="6" height="6"/></g>
<g transform="translate(696,480) scale(4)"><rect width="6" height="6"/></g>
<g transform="translate(720,480) scale(4)"><rect width="6" height="6"/></g>
<g transform="translate(744,480) scale(4)"><rect width="6" height="6"/></g>
<g transform="translate(768,480) scale(4)"><rect width="6" height="6"/></g>
<g transform="translate(816,480) scale(4)"><rect width="6" height="6"/></g>
<g transform="translate(840,480) scale(4)"><rect width="6" height="6"/></g>
<g transform="translate(888,480) scale(4)"><rect width="6" height="6"/></g>
<g transform="translate(912,480) scale(4)"><rect width="6" height="6"/></g>
<g transform="translate(48,504) scale(4)"><rect width="6" height="6"/></g>
<g transform="translate(144,504) scale(4)"><rect width="6" height="6"/></g>
<g transform="translate(288,504) scale(4)"><rect width="6" height="6"/></g>
<g transform="translate(360,504) scale(4)"><rect width="6" height="6"/></g>
<g transform="translate(432,504) scale(4)"><rect width="6" height="6"/></g>
<g transform="translate(456,504) scale(4)"><rect width="6" height="6"/></g>
<g transform="translate(552,504) scale(4)"><rect width="6" height="6"/></g>
<g transform="translate(576,504) scale(4)"><rect width="6" height="6"/></g>
<g transform="translate(600,504) scale(4)"><rect width="6" height="6"/></g>
<g transform="translate(624,504) scale(4)"><rect width="6" height="6"/></g>
<g transform="translate(720,504) scale(4)"><rect width="6" height="6"/></g>
<g transform="translate(744,504) scale(4)"><rect width="6" height="6"/></g>
<g transform="translate(768,504) scale(4)"><rect width="6" height="6"/></g>
<g transform="translate(888,504) scale(4)"><rect width="6" height="6"/></g>
<g transform="translate(912,504) scale(4)"><rect width="6" height="6"/></g>
<g transform="translate(48,528) scale(4)"><rect width="6" height="6"/></g>
<g transform="translate(96,528) scale(4)"><rect width="6" height="6"/></g>
<g transform="translate(120,528) scale(4)"><rect width="6" height="6"/></g>
<g transform="translate(144,528) scale(4)"><rect width="6" height="6"/></g>
<g transform="translate(192,528) scale(4)"><rect width="6" height="6"/></g>
<g transform="translate(216,528) scale(4)"><rect width="6" height="6"/></g>
<g transform="translate(240,528) scale(4)"><rect width="6" height="6"/></g>
<g transform="translate(264,528) scale(4)"><rect width="6" height="6"/></g>
<g transform="translate(312,528) scale(4)"><rect width="6" height="6"/></g>
<g transform="translate(408,528) scale(4)"><rect width="6" height="6"/></g>
<g transform="translate(504,528) scale(4)"><rect width="6" height="6"/></g>
<g transform="translate(528,528) scale(4)"><rect width="6" height="6"/></g>
<g transform="translate(552,528) scale(4)"><rect width="6" height="6"/></g>
<g transform="translate(600,528) scale(4)"><rect width="6" height="6"/></g>
<g transform="translate(624,528) scale(4)"><rect width="6" height="6"/></g>
<g transform="translate(648,528) scale(4)"><rect width="6" height="6"/></g>
<g transform="translate(672,528) scale(4)"><rect width="6" height="6"/></g>
<g transform="translate(744,528) scale(4)"><rect width="6" height="6"/></g>
<g transform="translate(768,528) scale(4)"><rect width="6" height="6"/></g>
<g transform="translate(792,528) scale(4)"><rect width="6" height="6"/></g>
<g transform="translate(816,528) scale(4)"><rect width="6" height="6"/></g>
<g transform="translate(864,528) scale(4)"><rect width="6" height="6"/></g>
<g transform="translate(888,528) scale(4)"><rect width="6" height="6"/></g>
<g transform="translate(912,528) scale(4)"><rect width="6" height="6"/></g>
<g transform="translate(48,552) scale(4)"><rect width="6" height="6"/></g>
<g transform="translate(72,552) scale(4)"><rect width="6" height="6"/></g>
<g transform="translate(96,552) scale(4)"><rect width="6" height="6"/></g>
<g transform="translate(144,552) scale(4)"><rect width="6" height="6"/></g>
<g transform="translate(240,552) scale(4)"><rect width="6" height="6"/></g>
<g transform="translate(264,552) scale(4)"><rect width="6" height="6"/></g>
<g transform="translate(312,552) scale(4)"><rect width="6" height="6"/></g>
<g transform="translate(336,552) scale(4)"><rect width="6" height="6"/></g>
<g transform="translate(408,552) scale(4)"><rect width="6" height="6"/></g>
<g transform="translate(432,552) scale(4)"><rect width="6" height="6"/></g>
<g transform="translate(480,552) scale(4)"><rect width="6" height="6"/></g>
<g transform="translate(504,552) scale(4)"><rect width="6" height="6"/></g>
<g transform="translate(624,552) scale(4)"><rect width="6" height="6"/></g>
<g transform="translate(648,552) scale(4)"><rect width="6" height="6"/></g>
<g transform="translate(744,552) scale(4)"><rect width="6" height="6"/></g>
<g transform="translate(792,552) scale(4)"><rect width="6" height="6"/></g>
<g transform="translate(840,552) scale(4)"><rect width="6" height="6"/></g>
<g transform="translate(864,552) scale(4)"><rect width="6" height="6"/></g>
<g transform="translate(912,552) scale(4)"><rect width="6" height="6"/></g>
<g transform="translate(48,576) scale(4)"><rect width="6" height="6"/></g>
<g transform="translate(72,576) scale(4)"><rect width="6" height="6"/></g>
<g transform="translate(144,576) scale(4)"><rect width="6" height="6"/></g>
<g transform="translate(168,576) scale(4)"><rect width="6" height="6"/></g>
<g transform="translate(192,576) scale(4)"><rect width="6" height="6"/></g>
<g transform="translate(240,576) scale(4)"><rect width="6" height="6"/></g>
<g transform="translate(312,576) scale(4)"><rect width="6" height="6"/></g>
<g transform="translate(336,576) scale(4)"><rect width="6" height="6"/></g>
<g transform="translate(456,576) scale(4)"><rect width="6" height="6"/></g>
<g transform="translate(480,576) scale(4)"><rect width="6" height="6"/></g>
<g transform="translate(504,576) scale(4)"><rect width="6" height="6"/></g>
<g transform="translate(528,576) scale(4)"><rect width="6" height="6"/></g>
<g transform="translate(600,576) scale(4)"><rect width="6" height="6"/></g>
<g transform="translate(624,576) scale(4)"><rect width="6" height="6"/></g>
<g transform="translate(648,576) scale(4)"><rect width="6" height="6"/></g>
<g transform="translate(672,576) scale(4)"><rect width="6" height="6"/></g>
<g transform="translate(696,576) scale(4)"><rect width="6" height="6"/></g>
<g transform="translate(744,576) scale(4)"><rect width="6" height="6"/></g>
<g transform="translate(888,576) scale(4)"><rect width="6" height="6"/></g>
<g transform="translate(912,576) scale(4)"><rect width="6" height="6"/></g>
<g transform="translate(48,600) scale(4)"><rect width="6" height="6"/></g>
<g transform="translate(72,600) scale(4)"><rect width="6" height="6"/></g>
<g transform="translate(96,600) scale(4)"><rect width="6" height="6"/></g>
<g transform="translate(240,600) scale(4)"><rect width="6" height="6"/></g>
<g transform="translate(264,600) scale(4)"><rect width="6" height="6"/></g>
<g transform="translate(312,600) scale(4)"><rect width="6" height="6"/></g>
<g transform="translate(336,600) scale(4)"><rect width="6" height="6"/></g>
<g transform="translate(360,600) scale(4)"><rect width="6" height="6"/></g>
<g transform="translate(408,600) scale(4)"><rect width="6" height="6"/></g>
<g transform="translate(432,600) scale(4)"><rect width="6" height="6"/></g>
<g transform="translate(480,600) scale(4)"><rect width="6" height="6"/></g>
<g transform="translate(576,600) scale(4)"><rect width="6" height="6"/></g>
<g transform="translate(600,600) scale(4)"><rect width="6" height="6"/></g>
<g transform="translate(648,600) scale(4)"><rect width="6" height="6"/></g>
<g transform="translate(792,600) scale(4)"><rect width="6" height="6"/></g>
<g transform="translate(888,600) scale(4)"><rect width="6" height="6"/></g>
<g transform="translate(48,624) scale(4)"><rect width="6" height="6"/></g>
<g transform="translate(96,624) scale(4)"><rect width="6" height="6"/></g>
<g transform="translate(120,624) scale(4)"><rect width="6" height="6"/></g>
<g transform="translate(168,624) scale(4)"><rect width="6" height="6"/></g>
<g transform="translate(192,624) scale(4)"><rect width="6" height="6"/></g>
<g transform="translate(264,624) scale(4)"><rect width="6" height="6"/></g>
<g transform="translate(312,624) scale(4)"><rect width="6" height="6"/></g>
<g transform="translate(408,624) scale(4)"><rect width="6" height="6"/></g>
<g transform="translate(456,624) scale(4)"><rect width="6" height="6"/></g>
<g transform="translate(480,624) scale(4)"><rect width="6" height="6"/></g>
<g transform="translate(504,624) scale(4)"><rect width="6" height="6"/></g>
<g transform="translate(528,624) scale(4)"><rect width="6" height="6"/></g>
<g transform="translate(600,624) scale(4)"><rect width="6" height="6"/></g>
<g transform="translate(624,624) scale(4)"><rect width="6" height="6"/></g>
<g transform="translate(672,624) scale(4)"><rect width="6" height="6"/></g>
<g transform="translate(720,624) scale(4)"><rect width="6" height="6"/></g>
<g transform="translate(744,624) scale(4)"><rect width="6" height="6"/></g>
<g transform="translate(816,624) scale(4)"><rect width="6" height="6"/></g>
<g transform="translate(840,624) scale(4)"><rect width="6" height="6"/></g>
<g transform="translate(864,624) scale(4)"><rect width="6" height="6"/></g>
<g transform="translate(912,624) scale(4)"><rect width="6" height="6"/></g>
<g transform="translate(48,648) scale(4)"><rect width="6" height="6"/></g>
<g transform="translate(264,648) scale(4)"><rect width="6" height="6"/></g>
<g transform="translate(336,648) scale(4)"><rect width="6" height="6"/></g>
<g transform="translate(360,648) scale(4)"><rect width="6" height="6"/></g>
<g transform="translate(384,648) scale(4)"><rect width="6" height="6"/></g>
<g transform="translate(480,648) scale(4)"><rect width="6" height="6"/></g>
<g transform="translate(528,648) scale(4)"><rect width="6" height="6"/></g>
<g transform="translate(552,648) scale(4)"><rect width="6" height="6"/></g>
<g transform="translate(576,648) scale(4)"><rect width="6" height="6"/></g>
<g transform="translate(696,648) scale(4)"><rect width="6" height="6"/></g>
<g transform="translate(768,648) scale(4)"><rect width="6" height="6"/></g>
<g transform="translate(792,648) scale(4)"><rect width="6" height="6"/></g>
<g transform="translate(840,648) scale(4)"><rect width="6" height="6"/></g>
<g transform="translate(864,648) scale(4)"><rect width="6" height="6"/></g>
<g transform="translate(48,672) scale(4)"><rect width="6" height="6"/></g>
<g transform="translate(120,672) scale(4)"><rect width="6" height="6"/></g>
<g transform="translate(192,672) scale(4)"><rect width="6" height="6"/></g>
<g transform="translate(216,672) scale(4)"><rect width="6" height="6"/></g>
<g transform="translate(240,672) scale(4)"><rect width="6" height="6"/></g>
<g transform="translate(264,672) scale(4)"><rect width="6" height="6"/></g>
<g transform="translate(312,672) scale(4)"><rect width="6" height="6"/></g>
<g transform="translate(336,672) scale(4)"><rect width="6" height="6"/></g>
<g transform="translate(432,672) scale(4)"><rect width="6" height="6"/></g>
<g transform="translate(456,672) scale(4)"><rect width="6" height="6"/></g>
<g transform="translate(504,672) scale(4)"><rect width="6" height="6"/></g>
<g transform="translate(528,672) scale(4)"><rect width="6" height="6"/></g>
<g transform="translate(552,672) scale(4)"><rect width="6" height="6"/></g>
<g transform="translate(576,672) scale(4)"><rect width="6" height="6"/></g>
<g transform="translate(600,672) scale(4)"><rect width="6" height="6"/></g>
<g transform="translate(624,672) scale(4)"><rect width="6" height="6"/></g>
<g transform="translate(648,672) scale(4)"><rect width="6" height="6"/></g>
<g transform="translate(672,672) scale(4)"><rect width="6" height="6"/></g>
<g transform="translate(696,672) scale(4)"><rect width="6" height="6"/></g>
<g transform="translate(720,672) scale(4)"><rect width="6" height="6"/></g>
<g transform="translate(768,672) scale(4)"><rect width="6" height="6"/></g>
<g transform="translate(792,672) scale(4)"><rect width="6" height="6"/></g>
<g transform="translate(888,672) scale(4)"><rect width="6" height="6"/></g>
<g transform="translate(912,672) scale(4)"><rect width="6" height="6"/></g>
<g transform="translate(48,696) scale(4)"><rect width="6" height="6"/></g>
<g transform="translate(120,696) scale(4)"><rect width="6" height="6"/></g>
<g transform="translate(144,696) scale(4)"><rect width="6" height="6"/></g>
<g transform="translate(240,696) scale(4)"><rect width="6" height="6"/></g>
<g transform="translate(312,696) scale(4)"><rect width="6" height="6"/></g>
<g transform="translate(360,696) scale(4)"><rect width="6" height="6"/></g>
<g transform="translate(384,696) scale(4)"><rect width="6" height="6"/></g>
<g transform="translate(432,696) scale(4)"><rect width="6" height="6"/></g>
<g transform="translate(456,696) scale(4)"><rect width="6" height="6"/></g>
<g transform="translate(528,696) scale(4)"><rect width="6" height="6"/></g>
<g transform="translate(600,696) scale(4)"><rect width="6" height="6"/></g>
<g transform="translate(672,696) scale(4)"><rect width="6" height="6"/></g>
<g transform="translate(696,696) scale(4)"><rect width="6" height="6"/></g>
<g transform="translate(744,696) scale(4)"><rect width="6" height="6"/></g>
<g transform="translate(792,696) scale(4)"><rect width="6" height="6"/></g>
<g transform="translate(816,696) scale(4)"><rect width="6" height="6"/></g>
<g transform="translate(888,696) scale(4)"><rect width="6" height="6"/></g>
<g transform="translate(912,696) scale(4)"><rect width="6" height="6"/></g>
<g transform="translate(48,720) scale(4)"><rect width="6" height="6"/></g>
<g transform="translate(120,720) scale(4)"><rect width="6" height="6"/></g>
<g transform="translate(144,720) scale(4)"><rect width="6" height="6"/></g>
<g transform="translate(192,720) scale(4)"><rect width="6" height="6"/></g>
<g transform="translate(312,720) scale(4)"><rect width="6" height="6"/></g>
<g transform="translate(336,720) scale(4)"><rect width="6" height="6"/></g>
<g transform="translate(384,720) scale(4)"><rect width="6" height="6"/></g>
<g transform="translate(408,720) scale(4)"><rect width="6" height="6"/></g>
<g transform="translate(432,720) scale(4)"><rect width="6" height="6"/></g>
<g transform="translate(480,720) scale(4)"><rect width="6" height="6"/></g>
<g transform="translate(576,720) scale(4)"><rect width="6" height="6"/></g>
<g transform="translate(600,720) scale(4)"><rect width="6" height="6"/></g>
<g transform="translate(648,720) scale(4)"><rect width="6" height="6"/></g>
<g transform="translate(672,720) scale(4)"><rect width="6" height="6"/></g>
<g transform="translate(696,720) scale(4)"><rect width="6" height="6"/></g>
<g transform="translate(720,720) scale(4)"><rect width="6" height="6"/></g>
<g transform="translate(744,720) scale(4)"><rect width="6" height="6"/></g>
<g transform="translate(768,720) scale(4)"><rect width="6" height="6"/></g>
<g transform="translate(792,720) scale(4)"><rect width="6" height="6"/></g>
<g transform="translate(816,720) scale(4)"><rect width="6" height="6"/></g>
<g transform="translate(840,720) scale(4)"><rect width="6" height="6"/></g>
<g transform="translate(864,720) scale(4)"><rect width="6" height="6"/></g>
<g transform="translate(240,744) scale(4)"><rect width="6" height="6"/></g>
<g transform="translate(264,744) scale(4)"><rect width="6" height="6"/></g>
<g transform="translate(288,744) scale(4)"><rect width="6" height="6"/></g>
<g transform="translate(312,744) scale(4)"><rect width="6" height="6"/></g>
<g transform="translate(336,744) scale(4)"><rect width="6" height="6"/></g>
<g transform="translate(408,744) scale(4)"><rect width="6" height="6"/></g>
<g transform="translate(432,744) scale(4)"><rect width="6" height="6"/></g>
<g transform="translate(456,744) scale(4)"><rect width="6" height="6"/></g>
<g transform="translate(480,744) scale(4)"><rect width="6" height="6"/></g>
<g transform="translate(528,744) scale(4)"><rect width="6" height="6"/></g>
<g transform="translate(552,744) scale(4)"><rect width="6" height="6"/></g>
<g transform="translate(576,744) scale(4)"><rect width="6" height="6"/></g>
<g transform="translate(600,744) scale(4)"><rect width="6" height="6"/></g>
<g transform="translate(696,744) scale(4)"><rect width="6" height="6"/></g>
<g transform="translate(720,744) scale(4)"><rect width="6" height="6"/></g>
<g transform="translate(816,744) scale(4)"><rect width="6" height="6"/></g>
<g transform="translate(888,744) scale(4)"><rect width="6" height="6"/></g>
<g transform="translate(312,768) scale(4)"><rect width="6" height="6"/></g>
<g transform="translate(528,768) scale(4)"><rect width="6" height="6"/></g>
<g transform="translate(576,768) scale(4)"><rect width="6" height="6"/></g>
<g transform="translate(648,768) scale(4)"><rect width="6" height="6"/></g>
<g transform="translate(672,768) scale(4)"><rect width="6" height="6"/></g>
<g transform="translate(696,768) scale(4)"><rect width="6" height="6"/></g>
<g transform="translate(720,768) scale(4)"><rect width="6" height="6"/></g>
<g transform="translate(768,768) scale(4)"><rect width="6" height="6"/></g>
<g transform="translate(816,768) scale(4)"><rect width="6" height="6"/></g>
<g transform="translate(840,768) scale(4)"><rect width="6" height="6"/></g>
<g transform="translate(888,768) scale(4)"><rect width="6" height="6"/></g>
<g transform="translate(912,768) scale(4)"><rect width="6" height="6"/></g>
<g transform="translate(264,792) scale(4)"><rect width="6" height="6"/></g>
<g transform="translate(288,792) scale(4)"><rect width="6" height="6"/></g>
<g transform="translate(312,792) scale(4)"><rect width="6" height="6"/></g>
<g transform="translate(336,792) scale(4)"><rect width="6" height="6"/></g>
<g transform="translate(408,792) scale(4)"><rect width="6" height="6"/></g>
<g transform="translate(432,792) scale(4)"><rect width="6" height="6"/></g>
<g transform="translate(720,792) scale(4)"><rect width="6" height="6"/></g>
<g transform="translate(816,792) scale(4)"><rect width="6" height="6"/></g>
<g transform="translate(888,792) scale(4)"><rect width="6" height="6"/></g>
<g transform="translate(912,792) scale(4)"><rect width="6" height="6"/></g>
<g transform="translate(240,816) scale(4)"><rect width="6" height="6"/></g>
<g transform="translate(288,816) scale(4)"><rect width="6" height="6"/></g>
<g transform="translate(312,816) scale(4)"><rect width="6" height="6"/></g>
<g transform="translate(336,816) scale(4)"><rect width="6" height="6"/></g>
<g transform="translate(360,816) scale(4)"><rect width="6" height="6"/></g>
<g transform="translate(408,816) scale(4)"><rect width="6" height="6"/></g>
<g transform="translate(432,816) scale(4)"><rect width="6" height="6"/></g>
<g transform="translate(456,816) scale(4)"><rect width="6" height="6"/></g>
<g transform="translate(480,816) scale(4)"><rect width="6" height="6"/></g>
<g transform="translate(504,816) scale(4)"><rect width="6" height="6"/></g>
<g transform="translate(528,816) scale(4)"><rect width="6" height="6"/></g>
<g transform="translate(576,816) scale(4)"><rect width="6" height="6"/></g>
<g transform="translate(648,816) scale(4)"><rect width="6" height="6"/></g>
<g transform="translate(672,816) scale(4)"><rect width="6" height="6"/></g>
<g transform="translate(696,816) scale(4)"><rect width="6" height="6"/></g>
<g transform="translate(720,816) scale(4)"><rect width="6" height="6"/></g>
<g transform="translate(744,816) scale(4)"><rect width="6" height="6"/></g>
<g transform="translate(768,816) scale(4)"><rect width="6" height="6"/></g>
<g transform="translate(792,816) scale(4)"><rect width="6" height="6"/></g>
<g transform="translate(816,816) scale(4)"><rect width="6" height="6"/></g>
<g transform="translate(864,816) scale(4)"><rect width="6" height="6"/></g>
<g transform="translate(240,840) scale(4)"><rect width="6" height="6"/></g>
<g transform="translate(312,840) scale(4)"><rect width="6" height="6"/></g>
<g transform="translate(336,840) scale(4)"><rect width="6" height="6"/></g>
<g transform="translate(360,840) scale(4)"><rect width="6" height="6"/></g>
<g transform="translate(408,840) scale(4)"><rect width="6" height="6"/></g>
<g transform="translate(456,840) scale(4)"><rect width="6" height="6"/></g>
<g transform="translate(480,840) scale(4)"><rect width="6" height="6"/></g>
<g transform="translate(576,840) scale(4)"><rect width="6" height="6"/></g>
<g transform="translate(624,840) scale(4)"><rect width="6" height="6"/></g>
<g transform="translate(720,840) scale(4)"><rect width="6" height="6"/></g>
<g transform="translate(768,840) scale(4)"><rect width="6" height="6"/></g>
<g transform="translate(816,840) scale(4)"><rect width="6" height="6"/></g>
<g transform="translate(240,864) scale(4)"><rect width="6" height="6"/></g>
<g transform="translate(264,864) scale(4)"><rect width="6" height="6"/></g>
<g transform="translate(312,864) scale(4)"><rect width="6" height="6"/></g>
<g transform="translate(336,864) scale(4)"><rect width="6" height="6"/></g>
<g transform="translate(408,864) scale(4)"><rect width="6" height="6"/></g>
<g transform="translate(432,864) scale(4)"><rect width="6" height="6"/></g>
<g transform="translate(480,864) scale(4)"><rect width="6" height="6"/></g>
<g transform="translate(528,864) scale(4)"><rect width="6" height="6"/></g>
<g transform="translate(576,864) scale(4)"><rect width="6" height="6"/></g>
<g transform="translate(672,864) scale(4)"><rect width="6" height="6"/></g>
<g transform="translate(696,864) scale(4)"><rect width="6" height="6"/></g>
<g transform="translate(744,864) scale(4)"><rect width="6" height="6"/></g>
<g transform="translate(792,864) scale(4)"><rect width="6" height="6"/></g>
<g transform="translate(912,864) scale(4)"><rect width="6" height="6"/></g>
<g transform="translate(264,888) scale(4)"><rect width="6" height="6"/></g>
<g transform="translate(432,888) scale(4)"><rect width="6" height="6"/></g>
<g transform="translate(456,888) scale(4)"><rect width="6" height="6"/></g>
<g transform="translate(480,888) scale(4)"><rect width="6" height="6"/></g>
<g transform="translate(504,888) scale(4)"><rect width="6" height="6"/></g>
<g transform="translate(528,888) scale(4)"><rect width="6" height="6"/></g>
<g transform="translate(624,888) scale(4)"><rect width="6" height="6"/></g>
<g transform="translate(696,888) scale(4)"><rect width="6" height="6"/></g>
<g transform="translate(720,888) scale(4)"><rect width="6" height="6"/></g>
<g transform="translate(768,888) scale(4)"><rect width="6" height="6"/></g>
<g transform="translate(792,888) scale(4)"><rect width="6" height="6"/></g>
<g transform="translate(816,888) scale(4)"><rect width="6" height="6"/></g>
<g transform="translate(912,888) scale(4)"><rect width="6" height="6"/></g>
<g transform="translate(264,912) scale(4)"><rect width="6" height="6"/></g>
<g transform="translate(288,912) scale(4)"><rect width="6" height="6"/></g>
<g transform="translate(312,912) scale(4)"><rect width="6" height="6"/></g>
<g transform="translate(384,912) scale(4)"><rect width="6" height="6"/></g>
<g transform="translate(408,912) scale(4)"><rect width="6" height="6"/></g>
<g transform="translate(432,912) scale(4)"><rect width="6" height="6"/></g>
<g transform="translate(504,912) scale(4)"><rect width="6" height="6"/></g>
<g transform="translate(576,912) scale(4)"><rect width="6" height="6"/></g>
<g transform="translate(624,912) scale(4)"><rect width="6" height="6"/></g>
<g transform="translate(648,912) scale(4)"><rect width="6" height="6"/></g>
<g transform="translate(672,912) scale(4)"><rect width="6" height="6"/></g>
<g transform="translate(744,912) scale(4)"><rect width="6" height="6"/></g>
<g transform="translate(840,912) scale(4)"><rect width="6" height="6"/></g>
<g transform="translate(864,912) scale(4)"><rect width="6" height="6"/></g>
<g transform="translate(888,912) scale(4)"><rect width="6" height="6"/></g>
<g transform="translate(912,912) scale(4)"><rect width="6" height="6"/></g>
</g></mask></defs>
<rect x="0" y="0" width="984" height="984" mask="url(#qrmask)" fill="#000000" />
<g transform="translate(48,48)"  fill="#000000"><g transform="scale(12)"><path d="M0.2,0.1L0.1,0.6l0.1,0.5L0.2,1.6L0.1,2.1l0.1,0.5L0,3.1l0,0.5L0,4l0.1,0.5l0,0.5l0.1,0.5L0.1,6l0,0.5l0,0.5 l0.2,0.5L0.1,8l0.1,0.5L0,8.9l0.2,0.5L0,9.9l0.2,0.5l-0.1,0.5l0,0.5L0,11.9l0.2,0.5l-0.1,0.5l0.1,0.5l0,0.4L0.6,14l0.5,0l0.5-0.1 l0.5,0.1l0.5,0.1L3.1,14l0.5-0.1l0.5-0.1l0.5,0L5,13.9l0.5-0.1l0.5,0l0.5,0L7,13.9L7.5,14L8,14l0.5-0.2L9,13.9L9.4,14l0.5-0.2 l0.5,0.2l0.5-0.1l0.5,0l0.5-0.1l0.5,0l0.5,0l0.5,0l0.5,0.1l-0.1-0.5l0.2-0.5l-0.1-0.5l-0.1-0.5l0.2-0.5l-0.2-0.5l0.1-0.5L14,9.9 l-0.2-0.5L13.9,9L14,8.5L14,8l-0.2-0.5l0-0.5l0.1-0.5L13.8,6l0-0.5L14,5l0-0.5l-0.1-0.5l0.1-0.5l-0.2-0.5l0.1-0.5l0-0.5l0-0.5 l-0.1-0.5L14,0.6l-0.2-0.4l-0.4,0l-0.5,0L12.4,0l-0.5,0.2l-0.5,0l-0.5-0.1l-0.5,0L10,0l-0.5,0L9,0L8.5,0.2L8,0.2L7.5,0.1L7,0.1 L6.5,0.2L6,0L5.5,0.2L5.1,0.2L4.6,0.1L4.1,0.1L3.6,0L3.1,0.1L2.6,0L2.1,0.1l-0.5,0l-0.5,0L0.6,0.2L0.2,0.1z M11.9,11.9l-0.5-0.1 L10.9,12l-0.5-0.1L10,11.9l-0.5,0.1L9,11.8l-0.5,0l-0.5,0l-0.5,0.1l-0.5,0L6.5,12L6,11.9l-0.5,0l-0.5,0L4.6,12l-0.5-0.2L3.6,12 l-0.5-0.1L2.6,12l-0.4-0.1L2,11.4l0.1-0.5l0-0.5l0.1-0.5L2,9.5L2.1,9L2,8.5L2,8l0.2-0.5l0-0.5L2,6.5L2.1,6l0.1-0.5L2.2,5L2.1,4.5 L2,4.1l0-0.5l0.2-0.5L2,2.6L2,2l0.5,0l0.5,0.1l0.5,0.1l0.5,0L4.5,2L5,2.1l0.5,0.1L6,2l0.5,0.2L7,2.1l0.5,0L8,2l0.5,0L9,2l0.5,0 l0.5,0.1L10.4,2l0.5,0.2L11.4,2L12,2l-0.1,0.6L12,3.1l-0.1,0.5L11.8,4L12,4.5L11.9,5l-0.1,0.5l0,0.5L12,6.5L12,7l-0.1,0.5L12,8 l0,0.5l-0.2,0.5l0,0.5l0.1,0.5l-0.1,0.5l0.2,0.5l-0.1,0.5L11.9,11.9z"/></g></g>
<g transform="translate(768,48)"  fill="#000000"><g transform="scale(12)"><path d="M0.2,0.1L0.1,0.6l0.1,0.5L0.2,1.6L0.1,2.1l0.1,0.5L0,3.1l0,0.5L0,4l0.1,0.5l0,0.5l0.1,0.5L0.1,6l0,0.5l0,0.5 l0.2,0.5L0.1,8l0.1,0.5L0,8.9l0.2,0.5L0,9.9l0.2,0.5l-0.1,0.5l0,0.5L0,11.9l0.2,0.5l-0.1,0.5l0.1,0.5l0,0.4L0.6,14l0.5,0l0.5-0.1 l0.5,0.1l0.5,0.1L3.1,14l0.5-0.1l0.5-0.1l0.5,0L5,13.9l0.5-0.1l0.5,0l0.5,0L7,13.9L7.5,14L8,14l0.5-0.2L9,13.9L9.4,14l0.5-0.2 l0.5,0.2l0.5-0.1l0.5,0l0.5-0.1l0.5,0l0.5,0l0.5,0l0.5,0.1l-0.1-0.5l0.2-0.5l-0.1-0.5l-0.1-0.5l0.2-0.5l-0.2-0.5l0.1-0.5L14,9.9 l-0.2-0.5L13.9,9L14,8.5L14,8l-0.2-0.5l0-0.5l0.1-0.5L13.8,6l0-0.5L14,5l0-0.5l-0.1-0.5l0.1-0.5l-0.2-0.5l0.1-0.5l0-0.5l0-0.5 l-0.1-0.5L14,0.6l-0.2-0.4l-0.4,0l-0.5,0L12.4,0l-0.5,0.2l-0.5,0l-0.5-0.1l-0.5,0L10,0l-0.5,0L9,0L8.5,0.2L8,0.2L7.5,0.1L7,0.1 L6.5,0.2L6,0L5.5,0.2L5.1,0.2L4.6,0.1L4.1,0.1L3.6,0L3.1,0.1L2.6,0L2.1,0.1l-0.5,0l-0.5,0L0.6,0.2L0.2,0.1z M11.9,11.9l-0.5-0.1 L10.9,12l-0.5-0.1L10,11.9l-0.5,0.1L9,11.8l-0.5,0l-0.5,0l-0.5,0.1l-0.5,0L6.5,12L6,11.9l-0.5,0l-0.5,0L4.6,12l-0.5-0.2L3.6,12 l-0.5-0.1L2.6,12l-0.4-0.1L2,11.4l0.1-0.5l0-0.5l0.1-0.5L2,9.5L2.1,9L2,8.5L2,8l0.2-0.5l0-0.5L2,6.5L2.1,6l0.1-0.5L2.2,5L2.1,4.5 L2,4.1l0-0.5l0.2-0.5L2,2.6L2,2l0.5,0l0.5,0.1l0.5,0.1l0.5,0L4.5,2L5,2.1l0.5,0.1L6,2l0.5,0.2L7,2.1l0.5,0L8,2l0.5,0L9,2l0.5,0 l0.5,0.1L10.4,2l0.5,0.2L11.4,2L12,2l-0.1,0.6L12,3.1l-0.1,0.5L11.8,4L12,4.5L11.9,5l-0.1,0.5l0,0.5L12,6.5L12,7l-0.1,0.5L12,8 l0,0.5l-0.2,0.5l0,0.5l0.1,0.5l-0.1,0.5l0.2,0.5l-0.1,0.5L11.9,11.9z"/></g></g>
<g transform="translate(48,768)"  fill="#000000"><g transform="scale(12)"><path d="M0.2,0.1L0.1,0.6l0.1,0.5L0.2,1.6L0.1,2.1l0.1,0.5L0,3.1l0,0.5L0,4l0.1,0.5l0,0.5l0.1,0.5L0.1,6l0,0.5l0,0.5 l0.2,0.5L0.1,8l0.1,0.5L0,8.9l0.2,0.5L0,9.9l0.2,0.5l-0.1,0.5l0,0.5L0,11.9l0.2,0.5l-0.1,0.5l0.1,0.5l0,0.4L0.6,14l0.5,0l0.5-0.1 l0.5,0.1l0.5,0.1L3.1,14l0.5-0.1l0.5-0.1l0.5,0L5,13.9l0.5-0.1l0.5,0l0.5,0L7,13.9L7.5,14L8,14l0.5-0.2L9,13.9L9.4,14l0.5-0.2 l0.5,0.2l0.5-0.1l0.5,0l0.5-0.1l0.5,0l0.5,0l0.5,0l0.5,0.1l-0.1-0.5l0.2-0.5l-0.1-0.5l-0.1-0.5l0.2-0.5l-0.2-0.5l0.1-0.5L14,9.9 l-0.2-0.5L13.9,9L14,8.5L14,8l-0.2-0.5l0-0.5l0.1-0.5L13.8,6l0-0.5L14,5l0-0.5l-0.1-0.5l0.1-0.5l-0.2-0.5l0.1-0.5l0-0.5l0-0.5 l-0.1-0.5L14,0.6l-0.2-0.4l-0.4,0l-0.5,0L12.4,0l-0.5,0.2l-0.5,0l-0.5-0.1l-0.5,0L10,0l-0.5,0L9,0L8.5,0.2L8,0.2L7.5,0.1L7,0.1 L6.5,0.2L6,0L5.5,0.2L5.1,0.2L4.6,0.1L4.1,0.1L3.6,0L3.1,0.1L2.6,0L2.1,0.1l-0.5,0l-0.5,0L0.6,0.2L0.2,0.1z M11.9,11.9l-0.5-0.1 L10.9,12l-0.5-0.1L10,11.9l-0.5,0.1L9,11.8l-0.5,0l-0.5,0l-0.5,0.1l-0.5,0L6.5,12L6,11.9l-0.5,0l-0.5,0L4.6,12l-0.5-0.2L3.6,12 l-0.5-0.1L2.6,12l-0.4-0.1L2,11.4l0.1-0.5l0-0.5l0.1-0.5L2,9.5L2.1,9L2,8.5L2,8l0.2-0.5l0-0.5L2,6.5L2.1,6l0.1-0.5L2.2,5L2.1,4.5 L2,4.1l0-0.5l0.2-0.5L2,2.6L2,2l0.5,0l0.5,0.1l0.5,0.1l0.5,0L4.5,2L5,2.1l0.5,0.1L6,2l0.5,0.2L7,2.1l0.5,0L8,2l0.5,0L9,2l0.5,0 l0.5,0.1L10.4,2l0.5,0.2L11.4,2L12,2l-0.1,0.6L12,3.1l-0.1,0.5L11.8,4L12,4.5L11.9,5l-0.1,0.5l0,0.5L12,6.5L12,7l-0.1,0.5L12,8 l0,0.5l-0.2,0.5l0,0.5l0.1,0.5l-0.1,0.5l0.2,0.5l-0.1,0.5L11.9,11.9z"/></g></g>
<g transform="translate(96,96)"  fill="#000000"><g transform="scale(12)"><rect width="6" height="6"/></g></g>
<g transform="translate(816,96)"  fill="#000000"><g transform="scale(12)"><rect width="6" height="6"/></g></g>
<g transform="translate(96,816)"  fill="#000000"><g transform="scale(12)"><rect width="6" height="6"/></g></g>
</svg>